<svg width="139" height="30" viewBox="0 0 139 30" fill="none" xmlns="http://www.w3.org/2000/svg">
<g clip-path="url(#clip0_1147_557)">
<rect width="139" height="30" rx="5" fill="#555555"/>
<path d="M103 0H134C136.761 0 139 2.23858 139 5V25C139 27.7614 136.761 30 134 30H103V0Z" fill="#AA0000"/>
<path d="M32.2614 21H30.3977L34.5852 9.36364H36.6136L40.8011 21H38.9375L35.6477 11.4773H35.5568L32.2614 21ZM32.5739 16.4432H38.6193V17.9205H32.5739V16.4432ZM42.4815 21V9.36364H46.6293C47.5346 9.36364 48.2846 9.52841 48.8793 9.85795C49.474 10.1875 49.919 10.6383 50.2145 11.2102C50.5099 11.7784 50.6577 12.4186 50.6577 13.1307C50.6577 13.8466 50.508 14.4905 50.2088 15.0625C49.9134 15.6307 49.4664 16.0814 48.8679 16.4148C48.2732 16.7443 47.5251 16.9091 46.6236 16.9091H43.7713V15.4205H46.4645C47.0365 15.4205 47.5005 15.322 47.8565 15.125C48.2126 14.9242 48.474 14.6515 48.6406 14.3068C48.8073 13.9621 48.8906 13.5701 48.8906 13.1307C48.8906 12.6913 48.8073 12.3011 48.6406 11.9602C48.474 11.6193 48.2107 11.3523 47.8509 11.1591C47.4948 10.9659 47.0251 10.8693 46.4418 10.8693H44.2372V21H42.4815ZM52.4645 21H50.6009L54.7884 9.36364H56.8168L61.0043 21H59.1406L55.8509 11.4773H55.7599L52.4645 21ZM52.777 16.4432H58.8224V17.9205H52.777V16.4432ZM71.8026 13.1477H70.0298C69.9616 12.7689 69.8348 12.4356 69.6491 12.1477C69.4635 11.8598 69.2363 11.6155 68.9673 11.4148C68.6984 11.214 68.3973 11.0625 68.0639 10.9602C67.7344 10.858 67.384 10.8068 67.0128 10.8068C66.3423 10.8068 65.742 10.9754 65.2116 11.3125C64.6851 11.6496 64.2685 12.1439 63.9616 12.7955C63.6586 13.447 63.5071 14.2424 63.5071 15.1818C63.5071 16.1288 63.6586 16.928 63.9616 17.5795C64.2685 18.2311 64.687 18.7235 65.2173 19.0568C65.7476 19.3902 66.3442 19.5568 67.0071 19.5568C67.3745 19.5568 67.723 19.5076 68.0526 19.4091C68.3859 19.3068 68.687 19.1572 68.956 18.9602C69.2249 18.7633 69.4522 18.5227 69.6378 18.2386C69.8272 17.9508 69.9579 17.6212 70.0298 17.25L71.8026 17.2557C71.7079 17.8277 71.5241 18.3542 71.2514 18.8352C70.9825 19.3125 70.6359 19.7254 70.2116 20.0739C69.7912 20.4186 69.3101 20.6856 68.7685 20.875C68.2268 21.0644 67.6359 21.1591 66.9957 21.1591C65.9882 21.1591 65.0904 20.9205 64.3026 20.4432C63.5147 19.9621 62.8935 19.2746 62.4389 18.3807C61.9882 17.4867 61.7628 16.4205 61.7628 15.1818C61.7628 13.9394 61.9901 12.8731 62.4446 11.983C62.8991 11.089 63.5204 10.4034 64.3082 9.92614C65.0961 9.44508 65.992 9.20455 66.9957 9.20455C67.6132 9.20455 68.1889 9.29356 68.723 9.47159C69.2609 9.64583 69.7438 9.90341 70.1719 10.2443C70.5999 10.5814 70.9541 10.9943 71.2344 11.483C71.5147 11.9678 71.7041 12.5227 71.8026 13.1477ZM73.9034 21V9.36364H75.6591V14.4205H81.4602V9.36364H83.2216V21H81.4602V15.9261H75.6591V21H73.9034ZM85.7784 21V9.36364H93.0739V10.875H87.5341V14.4205H92.6932V15.9261H87.5341V19.4886H93.142V21H85.7784Z" fill="white"/>
<g clip-path="url(#clip1_1147_557)">
<path d="M20.8374 6.83059V6.88559H20.9674V7.25225H21.0274V6.88559H21.1574V6.83059H20.8374ZM21.5874 6.83059L21.4416 7.12475L21.2983 6.83059H21.2258V7.25225H21.2816V6.91642L21.4249 7.20809H21.4624L21.6058 6.91642V7.25309H21.6608V6.83142L21.5874 6.83059ZM18.0399 7.66392C17.8699 7.92225 17.6866 8.21392 17.4899 8.54725L17.4566 8.59892C17.0866 9.22455 16.735 9.86094 16.4024 10.5073C16.2466 10.8073 16.0858 11.1256 15.9216 11.4623L17.8108 11.2539C18.3608 11.0023 18.6066 10.7723 18.8458 10.4406C18.9109 10.3464 18.9748 10.2514 19.0374 10.1556C19.2291 9.85309 19.4208 9.51975 19.5899 9.18892C19.7541 8.86725 19.8983 8.54975 20.0108 8.26392C20.0799 8.08059 20.1358 7.91225 20.1758 7.76392C20.2108 7.63225 20.2374 7.50809 20.2591 7.38892C19.5224 7.51392 18.6216 7.63475 18.0358 7.66392H18.0399ZM15.9116 11.4831L15.8474 11.6164C15.7824 11.7498 15.7166 11.8831 15.6508 12.0231C15.5791 12.1731 15.5074 12.3264 15.4341 12.4831L15.3241 12.7223C14.9059 13.6293 14.5094 14.5462 14.1349 15.4723C13.9991 15.8031 13.8624 16.1448 13.7241 16.4973C13.5991 16.8139 13.4766 17.1348 13.3491 17.4673L13.3324 17.5173C13.2074 17.8473 13.0824 18.1856 12.9549 18.5339L12.9466 18.5564L13.5466 18.4898C13.5348 18.4893 13.5231 18.4876 13.5116 18.4848C14.2308 18.3964 15.1866 17.8598 15.8033 17.1956C16.0883 16.8898 16.3466 16.5289 16.5866 16.1073C16.7641 15.7931 16.9308 15.4448 17.0899 15.0589C17.2299 14.7214 17.3633 14.3564 17.4899 13.9606C17.3266 14.0481 17.1374 14.1106 16.9291 14.1564C16.8542 14.174 16.7782 14.1868 16.7016 14.1948C17.3733 13.9364 17.7966 13.4406 18.1041 12.8281C17.8602 12.9969 17.5865 13.1179 17.2974 13.1848C17.2474 13.1948 17.2008 13.2031 17.1524 13.2098L17.1166 13.2148H17.1183C17.3499 13.1164 17.5466 13.0081 17.7166 12.8789C17.928 12.7195 18.108 12.5223 18.2474 12.2973L18.2999 12.2106L18.3641 12.0823C18.4795 11.8522 18.5816 11.6157 18.6699 11.3739L18.6949 11.3006C18.7392 11.1749 18.7735 11.0459 18.7974 10.9148C18.7728 10.9348 18.7466 10.9529 18.7191 10.9689C18.5166 11.0898 18.1691 11.1998 17.8891 11.2523L18.4416 11.1906L17.8883 11.2514H17.8741L17.7908 11.2656C17.7958 11.2631 17.7991 11.2606 17.8049 11.2589L15.9174 11.4673L15.9066 11.4856L15.9116 11.4831ZM12.8916 18.7081C12.7941 18.9773 12.6949 19.2531 12.5958 19.5348L12.5916 19.5473C12.5783 19.5856 12.5649 19.6256 12.5499 19.6656C12.4833 19.8548 12.4249 20.0256 12.2916 20.4156C12.5116 20.5156 12.6874 20.7781 12.8541 21.0764C12.8383 20.761 12.6987 20.4646 12.4658 20.2514C13.5433 20.3014 14.4741 20.0264 14.9574 19.2373C14.9991 19.1673 15.0374 19.0931 15.0741 19.0139C14.8574 19.2914 14.5824 19.4089 14.0741 19.3806C14.0741 19.3806 14.0708 19.3806 14.0699 19.3823L14.0733 19.3806C14.8233 19.0439 15.2016 18.7223 15.5349 18.1864C15.6133 18.0589 15.6899 17.9198 15.7683 17.7673C15.1116 18.4423 14.3499 18.6339 13.5483 18.4881L12.9483 18.5531C12.9289 18.6036 12.9103 18.6545 12.8924 18.7056L12.8916 18.7081ZM18.8499 5.09309C18.5366 5.27809 18.0166 5.80142 17.3933 6.56225L17.9649 7.64059C18.3649 7.06809 18.7733 6.55142 19.1833 6.11059L19.2316 6.05892C19.2149 6.07559 19.1983 6.09225 19.1841 6.11059C19.0508 6.25725 18.6474 6.72725 18.0383 7.66309C18.6241 7.63392 19.5249 7.51309 20.2599 7.38809C20.4783 6.16309 20.0449 5.60309 20.0449 5.60309C20.0449 5.60309 19.4949 4.71142 18.8483 5.09475L18.8499 5.09309ZM16.2799 10.4281C16.6223 9.78871 16.9852 9.1606 17.3683 8.54475L17.4016 8.49142C17.5883 8.19809 17.7766 7.91392 17.9658 7.64142L17.3949 6.56392L17.2641 6.72392C17.0999 6.92809 16.9283 7.14892 16.7533 7.38225C16.1564 8.1816 15.5958 9.00744 15.0733 9.85725L15.0549 9.88892L15.7991 11.3581C15.9574 11.0431 16.1158 10.7314 16.2783 10.4264L16.2799 10.4281ZM13.1716 17.3614C13.3033 17.0231 13.4374 16.6864 13.5741 16.3406C13.7041 16.0123 13.8408 15.6823 13.9774 15.3489C14.4002 14.3383 14.8447 13.337 15.3108 12.3456L15.4816 11.9923C15.5816 11.7898 15.6791 11.5881 15.7816 11.3889C15.7851 11.3769 15.7908 11.3656 15.7983 11.3556L15.0524 9.88642L15.0158 9.94475C14.8404 10.2318 14.669 10.5213 14.5016 10.8131C14.1811 11.3704 13.8776 11.9373 13.5916 12.5131L13.5133 12.6739C13.106 13.5067 12.7558 14.3662 12.4649 15.2464C12.2896 15.7926 12.145 16.3482 12.0316 16.9106L12.7783 18.3856C12.8758 18.1214 12.9783 17.8539 13.0816 17.5831L13.1716 17.3614ZM12.0249 16.9648C11.93 17.4301 11.8648 17.9011 11.8299 18.3748C11.8299 18.3914 11.8266 18.4081 11.8258 18.4248C11.5924 18.0498 10.9674 17.6848 10.9708 17.6881C11.4183 18.3364 11.7574 18.9798 11.8083 19.6131C11.5666 19.6614 11.2383 19.5906 10.8583 19.4506C11.2541 19.8139 11.5499 19.9139 11.6666 19.9406C11.3049 19.9656 10.9249 20.2139 10.5449 20.4989C11.1016 20.2739 11.5533 20.1823 11.8749 20.2573C11.3666 21.7073 10.8499 23.3031 10.3391 24.9989C10.41 24.9785 10.4749 24.9409 10.5278 24.8895C10.5807 24.838 10.6201 24.7743 10.6424 24.7039C10.7341 24.3973 11.3424 22.3823 12.2908 19.7331L12.3716 19.5081L12.3949 19.4431C12.4949 19.1664 12.5999 18.8831 12.7066 18.5931L12.7816 18.3956V18.3923L12.0333 16.9164C12.0308 16.9331 12.0249 16.9498 12.0233 16.9664L12.0249 16.9648Z" fill="white"/>
</g>
</g>
<defs>
<clipPath id="clip0_1147_557">
<rect width="139" height="30" fill="white"/>
</clipPath>
<clipPath id="clip1_1147_557">
<rect width="20" height="20" fill="white" transform="translate(6 5)"/>
</clipPath>
</defs>
</svg>
