<svg width="139" height="30" viewBox="0 0 139 30" fill="none" xmlns="http://www.w3.org/2000/svg">
<g clip-path="url(#clip0_1147_546)">
<rect width="139" height="30" rx="5" fill="#555555"/>
<path d="M103 0H134C136.761 0 139 2.23858 139 5V25C139 27.7614 136.761 30 134 30H103V0Z" fill="#E0E0E0"/>
<path d="M32.2614 21H30.3977L34.5852 9.36364H36.6136L40.8011 21H38.9375L35.6477 11.4773H35.5568L32.2614 21ZM32.5739 16.4432H38.6193V17.9205H32.5739V16.4432ZM42.4815 21V9.36364H46.6293C47.5346 9.36364 48.2846 9.52841 48.8793 9.85795C49.474 10.1875 49.919 10.6383 50.2145 11.2102C50.5099 11.7784 50.6577 12.4186 50.6577 13.1307C50.6577 13.8466 50.508 14.4905 50.2088 15.0625C49.9134 15.6307 49.4664 16.0814 48.8679 16.4148C48.2732 16.7443 47.5251 16.9091 46.6236 16.9091H43.7713V15.4205H46.4645C47.0365 15.4205 47.5005 15.322 47.8565 15.125C48.2126 14.9242 48.474 14.6515 48.6406 14.3068C48.8073 13.9621 48.8906 13.5701 48.8906 13.1307C48.8906 12.6913 48.8073 12.3011 48.6406 11.9602C48.474 11.6193 48.2107 11.3523 47.8509 11.1591C47.4948 10.9659 47.0251 10.8693 46.4418 10.8693H44.2372V21H42.4815ZM54.4716 9.36364V21H52.7159V9.36364H54.4716Z" fill="white"/>
<g clip-path="url(#clip1_1147_546)">
<path d="M21.3125 5H10.6875C8.09867 5 6 7.09867 6 9.6875V20.3125C6 22.9013 8.09867 25 10.6875 25H21.3125C23.9013 25 26 22.9013 26 20.3125V9.6875C26 7.09867 23.9013 5 21.3125 5Z" fill="#6F6F6F"/>
<path d="M9.33325 15.8337H13.4999M15.9999 18.3337V11.667H18.4999C18.9419 11.667 19.3659 11.8426 19.6784 12.1551C19.991 12.4677 20.1666 12.8916 20.1666 13.3337V14.167C20.1666 14.609 19.991 15.0329 19.6784 15.3455C19.3659 15.6581 18.9419 15.8337 18.4999 15.8337H15.9999M22.6666 11.667V18.3337M13.4999 18.3337V13.7503C13.4999 13.1978 13.2804 12.6679 12.8897 12.2772C12.499 11.8865 11.9691 11.667 11.4166 11.667C10.8641 11.667 10.3341 11.8865 9.94345 12.2772C9.55275 12.6679 9.33325 13.1978 9.33325 13.7503V18.3337" stroke="white" stroke-width="1.66667" stroke-linecap="round" stroke-linejoin="round"/>
</g>
</g>
<defs>
<clipPath id="clip0_1147_546">
<rect width="139" height="30" fill="white"/>
</clipPath>
<clipPath id="clip1_1147_546">
<rect width="20" height="20" fill="white" transform="translate(6 5)"/>
</clipPath>
</defs>
</svg>
