<svg width="139" height="30" viewBox="0 0 139 30" fill="none" xmlns="http://www.w3.org/2000/svg">
<g clip-path="url(#clip0_1334_558)">
<rect width="139" height="30" rx="5" fill="#555555"/>
<path d="M38.331 13.2173H36.7372C36.6918 12.956 36.608 12.7244 36.4858 12.5227C36.3636 12.3182 36.2116 12.1449 36.0298 12.0028C35.848 11.8608 35.6406 11.7543 35.4077 11.6832C35.1776 11.6094 34.929 11.5724 34.6619 11.5724C34.1875 11.5724 33.767 11.6918 33.4006 11.9304C33.0341 12.1662 32.7472 12.5128 32.5398 12.9702C32.3324 13.4247 32.2287 13.9801 32.2287 14.6364C32.2287 15.304 32.3324 15.8665 32.5398 16.3239C32.75 16.7784 33.0369 17.1222 33.4006 17.3551C33.767 17.5852 34.1861 17.7003 34.6577 17.7003C34.919 17.7003 35.1634 17.6662 35.3906 17.598C35.6207 17.527 35.8267 17.4233 36.0085 17.2869C36.1932 17.1506 36.348 16.983 36.473 16.7841C36.6009 16.5852 36.6889 16.358 36.7372 16.1023L38.331 16.1108C38.2713 16.5256 38.142 16.9148 37.9432 17.2784C37.7472 17.642 37.4901 17.9631 37.1719 18.2415C36.8537 18.517 36.4815 18.733 36.0554 18.8892C35.6293 19.0426 35.1563 19.1193 34.6364 19.1193C33.8693 19.1193 33.1847 18.9418 32.5824 18.5866C31.9801 18.2315 31.5057 17.7188 31.1591 17.0483C30.8125 16.3778 30.6392 15.5739 30.6392 14.6364C30.6392 13.696 30.8139 12.892 31.1634 12.2244C31.5128 11.554 31.9886 11.0412 32.5909 10.6861C33.1932 10.331 33.875 10.1534 34.6364 10.1534C35.1222 10.1534 35.5739 10.2216 35.9915 10.358C36.4091 10.4943 36.7813 10.6946 37.108 10.9588C37.4347 11.2202 37.7031 11.5412 37.9134 11.9219C38.1264 12.2997 38.2656 12.7315 38.331 13.2173ZM42.5657 19.1278C41.9265 19.1278 41.3725 18.9872 40.9038 18.706C40.435 18.4247 40.0714 18.0312 39.8129 17.5256C39.5572 17.0199 39.4293 16.429 39.4293 15.7528C39.4293 15.0767 39.5572 14.4844 39.8129 13.9759C40.0714 13.4673 40.435 13.0724 40.9038 12.7912C41.3725 12.5099 41.9265 12.3693 42.5657 12.3693C43.2049 12.3693 43.7589 12.5099 44.2276 12.7912C44.6964 13.0724 45.0586 13.4673 45.3143 13.9759C45.5728 14.4844 45.7021 15.0767 45.7021 15.7528C45.7021 16.429 45.5728 17.0199 45.3143 17.5256C45.0586 18.0312 44.6964 18.4247 44.2276 18.706C43.7589 18.9872 43.2049 19.1278 42.5657 19.1278ZM42.5742 17.892C42.9208 17.892 43.2106 17.7969 43.4435 17.6065C43.6765 17.4134 43.8498 17.1548 43.9634 16.831C44.0799 16.5071 44.1381 16.1463 44.1381 15.7486C44.1381 15.348 44.0799 14.9858 43.9634 14.6619C43.8498 14.3352 43.6765 14.0753 43.4435 13.8821C43.2106 13.6889 42.9208 13.5923 42.5742 13.5923C42.2191 13.5923 41.9237 13.6889 41.6879 13.8821C41.4549 14.0753 41.2802 14.3352 41.1637 14.6619C41.0501 14.9858 40.9933 15.348 40.9933 15.7486C40.9933 16.1463 41.0501 16.5071 41.1637 16.831C41.2802 17.1548 41.4549 17.4134 41.6879 17.6065C41.9237 17.7969 42.2191 17.892 42.5742 17.892ZM48.554 15.1648V19H47.0114V12.4545H48.4858V13.5668H48.5625C48.7131 13.2003 48.9531 12.9091 49.2827 12.6932C49.6151 12.4773 50.0256 12.3693 50.5142 12.3693C50.9659 12.3693 51.3594 12.4659 51.6946 12.6591C52.0327 12.8523 52.294 13.1321 52.4787 13.4986C52.6662 13.8651 52.7585 14.3097 52.7557 14.8324V19H51.2131V15.071C51.2131 14.6335 51.0994 14.2912 50.8722 14.044C50.6477 13.7969 50.3366 13.6733 49.9389 13.6733C49.669 13.6733 49.429 13.733 49.2188 13.8523C49.0114 13.9687 48.848 14.1378 48.7287 14.3594C48.6122 14.581 48.554 14.8494 48.554 15.1648ZM57.5923 12.4545V13.6477H53.8295V12.4545H57.5923ZM54.7585 10.8864H56.3011V17.0312C56.3011 17.2386 56.3324 17.3977 56.3949 17.5085C56.4602 17.6165 56.5455 17.6903 56.6506 17.7301C56.7557 17.7699 56.8722 17.7898 57 17.7898C57.0966 17.7898 57.1847 17.7827 57.2642 17.7685C57.3466 17.7543 57.4091 17.7415 57.4517 17.7301L57.7116 18.9361C57.6293 18.9645 57.5114 18.9957 57.358 19.0298C57.2074 19.0639 57.0227 19.0838 56.804 19.0895C56.4176 19.1009 56.0696 19.0426 55.7599 18.9148C55.4503 18.7841 55.2045 18.5824 55.0227 18.3097C54.8438 18.0369 54.7557 17.696 54.7585 17.2869V10.8864ZM60.766 19.1321C60.3512 19.1321 59.9776 19.0582 59.6452 18.9105C59.3157 18.7599 59.0543 18.5384 58.8612 18.2457C58.6708 17.9531 58.5756 17.5923 58.5756 17.1634C58.5756 16.794 58.6438 16.4886 58.7802 16.2472C58.9165 16.0057 59.1026 15.8125 59.3384 15.6676C59.5742 15.5227 59.8398 15.4134 60.1353 15.3395C60.4336 15.2628 60.7418 15.2074 61.06 15.1733C61.4435 15.1335 61.7546 15.098 61.9933 15.0668C62.2319 15.0327 62.4052 14.9815 62.5131 14.9134C62.6239 14.8423 62.6793 14.733 62.6793 14.5852V14.5597C62.6793 14.2386 62.5842 13.9901 62.3938 13.8139C62.2035 13.6378 61.9293 13.5497 61.5714 13.5497C61.1935 13.5497 60.8938 13.6321 60.6722 13.7969C60.4535 13.9616 60.3058 14.1562 60.229 14.3807L58.7887 14.1761C58.9023 13.7784 59.0898 13.446 59.3512 13.179C59.6126 12.9091 59.9322 12.7074 60.31 12.5739C60.6879 12.4375 61.1055 12.3693 61.5629 12.3693C61.8782 12.3693 62.1921 12.4062 62.5046 12.4801C62.8171 12.554 63.1026 12.6761 63.3612 12.8466C63.6197 13.0142 63.8271 13.2429 63.9833 13.5327C64.1424 13.8224 64.2219 14.1847 64.2219 14.6193V19H62.739V18.1009H62.6879C62.5941 18.2827 62.462 18.4531 62.2915 18.6122C62.1239 18.7685 61.9123 18.8949 61.6566 18.9915C61.4038 19.0852 61.1069 19.1321 60.766 19.1321ZM61.1665 17.9986C61.4762 17.9986 61.7447 17.9375 61.9719 17.8153C62.1992 17.6903 62.3739 17.5256 62.4961 17.321C62.6211 17.1165 62.6836 16.8935 62.6836 16.652V15.8807C62.6353 15.9205 62.5529 15.9574 62.4364 15.9915C62.3228 16.0256 62.195 16.0554 62.0529 16.081C61.9109 16.1065 61.7702 16.1293 61.631 16.1491C61.4918 16.169 61.3711 16.1861 61.2688 16.2003C61.0387 16.2315 60.8327 16.2827 60.6509 16.3537C60.4691 16.4247 60.3256 16.5241 60.2205 16.652C60.1154 16.777 60.0629 16.9389 60.0629 17.1378C60.0629 17.4219 60.1665 17.6364 60.3739 17.7812C60.5813 17.9261 60.8455 17.9986 61.1665 17.9986ZM68.6282 19.1278C67.9748 19.1278 67.4137 18.9844 66.945 18.6974C66.479 18.4105 66.1197 18.0142 65.8668 17.5085C65.6168 17 65.4918 16.4148 65.4918 15.7528C65.4918 15.0881 65.6197 14.5014 65.8754 13.9929C66.131 13.4815 66.4918 13.0838 66.9577 12.7997C67.4265 12.5128 67.9805 12.3693 68.6197 12.3693C69.1509 12.3693 69.6211 12.4673 70.0302 12.6634C70.4421 12.8565 70.7702 13.1307 71.0146 13.4858C71.2589 13.8381 71.3981 14.25 71.4322 14.7216H69.9577C69.8981 14.4062 69.756 14.1435 69.5316 13.9332C69.31 13.7202 69.0131 13.6136 68.641 13.6136C68.3256 13.6136 68.0487 13.6989 67.81 13.8693C67.5714 14.0369 67.3853 14.2784 67.2518 14.5938C67.1211 14.9091 67.0558 15.2869 67.0558 15.7273C67.0558 16.1733 67.1211 16.5568 67.2518 16.8778C67.3825 17.196 67.5657 17.4418 67.8015 17.6151C68.0401 17.7855 68.32 17.8707 68.641 17.8707C68.8683 17.8707 69.0714 17.8281 69.2504 17.7429C69.4322 17.6548 69.5842 17.5284 69.7063 17.3636C69.8285 17.1989 69.9123 16.9986 69.9577 16.7628H71.4322C71.3952 17.2259 71.2589 17.6364 71.0231 17.9943C70.7873 18.3494 70.4663 18.6278 70.06 18.8295C69.6538 19.0284 69.1765 19.1278 68.6282 19.1278ZM75.9673 12.4545V13.6477H72.2045V12.4545H75.9673ZM73.1335 10.8864H74.6761V17.0312C74.6761 17.2386 74.7074 17.3977 74.7699 17.5085C74.8352 17.6165 74.9205 17.6903 75.0256 17.7301C75.1307 17.7699 75.2472 17.7898 75.375 17.7898C75.4716 17.7898 75.5597 17.7827 75.6392 17.7685C75.7216 17.7543 75.7841 17.7415 75.8267 17.7301L76.0866 18.9361C76.0043 18.9645 75.8864 18.9957 75.733 19.0298C75.5824 19.0639 75.3977 19.0838 75.179 19.0895C74.7926 19.1009 74.4446 19.0426 74.1349 18.9148C73.8253 18.7841 73.5795 18.5824 73.3977 18.3097C73.2188 18.0369 73.1307 17.696 73.1335 17.2869V10.8864ZM80.234 19V12.4545H81.7085V13.5668H81.7852C81.9215 13.1918 82.1474 12.8991 82.4627 12.6889C82.7781 12.4759 83.1545 12.3693 83.592 12.3693C84.0352 12.3693 84.4087 12.4773 84.7127 12.6932C85.0195 12.9062 85.2354 13.1974 85.3604 13.5668H85.4286C85.5735 13.2031 85.8178 12.9134 86.1616 12.6974C86.5082 12.4787 86.9187 12.3693 87.3931 12.3693C87.9954 12.3693 88.4869 12.5597 88.8675 12.9403C89.2482 13.321 89.4386 13.8764 89.4386 14.6065V19H87.8917V14.8452C87.8917 14.4389 87.7837 14.142 87.5678 13.9545C87.3519 13.7642 87.0877 13.669 86.7752 13.669C86.4031 13.669 86.1119 13.7855 85.9016 14.0185C85.6942 14.2486 85.5906 14.5483 85.5906 14.9176V19H84.0778V14.7812C84.0778 14.4432 83.9755 14.1733 83.771 13.9716C83.5692 13.7699 83.305 13.669 82.9783 13.669C82.7567 13.669 82.555 13.7259 82.3732 13.8395C82.1914 13.9503 82.0465 14.108 81.9386 14.3125C81.8306 14.5142 81.7766 14.75 81.7766 15.0199V19H80.234ZM93.9013 19.1278C93.245 19.1278 92.6783 18.9915 92.201 18.7188C91.7266 18.4432 91.3615 18.054 91.1058 17.5511C90.8501 17.0455 90.7223 16.4503 90.7223 15.7656C90.7223 15.0923 90.8501 14.5014 91.1058 13.9929C91.3643 13.4815 91.7251 13.0838 92.1882 12.7997C92.6513 12.5128 93.1953 12.3693 93.8203 12.3693C94.2237 12.3693 94.6044 12.4347 94.9624 12.5653C95.3232 12.6932 95.6413 12.892 95.9169 13.1619C96.1953 13.4318 96.4141 13.7756 96.5732 14.1932C96.7322 14.608 96.8118 15.1023 96.8118 15.6761V16.1491H91.4467V15.1094H95.3331C95.3303 14.8139 95.2663 14.5511 95.1413 14.321C95.0163 14.0881 94.8416 13.9048 94.6172 13.7713C94.3956 13.6378 94.1371 13.571 93.8416 13.571C93.5263 13.571 93.2493 13.6477 93.0107 13.8011C92.772 13.9517 92.5859 14.1506 92.4524 14.3977C92.3217 14.642 92.255 14.9105 92.2521 15.2031V16.1108C92.2521 16.4915 92.3217 16.8182 92.4609 17.0909C92.6001 17.3608 92.7947 17.5682 93.0447 17.7131C93.2947 17.8551 93.5874 17.9261 93.9226 17.9261C94.147 17.9261 94.3501 17.8949 94.532 17.8324C94.7138 17.767 94.8714 17.6719 95.005 17.5469C95.1385 17.4219 95.2393 17.267 95.3075 17.0824L96.7479 17.2443C96.657 17.625 96.4837 17.9574 96.228 18.2415C95.9751 18.5227 95.6513 18.7415 95.2564 18.8977C94.8615 19.0511 94.4098 19.1278 93.9013 19.1278Z" fill="white"/>
<path d="M22.0583 9.44138C20.9499 8.92471 19.7499 8.54971 18.4999 8.33305C18.489 8.3327 18.4781 8.33475 18.468 8.33907C18.4579 8.34339 18.4489 8.34987 18.4416 8.35805C18.2916 8.63305 18.1166 8.99138 17.9999 9.26638C16.6741 9.06638 15.3258 9.06638 13.9999 9.26638C13.8833 8.98305 13.7083 8.63305 13.5499 8.35805C13.5416 8.34138 13.5166 8.33305 13.4916 8.33305C12.2416 8.54971 11.0499 8.92471 9.93327 9.44138C9.92493 9.44138 9.9166 9.44971 9.90827 9.45805C7.6416 12.8497 7.0166 16.1497 7.32493 19.4164C7.32493 19.433 7.33327 19.4497 7.34993 19.458C8.84993 20.558 10.2916 21.2247 11.7166 21.6664C11.7416 21.6747 11.7666 21.6664 11.7749 21.6497C12.1083 21.1914 12.4083 20.708 12.6666 20.1997C12.6833 20.1664 12.6666 20.133 12.6333 20.1247C12.1583 19.9414 11.7083 19.7247 11.2666 19.4747C11.2333 19.458 11.2333 19.408 11.2583 19.383C11.3499 19.3164 11.4416 19.2414 11.5333 19.1747C11.5499 19.158 11.5749 19.158 11.5916 19.1664C14.4583 20.4747 17.5499 20.4747 20.3833 19.1664C20.3999 19.158 20.4249 19.158 20.4416 19.1747C20.5333 19.2497 20.6249 19.3164 20.7166 19.3914C20.7499 19.4164 20.7499 19.4664 20.7083 19.483C20.2749 19.7414 19.8166 19.9497 19.3416 20.133C19.3083 20.1414 19.2999 20.183 19.3083 20.208C19.5749 20.7164 19.8749 21.1997 20.1999 21.658C20.2249 21.6664 20.2499 21.6747 20.2749 21.6664C21.7083 21.2247 23.1499 20.558 24.6499 19.458C24.6666 19.4497 24.6749 19.433 24.6749 19.4164C25.0416 15.6414 24.0666 12.3664 22.0916 9.45805C22.0833 9.44971 22.0749 9.44138 22.0583 9.44138ZM13.0999 17.4247C12.2416 17.4247 11.5249 16.633 11.5249 15.658C11.5249 14.683 12.2249 13.8914 13.0999 13.8914C13.9833 13.8914 14.6833 14.6914 14.6749 15.658C14.6749 16.633 13.9749 17.4247 13.0999 17.4247ZM18.9083 17.4247C18.0499 17.4247 17.3333 16.633 17.3333 15.658C17.3333 14.683 18.0333 13.8914 18.9083 13.8914C19.7916 13.8914 20.4916 14.6914 20.4833 15.658C20.4833 16.633 19.7916 17.4247 18.9083 17.4247Z" fill="white"/>
</g>
<defs>
<clipPath id="clip0_1334_558">
<rect width="139" height="30" fill="white"/>
</clipPath>
</defs>
</svg>
