<svg width="139" height="30" viewBox="0 0 139 30" fill="none" xmlns="http://www.w3.org/2000/svg">
<g clip-path="url(#clip0_1147_631)">
<rect width="139" height="30" rx="5" fill="#555555"/>
<path d="M103 0H134C136.761 0 139 2.23858 139 5V25C139 27.7614 136.761 30 134 30H103V0Z" fill="#33A9DC"/>
<path d="M40.9432 13.1477H39.1705C39.1023 12.7689 38.9754 12.4356 38.7898 12.1477C38.6042 11.8598 38.3769 11.6155 38.108 11.4148C37.839 11.214 37.5379 11.0625 37.2045 10.9602C36.875 10.858 36.5246 10.8068 36.1534 10.8068C35.483 10.8068 34.8826 10.9754 34.3523 11.3125C33.8258 11.6496 33.4091 12.1439 33.1023 12.7955C32.7992 13.447 32.6477 14.2424 32.6477 15.1818C32.6477 16.1288 32.7992 16.928 33.1023 17.5795C33.4091 18.2311 33.8277 18.7235 34.358 19.0568C34.8883 19.3902 35.4848 19.5568 36.1477 19.5568C36.5152 19.5568 36.8636 19.5076 37.1932 19.4091C37.5265 19.3068 37.8277 19.1572 38.0966 18.9602C38.3655 18.7633 38.5928 18.5227 38.7784 18.2386C38.9678 17.9508 39.0985 17.6212 39.1705 17.25L40.9432 17.2557C40.8485 17.8277 40.6648 18.3542 40.392 18.8352C40.1231 19.3125 39.7765 19.7254 39.3523 20.0739C38.9318 20.4186 38.4508 20.6856 37.9091 20.875C37.3674 21.0644 36.7765 21.1591 36.1364 21.1591C35.1288 21.1591 34.2311 20.9205 33.4432 20.4432C32.6553 19.9621 32.0341 19.2746 31.5795 18.3807C31.1288 17.4867 30.9034 16.4205 30.9034 15.1818C30.9034 13.9394 31.1307 12.8731 31.5852 11.983C32.0398 11.089 32.661 10.4034 33.4489 9.92614C34.2367 9.44508 35.1326 9.20455 36.1364 9.20455C36.7538 9.20455 37.3295 9.29356 37.8636 9.47159C38.4015 9.64583 38.8845 9.90341 39.3125 10.2443C39.7405 10.5814 40.0947 10.9943 40.375 11.483C40.6553 11.9678 40.8447 12.5227 40.9432 13.1477ZM49.3906 12.4205C49.33 11.8826 49.08 11.4659 48.6406 11.1705C48.2012 10.8712 47.6482 10.7216 46.9815 10.7216C46.5043 10.7216 46.0914 10.7973 45.7429 10.9489C45.3944 11.0966 45.1236 11.3011 44.9304 11.5625C44.741 11.8201 44.6463 12.1136 44.6463 12.4432C44.6463 12.7197 44.7107 12.9583 44.8395 13.1591C44.9721 13.3598 45.1444 13.5284 45.3565 13.6648C45.5724 13.7973 45.8035 13.9091 46.0497 14C46.2959 14.0871 46.5327 14.1591 46.7599 14.2159L47.8963 14.5114C48.2675 14.6023 48.6482 14.7254 49.0384 14.8807C49.4285 15.036 49.7902 15.2405 50.1236 15.4943C50.4569 15.7481 50.7259 16.0625 50.9304 16.4375C51.1387 16.8125 51.2429 17.2614 51.2429 17.7841C51.2429 18.4432 51.0724 19.0284 50.7315 19.5398C50.3944 20.0511 49.9039 20.4545 49.2599 20.75C48.6198 21.0455 47.8452 21.1932 46.9361 21.1932C46.0649 21.1932 45.3111 21.0549 44.6747 20.7784C44.0384 20.5019 43.5402 20.1098 43.1804 19.6023C42.8205 19.0909 42.6217 18.4848 42.5838 17.7841H44.3452C44.3793 18.2045 44.5156 18.5549 44.7543 18.8352C44.9967 19.1117 45.3054 19.3182 45.6804 19.4545C46.0592 19.5871 46.474 19.6534 46.9247 19.6534C47.4209 19.6534 47.8622 19.5758 48.2486 19.4205C48.6387 19.2614 48.9455 19.0417 49.169 18.7614C49.3925 18.4773 49.5043 18.1458 49.5043 17.767C49.5043 17.4223 49.4058 17.1402 49.2088 16.9205C49.0156 16.7008 48.7524 16.5189 48.419 16.375C48.0895 16.2311 47.7164 16.1042 47.2997 15.9943L45.9247 15.6193C44.9929 15.3655 44.2543 14.9924 43.7088 14.5C43.1671 14.0076 42.8963 13.3561 42.8963 12.5455C42.8963 11.875 43.0781 11.2898 43.4418 10.7898C43.8054 10.2898 44.2978 9.90151 44.919 9.625C45.5402 9.3447 46.241 9.20455 47.0213 9.20455C47.8092 9.20455 48.5043 9.3428 49.1065 9.61932C49.7126 9.89583 50.1899 10.2765 50.5384 10.7614C50.8868 11.2424 51.0687 11.7955 51.0838 12.4205H49.3906ZM59.6875 12.4205C59.6269 11.8826 59.3769 11.4659 58.9375 11.1705C58.4981 10.8712 57.9451 10.7216 57.2784 10.7216C56.8011 10.7216 56.3883 10.7973 56.0398 10.9489C55.6913 11.0966 55.4205 11.3011 55.2273 11.5625C55.0379 11.8201 54.9432 12.1136 54.9432 12.4432C54.9432 12.7197 55.0076 12.9583 55.1364 13.1591C55.2689 13.3598 55.4413 13.5284 55.6534 13.6648C55.8693 13.7973 56.1004 13.9091 56.3466 14C56.5928 14.0871 56.8295 14.1591 57.0568 14.2159L58.1932 14.5114C58.5644 14.6023 58.9451 14.7254 59.3352 14.8807C59.7254 15.036 60.0871 15.2405 60.4205 15.4943C60.7538 15.7481 61.0227 16.0625 61.2273 16.4375C61.4356 16.8125 61.5398 17.2614 61.5398 17.7841C61.5398 18.4432 61.3693 19.0284 61.0284 19.5398C60.6913 20.0511 60.2008 20.4545 59.5568 20.75C58.9167 21.0455 58.142 21.1932 57.233 21.1932C56.3617 21.1932 55.608 21.0549 54.9716 20.7784C54.3352 20.5019 53.8371 20.1098 53.4773 19.6023C53.1174 19.0909 52.9186 18.4848 52.8807 17.7841H54.642C54.6761 18.2045 54.8125 18.5549 55.0511 18.8352C55.2936 19.1117 55.6023 19.3182 55.9773 19.4545C56.3561 19.5871 56.7708 19.6534 57.2216 19.6534C57.7178 19.6534 58.1591 19.5758 58.5455 19.4205C58.9356 19.2614 59.2424 19.0417 59.4659 18.7614C59.6894 18.4773 59.8011 18.1458 59.8011 17.767C59.8011 17.4223 59.7027 17.1402 59.5057 16.9205C59.3125 16.7008 59.0492 16.5189 58.7159 16.375C58.3864 16.2311 58.0133 16.1042 57.5966 15.9943L56.2216 15.6193C55.2898 15.3655 54.5511 14.9924 54.0057 14.5C53.464 14.0076 53.1932 13.3561 53.1932 12.5455C53.1932 11.875 53.375 11.2898 53.7386 10.7898C54.1023 10.2898 54.5947 9.90151 55.2159 9.625C55.8371 9.3447 56.5379 9.20455 57.3182 9.20455C58.1061 9.20455 58.8011 9.3428 59.4034 9.61932C60.0095 9.89583 60.4867 10.2765 60.8352 10.7614C61.1837 11.2424 61.3655 11.7955 61.3807 12.4205H59.6875Z" fill="white"/>
<g clip-path="url(#clip1_1147_631)">
<path d="M23.1383 22.8525L24.7325 5H7L7.02083 5.23167L8.59167 22.855L8.605 23.0017L15.7992 25H15.9125L23.1233 23L23.1367 22.8533L23.1383 22.8525ZM15.8817 8.89917H21.0342L20.8792 10.6992L15.7958 12.9592L15.8808 13.3658H20.6508L20.1017 19.6583L15.8633 20.8333L11.6267 19.66L11.36 16.6467H13.1042L13.2442 18.1742L13.2575 18.3225L15.8283 19.0058H15.9392L18.4817 18.2992L18.4942 18.1517L18.7342 15.33L18.7533 15.1H11.2142L11.0558 13.2892L16.3133 11.0383L16.23 10.63H10.83L10.6758 8.89667H15.8758L15.8817 8.89917Z" fill="white"/>
</g>
</g>
<defs>
<clipPath id="clip0_1147_631">
<rect width="139" height="30" fill="white"/>
</clipPath>
<clipPath id="clip1_1147_631">
<rect width="17.5" height="20" fill="white" transform="translate(7 5)"/>
</clipPath>
</defs>
</svg>
