<svg width="139" height="30" viewBox="0 0 139 30" fill="none" xmlns="http://www.w3.org/2000/svg">
<g clip-path="url(#clip0_1147_608)">
<rect width="139" height="30" rx="5" fill="#555555"/>
<path d="M103 0H134C136.761 0 139 2.23858 139 5V25C139 27.7614 136.761 30 134 30H103V0Z" fill="#A259FF"/>
<path d="M31.2784 21V9.36364H38.4943V10.875H33.0341V14.4205H37.9773V15.9261H33.0341V21H31.2784ZM42.4091 9.36364V21H40.6534V9.36364H42.4091ZM52.8409 13.0398C52.7311 12.6951 52.5833 12.3864 52.3977 12.1136C52.2159 11.8371 51.9981 11.6023 51.7443 11.4091C51.4905 11.2121 51.2008 11.0625 50.875 10.9602C50.553 10.858 50.1989 10.8068 49.8125 10.8068C49.1572 10.8068 48.5663 10.9754 48.0398 11.3125C47.5133 11.6496 47.0966 12.1439 46.7898 12.7955C46.4867 13.4432 46.3352 14.2367 46.3352 15.1761C46.3352 16.1193 46.4886 16.9167 46.7955 17.5682C47.1023 18.2197 47.5227 18.714 48.0568 19.0511C48.5909 19.3883 49.1989 19.5568 49.8807 19.5568C50.5133 19.5568 51.0644 19.428 51.5341 19.1705C52.0076 18.9129 52.3731 18.5492 52.6307 18.0795C52.892 17.6061 53.0227 17.0492 53.0227 16.4091L53.4773 16.4943H50.1477V15.0455H54.7216V16.3693C54.7216 17.3466 54.5133 18.1951 54.0966 18.9148C53.6837 19.6307 53.1117 20.1837 52.3807 20.5739C51.6534 20.964 50.8201 21.1591 49.8807 21.1591C48.8277 21.1591 47.9034 20.9167 47.108 20.4318C46.3163 19.947 45.6989 19.2595 45.2557 18.3693C44.8125 17.4754 44.5909 16.4148 44.5909 15.1875C44.5909 14.2595 44.7197 13.4261 44.9773 12.6875C45.2348 11.9489 45.5966 11.322 46.0625 10.8068C46.5322 10.2879 47.0833 9.89205 47.7159 9.61932C48.3523 9.3428 49.0473 9.20455 49.8011 9.20455C50.4299 9.20455 51.0152 9.29735 51.5568 9.48295C52.1023 9.66856 52.5871 9.93182 53.0114 10.2727C53.4394 10.6136 53.7936 11.0189 54.0739 11.4886C54.3542 11.9545 54.5436 12.4716 54.642 13.0398H52.8409ZM56.9503 9.36364H59.081L62.7855 18.4091H62.9219L66.6264 9.36364H68.7571V21H67.0866V12.5795H66.9787L63.5469 20.983H62.1605L58.7287 12.5739H58.6207V21H56.9503V9.36364ZM72.2926 21H70.429L74.6165 9.36364H76.6449L80.8324 21H78.9688L75.679 11.4773H75.5881L72.2926 21ZM72.6051 16.4432H78.6506V17.9205H72.6051V16.4432Z" fill="white"/>
<path opacity="0.6" d="M15.7225 6.66699H12.9442C12.2074 6.66699 11.5009 6.95966 10.9799 7.48063C10.4589 8.00159 10.1663 8.70816 10.1663 9.44491C10.1663 10.1817 10.4589 10.8882 10.9799 11.4092C11.5009 11.9302 12.2074 12.2228 12.9442 12.2228H15.7225V6.66699Z" fill="white"/>
<path opacity="0.4" d="M15.7225 12.2217H12.9442C12.2074 12.2217 11.5009 12.5144 10.9799 13.0353C10.4589 13.5563 10.1663 14.2628 10.1663 14.9996C10.1663 15.7363 10.4589 16.4429 10.9799 16.9639C11.5009 17.4848 12.2074 17.7775 12.9442 17.7775H15.7225V12.2217Z" fill="white"/>
<path d="M21.2775 15.0006C21.2775 15.7373 20.9848 16.4439 20.4639 16.9649C19.9429 17.4858 19.2363 17.7785 18.4996 17.7785C17.7628 17.7785 17.0563 17.4858 16.5353 16.9649C16.0144 16.4439 15.7217 15.7373 15.7217 15.0006C15.7217 14.2638 16.0144 13.5572 16.5353 13.0363C17.0563 12.5153 17.7628 12.2227 18.4996 12.2227C19.2363 12.2227 19.9429 12.5153 20.4639 13.0363C20.9848 13.5572 21.2775 14.2638 21.2775 15.0006Z" fill="white"/>
<path opacity="0.2" d="M12.9441 17.7782H15.7225V20.5557C15.7223 21.1049 15.5593 21.6418 15.254 22.0985C14.9488 22.5551 14.515 22.911 14.0075 23.1211C13.5 23.3312 12.9416 23.3861 12.4029 23.2789C11.8642 23.1717 11.3694 22.9072 10.981 22.5188C10.5926 22.1304 10.3281 21.6356 10.2209 21.0969C10.1137 20.5582 10.1686 19.9998 10.3787 19.4923C10.5889 18.9848 10.9447 18.551 11.4014 18.2458C11.858 17.9405 12.3949 17.7783 12.9441 17.7782Z" fill="white"/>
<path opacity="0.8" d="M15.7217 6.66699H18.4992C19.2359 6.66699 19.9425 6.95966 20.4635 7.48063C20.9844 8.00159 21.2771 8.70816 21.2771 9.44491C21.2771 10.1817 20.9844 10.8882 20.4635 11.4092C19.9425 11.9302 19.2359 12.2228 18.4992 12.2228H15.7217V6.66699Z" fill="white"/>
</g>
<defs>
<clipPath id="clip0_1147_608">
<rect width="139" height="30" fill="white"/>
</clipPath>
</defs>
</svg>
