<svg width="139" height="30" viewBox="0 0 139 30" fill="none" xmlns="http://www.w3.org/2000/svg">
<g clip-path="url(#clip0_1147_763)">
<rect width="139" height="30" rx="5" fill="#555555"/>
<path d="M103 0H134C136.761 0 139 2.23858 139 5V25C139 27.7614 136.761 30 134 30H103V0Z" fill="#171515"/>
<path d="M36.7074 13.0597C36.6364 12.8295 36.5384 12.6236 36.4134 12.4418C36.2912 12.2571 36.1435 12.0994 35.9702 11.9688C35.7997 11.8381 35.6037 11.7401 35.3821 11.6747C35.1605 11.6065 34.919 11.5724 34.6577 11.5724C34.1889 11.5724 33.7713 11.6903 33.4048 11.9261C33.0384 12.1619 32.75 12.5085 32.5398 12.9659C32.3324 13.4205 32.2287 13.9744 32.2287 14.6278C32.2287 15.2869 32.3324 15.8452 32.5398 16.3026C32.7472 16.7599 33.0355 17.108 33.4048 17.3466C33.7741 17.5824 34.2031 17.7003 34.6918 17.7003C35.1349 17.7003 35.5185 17.6151 35.8423 17.4446C36.169 17.2741 36.4205 17.0327 36.5966 16.7202C36.7727 16.4048 36.8608 16.0355 36.8608 15.6122L37.2188 15.6676H34.8494V14.4318H38.3906V15.4801C38.3906 16.2273 38.2315 16.8736 37.9134 17.419C37.5952 17.9645 37.1577 18.3849 36.6009 18.6804C36.044 18.973 35.4048 19.1193 34.6832 19.1193C33.8793 19.1193 33.1733 18.9389 32.5653 18.5781C31.9602 18.2145 31.4872 17.6989 31.1463 17.0312C30.8082 16.3608 30.6392 15.5653 30.6392 14.6449C30.6392 13.9403 30.7386 13.3111 30.9375 12.7571C31.1392 12.2031 31.4205 11.733 31.7812 11.3466C32.142 10.9574 32.5653 10.6619 33.0511 10.4602C33.5369 10.2557 34.0653 10.1534 34.6364 10.1534C35.1193 10.1534 35.5696 10.2244 35.9872 10.3665C36.4048 10.5057 36.7756 10.7045 37.0994 10.9631C37.4261 11.2216 37.6946 11.5284 37.9048 11.8835C38.1151 12.2386 38.2528 12.6307 38.3182 13.0597H36.7074ZM41.5004 10.2727V19H39.9194V10.2727H41.5004ZM42.8288 11.598V10.2727H49.7919V11.598H47.0945V19H45.5263V11.598H42.8288ZM51.1342 19V10.2727H52.7152V13.9673H56.7592V10.2727H58.3445V19H56.7592V15.2926H52.7152V19H51.1342ZM65.5653 10.2727H67.1463V15.9744C67.1463 16.5994 66.9986 17.1491 66.7031 17.6236C66.4105 18.098 65.9986 18.4687 65.4673 18.7358C64.9361 19 64.3153 19.1321 63.6051 19.1321C62.892 19.1321 62.2699 19 61.7386 18.7358C61.2074 18.4687 60.7955 18.098 60.5028 17.6236C60.2102 17.1491 60.0639 16.5994 60.0639 15.9744V10.2727H61.6449V15.8423C61.6449 16.206 61.7244 16.5298 61.8835 16.8139C62.0455 17.098 62.2727 17.321 62.5653 17.483C62.858 17.642 63.2045 17.7216 63.6051 17.7216C64.0057 17.7216 64.3523 17.642 64.6449 17.483C64.9403 17.321 65.1676 17.098 65.3267 16.8139C65.4858 16.5298 65.5653 16.206 65.5653 15.8423V10.2727ZM68.8647 19V10.2727H72.2056C72.8363 10.2727 73.3604 10.3722 73.7781 10.571C74.1985 10.767 74.5124 11.0355 74.7198 11.3764C74.93 11.7173 75.0352 12.1037 75.0352 12.5355C75.0352 12.8906 74.967 13.1946 74.8306 13.4474C74.6942 13.6974 74.511 13.9006 74.2809 14.0568C74.0508 14.2131 73.7937 14.3253 73.5096 14.3935V14.4787C73.8192 14.4957 74.1161 14.5909 74.4002 14.7642C74.6871 14.9347 74.9215 15.1761 75.1033 15.4886C75.2852 15.8011 75.3761 16.179 75.3761 16.6222C75.3761 17.0739 75.2667 17.4801 75.0479 17.8409C74.8292 18.1989 74.4996 18.4815 74.0593 18.6889C73.619 18.8963 73.065 19 72.3974 19H68.8647ZM70.4457 17.679H72.146C72.7198 17.679 73.1332 17.5696 73.386 17.3509C73.6417 17.1293 73.7695 16.8452 73.7695 16.4986C73.7695 16.2401 73.7056 16.0071 73.5778 15.7997C73.4499 15.5895 73.2681 15.4247 73.0323 15.3054C72.7965 15.1832 72.5153 15.1222 72.1886 15.1222H70.4457V17.679ZM70.4457 13.9844H72.0096C72.2823 13.9844 72.5281 13.9347 72.7468 13.8352C72.9656 13.733 73.1374 13.5895 73.2624 13.4048C73.3903 13.2173 73.4542 12.9957 73.4542 12.7401C73.4542 12.402 73.3349 12.1236 73.0962 11.9048C72.8604 11.6861 72.5096 11.5767 72.0437 11.5767H70.4457V13.9844Z" fill="white"/>
<path d="M16.3333 7C15.239 7 14.1554 7.21555 13.1443 7.63434C12.1333 8.05313 11.2146 8.66696 10.4408 9.44078C8.87797 11.0036 8 13.1232 8 15.3333C8 19.0167 10.3917 22.1417 13.7 23.25C14.1167 23.3167 14.25 23.0583 14.25 22.8333V21.425C11.9417 21.925 11.45 20.3083 11.45 20.3083C11.0667 19.3417 10.525 19.0833 10.525 19.0833C9.76667 18.5667 10.5833 18.5833 10.5833 18.5833C11.4167 18.6417 11.8583 19.4417 11.8583 19.4417C12.5833 20.7083 13.8083 20.3333 14.2833 20.1333C14.3583 19.5917 14.575 19.225 14.8083 19.0167C12.9583 18.8083 11.0167 18.0917 11.0167 14.9167C11.0167 13.9917 11.3333 13.25 11.875 12.6583C11.7917 12.45 11.5 11.5833 11.9583 10.4583C11.9583 10.4583 12.6583 10.2333 14.25 11.3083C14.9083 11.125 15.625 11.0333 16.3333 11.0333C17.0417 11.0333 17.7583 11.125 18.4167 11.3083C20.0083 10.2333 20.7083 10.4583 20.7083 10.4583C21.1667 11.5833 20.875 12.45 20.7917 12.6583C21.3333 13.25 21.65 13.9917 21.65 14.9167C21.65 18.1 19.7 18.8 17.8417 19.0083C18.1417 19.2667 18.4167 19.775 18.4167 20.55V22.8333C18.4167 23.0583 18.55 23.325 18.975 23.25C22.2833 22.1333 24.6667 19.0167 24.6667 15.3333C24.6667 14.239 24.4511 13.1554 24.0323 12.1443C23.6135 11.1333 22.9997 10.2146 22.2259 9.44078C21.4521 8.66696 20.5334 8.05313 19.5224 7.63434C18.5113 7.21555 17.4277 7 16.3333 7Z" fill="white"/>
</g>
<defs>
<clipPath id="clip0_1147_763">
<rect width="139" height="30" fill="white"/>
</clipPath>
</defs>
</svg>
