<svg width="139" height="30" viewBox="0 0 139 30" fill="none" xmlns="http://www.w3.org/2000/svg">
<g clip-path="url(#clip0_1147_781)">
<rect width="139" height="30" rx="5" fill="#555555"/>
<path d="M103 0H134C136.761 0 139 2.23858 139 5V25C139 27.7614 136.761 30 134 30H103V0Z" fill="#E24329"/>
<path d="M36.7074 13.0597C36.6364 12.8295 36.5384 12.6236 36.4134 12.4418C36.2912 12.2571 36.1435 12.0994 35.9702 11.9688C35.7997 11.8381 35.6037 11.7401 35.3821 11.6747C35.1605 11.6065 34.919 11.5724 34.6577 11.5724C34.1889 11.5724 33.7713 11.6903 33.4048 11.9261C33.0384 12.1619 32.75 12.5085 32.5398 12.9659C32.3324 13.4205 32.2287 13.9744 32.2287 14.6278C32.2287 15.2869 32.3324 15.8452 32.5398 16.3026C32.7472 16.7599 33.0355 17.108 33.4048 17.3466C33.7741 17.5824 34.2031 17.7003 34.6918 17.7003C35.1349 17.7003 35.5185 17.6151 35.8423 17.4446C36.169 17.2741 36.4205 17.0327 36.5966 16.7202C36.7727 16.4048 36.8608 16.0355 36.8608 15.6122L37.2188 15.6676H34.8494V14.4318H38.3906V15.4801C38.3906 16.2273 38.2315 16.8736 37.9134 17.419C37.5952 17.9645 37.1577 18.3849 36.6009 18.6804C36.044 18.973 35.4048 19.1193 34.6832 19.1193C33.8793 19.1193 33.1733 18.9389 32.5653 18.5781C31.9602 18.2145 31.4872 17.6989 31.1463 17.0312C30.8082 16.3608 30.6392 15.5653 30.6392 14.6449C30.6392 13.9403 30.7386 13.3111 30.9375 12.7571C31.1392 12.2031 31.4205 11.733 31.7812 11.3466C32.142 10.9574 32.5653 10.6619 33.0511 10.4602C33.5369 10.2557 34.0653 10.1534 34.6364 10.1534C35.1193 10.1534 35.5696 10.2244 35.9872 10.3665C36.4048 10.5057 36.7756 10.7045 37.0994 10.9631C37.4261 11.2216 37.6946 11.5284 37.9048 11.8835C38.1151 12.2386 38.2528 12.6307 38.3182 13.0597H36.7074ZM41.5004 10.2727V19H39.9194V10.2727H41.5004ZM42.8288 11.598V10.2727H49.7919V11.598H47.0945V19H45.5263V11.598H42.8288ZM51.1342 19V10.2727H52.7152V17.6747H56.5589V19H51.1342ZM59.38 19H57.6925L60.7649 10.2727H62.7166L65.7933 19H64.1058L61.7749 12.0625H61.7067L59.38 19ZM59.4354 15.5781H64.0376V16.848H59.4354V15.5781ZM66.9428 19V10.2727H70.2837C70.9144 10.2727 71.4386 10.3722 71.8562 10.571C72.2766 10.767 72.5906 11.0355 72.7979 11.3764C73.0082 11.7173 73.1133 12.1037 73.1133 12.5355C73.1133 12.8906 73.0451 13.1946 72.9087 13.4474C72.7724 13.6974 72.5891 13.9006 72.359 14.0568C72.1289 14.2131 71.8718 14.3253 71.5877 14.3935V14.4787C71.8974 14.4957 72.1942 14.5909 72.4783 14.7642C72.7653 14.9347 72.9996 15.1761 73.1815 15.4886C73.3633 15.8011 73.4542 16.179 73.4542 16.6222C73.4542 17.0739 73.3448 17.4801 73.1261 17.8409C72.9073 18.1989 72.5778 18.4815 72.1374 18.6889C71.6971 18.8963 71.1431 19 70.4755 19H66.9428ZM68.5238 17.679H70.2241C70.7979 17.679 71.2113 17.5696 71.4641 17.3509C71.7198 17.1293 71.8477 16.8452 71.8477 16.4986C71.8477 16.2401 71.7837 16.0071 71.6559 15.7997C71.5281 15.5895 71.3462 15.4247 71.1104 15.3054C70.8746 15.1832 70.5934 15.1222 70.2667 15.1222H68.5238V17.679ZM68.5238 13.9844H70.0877C70.3604 13.9844 70.6062 13.9347 70.8249 13.8352C71.0437 13.733 71.2156 13.5895 71.3406 13.4048C71.4684 13.2173 71.5323 12.9957 71.5323 12.7401C71.5323 12.402 71.413 12.1236 71.1744 11.9048C70.9386 11.6861 70.5877 11.5767 70.1218 11.5767H68.5238V13.9844Z" fill="white"/>
<path d="M16 22.8504L19.07 13.4062H12.9333L16 22.8504Z" fill="white"/>
<path opacity="0.25" d="M8.63325 13.4062L7.69742 16.2763C7.65612 16.4038 7.6562 16.5412 7.69766 16.6687C7.73912 16.7962 7.81983 16.9074 7.92825 16.9863L15.9991 22.8512L8.63242 13.4062H8.63325Z" fill="white"/>
<path d="M8.6333 13.4054H12.9333L11.0833 7.71793C11.0624 7.65399 11.0218 7.59829 10.9673 7.5588C10.9128 7.51931 10.8473 7.49805 10.78 7.49805C10.7127 7.49805 10.6471 7.51931 10.5926 7.5588C10.5382 7.59829 10.4976 7.65399 10.4766 7.71793L8.6333 13.4054Z" fill="white"/>
<path opacity="0.25" d="M23.3709 13.4062L24.3026 16.2763C24.344 16.4037 24.344 16.541 24.3027 16.6685C24.2614 16.7961 24.1809 16.9073 24.0726 16.9863L15.9993 22.8512L23.3709 13.4062Z" fill="white"/>
<path d="M23.3709 13.4061H19.0701L20.9167 7.71862C20.9379 7.65498 20.9785 7.59961 21.0329 7.56036C21.0872 7.52112 21.1526 7.5 21.2197 7.5C21.2867 7.5 21.3521 7.52112 21.4064 7.56036C21.4608 7.59961 21.5014 7.65498 21.5226 7.71862L23.3709 13.4061Z" fill="white"/>
<path opacity="0.5" d="M15.9993 22.8512L19.0701 13.4062H23.3709L15.9993 22.8512Z" fill="white"/>
<path opacity="0.5" d="M15.9992 22.8512L8.63257 13.4062H12.9334L15.9992 22.8512Z" fill="white"/>
</g>
<defs>
<clipPath id="clip0_1147_781">
<rect width="139" height="30" fill="white"/>
</clipPath>
</defs>
</svg>
