<svg width="139" height="30" viewBox="0 0 139 30" fill="none" xmlns="http://www.w3.org/2000/svg">
<g clip-path="url(#clip0_1147_488)">
<rect width="139" height="30" rx="5" fill="#555555"/>
<path d="M103 0H134C136.761 0 139 2.23858 139 5V25C139 27.7614 136.761 30 134 30H103V0Z" fill="#E34F26"/>
<path d="M31.2784 21V9.36364H33.0341V14.4205H38.8352V9.36364H40.5966V21H38.8352V15.9261H33.0341V21H31.2784ZM42.5795 10.875V9.36364H51.5852V10.875H47.9545V21H46.2045V10.875H42.5795ZM53.5753 9.36364H55.706L59.4105 18.4091H59.5469L63.2514 9.36364H65.3821V21H63.7116V12.5795H63.6037L60.1719 20.983H58.7855L55.3537 12.5739H55.2457V21H53.5753V9.36364ZM67.9347 21V9.36364H69.6903V19.4886H74.9631V21H67.9347Z" fill="white"/>
<path d="M22.6666 8.33301L20.9999 20.4163L15.9999 22.083L10.9999 20.4163L9.33325 8.33301H22.6666Z" stroke="white" stroke-width="1.66667" stroke-linecap="round" stroke-linejoin="round"/>
<path d="M18.9166 11.666H13.0833L13.4999 14.9993H18.4999L18.0833 17.916L15.9999 18.541L13.9166 17.916L13.8333 17.4993" stroke="white" stroke-width="1.66667" stroke-linecap="round" stroke-linejoin="round"/>
</g>
<defs>
<clipPath id="clip0_1147_488">
<rect width="139" height="30" fill="white"/>
</clipPath>
</defs>
</svg>
