<svg width="139" height="30" viewBox="0 0 139 30" fill="none" xmlns="http://www.w3.org/2000/svg">
<g clip-path="url(#clip0_1147_535)">
<rect width="139" height="30" rx="5" fill="#555555"/>
<path d="M103 0H134C136.761 0 139 2.23858 139 5V25C139 27.7614 136.761 30 134 30H103V0Z" fill="#1E1E1E"/>
<path d="M35.8011 9.36364H37.5511V17.6136C37.5511 18.3598 37.4034 18.9981 37.108 19.5284C36.8163 20.0587 36.4053 20.464 35.875 20.7443C35.3447 21.0208 34.7235 21.1591 34.0114 21.1591C33.3561 21.1591 32.767 21.0398 32.2443 20.8011C31.7254 20.5625 31.3144 20.2159 31.0114 19.7614C30.7121 19.303 30.5625 18.7462 30.5625 18.0909H32.3068C32.3068 18.4129 32.3807 18.6913 32.5284 18.9261C32.6799 19.161 32.8864 19.3447 33.1477 19.4773C33.4129 19.6061 33.7159 19.6705 34.0568 19.6705C34.428 19.6705 34.7424 19.5928 35 19.4375C35.2614 19.2784 35.4602 19.0455 35.5966 18.7386C35.733 18.4318 35.8011 18.0568 35.8011 17.6136V9.36364ZM46.4531 12.4205C46.3925 11.8826 46.1425 11.4659 45.7031 11.1705C45.2637 10.8712 44.7107 10.7216 44.044 10.7216C43.5668 10.7216 43.1539 10.7973 42.8054 10.9489C42.4569 11.0966 42.1861 11.3011 41.9929 11.5625C41.8035 11.8201 41.7088 12.1136 41.7088 12.4432C41.7088 12.7197 41.7732 12.9583 41.902 13.1591C42.0346 13.3598 42.2069 13.5284 42.419 13.6648C42.6349 13.7973 42.866 13.9091 43.1122 14C43.3584 14.0871 43.5952 14.1591 43.8224 14.2159L44.9588 14.5114C45.33 14.6023 45.7107 14.7254 46.1009 14.8807C46.491 15.036 46.8527 15.2405 47.1861 15.4943C47.5194 15.7481 47.7884 16.0625 47.9929 16.4375C48.2012 16.8125 48.3054 17.2614 48.3054 17.7841C48.3054 18.4432 48.1349 19.0284 47.794 19.5398C47.4569 20.0511 46.9664 20.4545 46.3224 20.75C45.6823 21.0455 44.9077 21.1932 43.9986 21.1932C43.1274 21.1932 42.3736 21.0549 41.7372 20.7784C41.1009 20.5019 40.6027 20.1098 40.2429 19.6023C39.883 19.0909 39.6842 18.4848 39.6463 17.7841H41.4077C41.4418 18.2045 41.5781 18.5549 41.8168 18.8352C42.0592 19.1117 42.3679 19.3182 42.7429 19.4545C43.1217 19.5871 43.5365 19.6534 43.9872 19.6534C44.4834 19.6534 44.9247 19.5758 45.3111 19.4205C45.7012 19.2614 46.008 19.0417 46.2315 18.7614C46.455 18.4773 46.5668 18.1458 46.5668 17.767C46.5668 17.4223 46.4683 17.1402 46.2713 16.9205C46.0781 16.7008 45.8149 16.5189 45.4815 16.375C45.152 16.2311 44.7789 16.1042 44.3622 15.9943L42.9872 15.6193C42.0554 15.3655 41.3168 14.9924 40.7713 14.5C40.2296 14.0076 39.9588 13.3561 39.9588 12.5455C39.9588 11.875 40.1406 11.2898 40.5043 10.7898C40.8679 10.2898 41.3603 9.90151 41.9815 9.625C42.6027 9.3447 43.3035 9.20455 44.0838 9.20455C44.8717 9.20455 45.5668 9.3428 46.169 9.61932C46.7751 9.89583 47.2524 10.2765 47.6009 10.7614C47.9493 11.2424 48.1312 11.7955 48.1463 12.4205H46.4531ZM60.5114 15.1818C60.5114 16.4242 60.2841 17.4924 59.8295 18.3864C59.375 19.2765 58.7519 19.9621 57.9602 20.4432C57.1723 20.9205 56.2765 21.1591 55.2727 21.1591C54.2652 21.1591 53.3655 20.9205 52.5739 20.4432C51.786 19.9621 51.1648 19.2746 50.7102 18.3807C50.2557 17.4867 50.0284 16.4205 50.0284 15.1818C50.0284 13.9394 50.2557 12.8731 50.7102 11.983C51.1648 11.089 51.786 10.4034 52.5739 9.92614C53.3655 9.44508 54.2652 9.20455 55.2727 9.20455C56.2765 9.20455 57.1723 9.44508 57.9602 9.92614C58.7519 10.4034 59.375 11.089 59.8295 11.983C60.2841 12.8731 60.5114 13.9394 60.5114 15.1818ZM58.7727 15.1818C58.7727 14.2348 58.6193 13.4375 58.3125 12.7898C58.0095 12.1383 57.5928 11.6458 57.0625 11.3125C56.536 10.9754 55.9394 10.8068 55.2727 10.8068C54.6023 10.8068 54.0038 10.9754 53.4773 11.3125C52.9508 11.6458 52.5341 12.1383 52.2273 12.7898C51.9242 13.4375 51.7727 14.2348 51.7727 15.1818C51.7727 16.1288 51.9242 16.928 52.2273 17.5795C52.5341 18.2273 52.9508 18.7197 53.4773 19.0568C54.0038 19.3902 54.6023 19.5568 55.2727 19.5568C55.9394 19.5568 56.536 19.3902 57.0625 19.0568C57.5928 18.7197 58.0095 18.2273 58.3125 17.5795C58.6193 16.928 58.7727 16.1288 58.7727 15.1818ZM72.0923 9.36364V21H70.4787L64.5639 12.4659H64.456V21H62.7003V9.36364H64.3253L70.2457 17.9091H70.3537V9.36364H72.0923Z" fill="white"/>
<path d="M16.6859 17.6016C16.255 17.6016 16.0059 18.0107 16.0059 18.5566C16.0059 19.1074 16.265 19.4949 16.6892 19.4949C17.12 19.4949 17.3659 19.0866 17.3659 18.5399C17.3659 18.0366 17.1234 17.6016 16.6859 17.6016Z" fill="white"/>
<path d="M17.6666 6.66699H10.9999C10.5579 6.66699 10.134 6.84259 9.82141 7.15515C9.50885 7.46771 9.33325 7.89163 9.33325 8.33366V21.667C9.33325 22.109 9.50885 22.5329 9.82141 22.8455C10.134 23.1581 10.5579 23.3337 10.9999 23.3337H20.9999C21.4419 23.3337 21.8659 23.1581 22.1784 22.8455C22.491 22.5329 22.6666 22.109 22.6666 21.667V11.667L17.6666 6.66699ZM12.6849 18.9203C12.6849 19.7212 12.3008 20.0003 11.6849 20.0003C11.5383 20.0003 11.3466 19.9762 11.2208 19.9337L11.2924 19.4212C11.3791 19.4503 11.4916 19.4712 11.6183 19.4712C11.8841 19.4712 12.0516 19.3503 12.0516 18.9128V17.1445H12.6858L12.6849 18.9203ZM13.9008 19.9962C13.5799 19.9962 13.2624 19.9128 13.1049 19.8253L13.2341 19.2995C13.4041 19.387 13.6683 19.4753 13.9391 19.4753C14.2308 19.4753 14.3841 19.3537 14.3841 19.1712C14.3841 18.9953 14.2516 18.8953 13.9141 18.7745C13.4458 18.612 13.1416 18.3528 13.1416 17.9445C13.1416 17.4645 13.5424 17.097 14.2058 17.097C14.5224 17.097 14.7549 17.1637 14.9233 17.2395L14.7799 17.752C14.6674 17.6978 14.4674 17.6187 14.1924 17.6187C13.9174 17.6187 13.7833 17.7437 13.7833 17.8895C13.7833 18.0687 13.9416 18.1487 14.3058 18.2862C14.8024 18.4695 15.0358 18.7278 15.0358 19.1245C15.0366 19.5962 14.6724 19.9962 13.9008 19.9962ZM16.6558 20.0003C15.8216 20.0003 15.3341 19.3712 15.3341 18.5703C15.3341 17.727 15.8724 17.097 16.7024 17.097C17.5649 17.097 18.0366 17.7437 18.0366 18.5195C18.0358 19.442 17.4774 20.0003 16.6558 20.0003ZM20.7783 19.9545H20.1099L19.5091 18.8695C19.3293 18.5477 19.1666 18.2167 19.0216 17.8778L19.0083 17.882C19.0258 18.2528 19.0341 18.6495 19.0341 19.1087V19.9553H18.4499V17.1445H19.1924L19.7766 18.1745C19.9433 18.4695 20.1099 18.8203 20.2366 19.137H20.2483C20.2066 18.7662 20.1941 18.387 20.1941 17.9653V17.1445H20.7791V19.9545H20.7783ZM17.6666 12.5003H16.8333V8.33366L20.9999 12.5003H17.6666Z" fill="white"/>
</g>
<defs>
<clipPath id="clip0_1147_535">
<rect width="139" height="30" fill="white"/>
</clipPath>
</defs>
</svg>
