<svg width="139" height="30" viewBox="0 0 139 30" fill="none" xmlns="http://www.w3.org/2000/svg">
<g clip-path="url(#clip0_1148_656)">
<rect width="139" height="30" rx="5" fill="#555555"/>
<path d="M103 0H134C136.761 0 139 2.23858 139 5V25C139 27.7614 136.761 30 134 30H103V0Z" fill="black"/>
<path d="M30.7891 11H32.5625L34.9375 16.7969H35.0313L37.4063 11H39.1797V19H37.7891V13.5039H37.7148L35.5039 18.9766H34.4648L32.2539 13.4922H32.1797V19H30.7891V11ZM41.7852 19H40.2383L43.0547 11H44.8438L47.6641 19H46.1172L43.9805 12.6406H43.918L41.7852 19ZM41.8359 15.8633H46.0547V17.0273H41.8359V15.8633ZM48.7178 19V11H51.7178C52.3324 11 52.848 11.1068 53.2646 11.3203C53.6839 11.5339 54.0003 11.8333 54.2139 12.2187C54.43 12.6016 54.5381 13.0482 54.5381 13.5586C54.5381 14.0716 54.4287 14.5169 54.21 14.8945C53.9938 15.2695 53.6748 15.5599 53.2529 15.7656C52.8311 15.9687 52.3128 16.0703 51.6982 16.0703H49.5615V14.8672H51.5029C51.8623 14.8672 52.1566 14.8177 52.3857 14.7187C52.6149 14.6172 52.7842 14.4701 52.8936 14.2773C53.0055 14.082 53.0615 13.8424 53.0615 13.5586C53.0615 13.2747 53.0055 13.0326 52.8936 12.832C52.7816 12.6289 52.611 12.4753 52.3818 12.3711C52.1527 12.2643 51.8571 12.2109 51.4951 12.2109H50.167V19H48.7178ZM52.8506 15.375L54.8311 19H53.2139L51.2686 15.375H52.8506ZM55.8721 19V11H57.3213V14.6758H57.4189L60.54 11H62.3096L59.2158 14.5898L62.3369 19H60.5947L58.208 15.5703L57.3213 16.6172V19H55.8721ZM66.0273 19H63.3164V11H66.082C66.8763 11 67.5586 11.1602 68.1289 11.4805C68.7018 11.7982 69.1419 12.2552 69.4492 12.8516C69.7565 13.4479 69.9102 14.1615 69.9102 14.9922C69.9102 15.8255 69.7552 16.5417 69.4453 17.1406C69.138 17.7396 68.694 18.1992 68.1133 18.5195C67.5352 18.8398 66.8398 19 66.0273 19ZM64.7656 17.7461H65.957C66.5143 17.7461 66.9792 17.6445 67.3516 17.4414C67.724 17.2357 68.0039 16.9297 68.1914 16.5234C68.3789 16.1146 68.4727 15.6042 68.4727 14.9922C68.4727 14.3802 68.3789 13.8724 68.1914 13.4687C68.0039 13.0625 67.7266 12.7591 67.3594 12.5586C66.9948 12.3555 66.5417 12.2539 66 12.2539H64.7656V17.7461ZM78.4355 15C78.4355 15.862 78.2741 16.6003 77.9512 17.2148C77.6309 17.8268 77.1934 18.2956 76.6387 18.6211C76.0866 18.9466 75.4603 19.1094 74.7598 19.1094C74.0592 19.1094 73.4316 18.9466 72.877 18.6211C72.3249 18.293 71.8874 17.8229 71.5645 17.2109C71.2441 16.5964 71.084 15.8594 71.084 15C71.084 14.138 71.2441 13.401 71.5645 12.7891C71.8874 12.1745 72.3249 11.7044 72.877 11.3789C73.4316 11.0534 74.0592 10.8906 74.7598 10.8906C75.4603 10.8906 76.0866 11.0534 76.6387 11.3789C77.1934 11.7044 77.6309 12.1745 77.9512 12.7891C78.2741 13.401 78.4355 14.138 78.4355 15ZM76.9785 15C76.9785 14.3932 76.8835 13.8815 76.6934 13.4648C76.5059 13.0456 76.2454 12.7292 75.9121 12.5156C75.5788 12.2995 75.1947 12.1914 74.7598 12.1914C74.3249 12.1914 73.9408 12.2995 73.6074 12.5156C73.2741 12.7292 73.0124 13.0456 72.8223 13.4648C72.6348 13.8815 72.541 14.3932 72.541 15C72.541 15.6068 72.6348 16.1198 72.8223 16.5391C73.0124 16.9557 73.2741 17.2721 73.6074 17.4883C73.9408 17.7018 74.3249 17.8086 74.7598 17.8086C75.1947 17.8086 75.5788 17.7018 75.9121 17.4883C76.2454 17.2721 76.5059 16.9557 76.6934 16.5391C76.8835 16.1198 76.9785 15.6068 76.9785 15ZM81.2852 19L79.0273 11H80.5859L82.0273 16.8789H82.1016L83.6406 11H85.0586L86.6016 16.8828H86.6719L88.1133 11H89.6719L87.4141 19H85.9844L84.3828 13.3867H84.3203L82.7148 19H81.2852ZM97.251 11V19H95.9619L92.1924 13.5508H92.126V19H90.6768V11H91.9736L95.7393 16.4531H95.8096V11H97.251Z" fill="white"/>
<g clip-path="url(#clip1_1148_656)">
<path fill-rule="evenodd" clip-rule="evenodd" d="M6 9.66699C6 9.13656 6.21071 8.62785 6.58579 8.25278C6.96086 7.87771 7.46957 7.66699 8 7.66699H24C24.5304 7.66699 25.0391 7.87771 25.4142 8.25278C25.7893 8.62785 26 9.13656 26 9.66699V20.3337C26 20.8641 25.7893 21.3728 25.4142 21.7479C25.0391 22.1229 24.5304 22.3337 24 22.3337H8C7.46957 22.3337 6.96086 22.1229 6.58579 21.7479C6.21071 21.3728 6 20.8641 6 20.3337V9.66699ZM19.3333 11.667V16.0577L17.8053 14.5283L16.8613 15.4723L19.528 18.139C19.5899 18.2011 19.6635 18.2503 19.7445 18.2839C19.8255 18.3176 19.9123 18.3349 20 18.3349C20.0877 18.3349 20.1745 18.3176 20.2555 18.2839C20.3365 18.2503 20.4101 18.2011 20.472 18.139L23.1387 15.4723L22.196 14.5283L20.6667 16.0577V11.667H19.3333ZM9.80533 11.8617C9.71209 11.7682 9.5932 11.7045 9.46372 11.6787C9.33424 11.6529 9.20001 11.6661 9.07805 11.7166C8.95608 11.7672 8.85188 11.8528 8.77864 11.9627C8.7054 12.0725 8.66643 12.2016 8.66667 12.3337V18.3337H10V13.943L12 15.943L14 13.943V18.3337H15.3333V12.3337C15.3336 12.2016 15.2946 12.0725 15.2214 11.9627C15.1481 11.8528 15.0439 11.7672 14.922 11.7166C14.8 11.6661 14.6658 11.6529 14.5363 11.6787C14.4068 11.7045 14.2879 11.7682 14.1947 11.8617L12 14.0577L9.80533 11.8617Z" fill="white"/>
</g>
</g>
<defs>
<clipPath id="clip0_1148_656">
<rect width="139" height="30" fill="white"/>
</clipPath>
<clipPath id="clip1_1148_656">
<rect width="20" height="20" fill="white" transform="translate(6 5)"/>
</clipPath>
</defs>
</svg>
