<svg width="139" height="30" viewBox="0 0 139 30" fill="none" xmlns="http://www.w3.org/2000/svg">
<g clip-path="url(#clip0_1148_642)">
<rect width="139" height="30" rx="5" fill="#555555"/>
<path d="M32.0284 10.2727L34.2997 17.142H34.3892L36.6562 10.2727H38.3949L35.3182 19H33.3665L30.294 10.2727H32.0284ZM39.4762 19V12.4545H41.0188V19H39.4762ZM40.2518 11.5256C40.0075 11.5256 39.7972 11.4446 39.6211 11.2827C39.445 11.1179 39.3569 10.9205 39.3569 10.6903C39.3569 10.4574 39.445 10.2599 39.6211 10.098C39.7972 9.93324 40.0075 9.85085 40.2518 9.85085C40.4989 9.85085 40.7092 9.93324 40.8825 10.098C41.0586 10.2599 41.1467 10.4574 41.1467 10.6903C41.1467 10.9205 41.0586 11.1179 40.8825 11.2827C40.7092 11.4446 40.4989 11.5256 40.2518 11.5256ZM45.5028 19.1278C44.8466 19.1278 44.2798 18.9915 43.8026 18.7188C43.3281 18.4432 42.9631 18.054 42.7074 17.5511C42.4517 17.0455 42.3239 16.4503 42.3239 15.7656C42.3239 15.0923 42.4517 14.5014 42.7074 13.9929C42.9659 13.4815 43.3267 13.0838 43.7898 12.7997C44.2528 12.5128 44.7969 12.3693 45.4219 12.3693C45.8253 12.3693 46.206 12.4347 46.5639 12.5653C46.9247 12.6932 47.2429 12.892 47.5185 13.1619C47.7969 13.4318 48.0156 13.7756 48.1747 14.1932C48.3338 14.608 48.4134 15.1023 48.4134 15.6761V16.1491H43.0483V15.1094H46.9347C46.9318 14.8139 46.8679 14.5511 46.7429 14.321C46.6179 14.0881 46.4432 13.9048 46.2188 13.7713C45.9972 13.6378 45.7386 13.571 45.4432 13.571C45.1278 13.571 44.8509 13.6477 44.6122 13.8011C44.3736 13.9517 44.1875 14.1506 44.054 14.3977C43.9233 14.642 43.8565 14.9105 43.8537 15.2031V16.1108C43.8537 16.4915 43.9233 16.8182 44.0625 17.0909C44.2017 17.3608 44.3963 17.5682 44.6463 17.7131C44.8963 17.8551 45.1889 17.9261 45.5241 17.9261C45.7486 17.9261 45.9517 17.8949 46.1335 17.8324C46.3153 17.767 46.473 17.6719 46.6065 17.5469C46.7401 17.4219 46.8409 17.267 46.9091 17.0824L48.3494 17.2443C48.2585 17.625 48.0852 17.9574 47.8295 18.2415C47.5767 18.5227 47.2528 18.7415 46.858 18.8977C46.4631 19.0511 46.0114 19.1278 45.5028 19.1278ZM51.0341 19L49.1847 12.4545H50.7571L51.9077 17.0568H51.9673L53.1435 12.4545H54.6989L55.875 17.0312H55.9389L57.0724 12.4545H58.6491L56.7955 19H55.1889L53.9616 14.5767H53.8722L52.6449 19H51.0341ZM62.7028 19V12.4545H64.1772V13.5668H64.2539C64.3903 13.1918 64.6161 12.8991 64.9315 12.6889C65.2468 12.4759 65.6232 12.3693 66.0607 12.3693C66.5039 12.3693 66.8775 12.4773 67.1815 12.6932C67.4883 12.9062 67.7042 13.1974 67.8292 13.5668H67.8974C68.0423 13.2031 68.2866 12.9134 68.6303 12.6974C68.9769 12.4787 69.3874 12.3693 69.8619 12.3693C70.4641 12.3693 70.9556 12.5597 71.3363 12.9403C71.717 13.321 71.9073 13.8764 71.9073 14.6065V19H70.3604V14.8452C70.3604 14.4389 70.2525 14.142 70.0366 13.9545C69.8207 13.7642 69.5565 13.669 69.244 13.669C68.8718 13.669 68.5806 13.7855 68.3704 14.0185C68.163 14.2486 68.0593 14.5483 68.0593 14.9176V19H66.5465V14.7812C66.5465 14.4432 66.4442 14.1733 66.2397 13.9716C66.038 13.7699 65.7738 13.669 65.4471 13.669C65.2255 13.669 65.0238 13.7259 64.842 13.8395C64.6602 13.9503 64.5153 14.108 64.4073 14.3125C64.2994 14.5142 64.2454 14.75 64.2454 15.0199V19H62.7028ZM76.3274 19.1278C75.6882 19.1278 75.1342 18.9872 74.6655 18.706C74.1967 18.4247 73.8331 18.0312 73.5746 17.5256C73.3189 17.0199 73.1911 16.429 73.1911 15.7528C73.1911 15.0767 73.3189 14.4844 73.5746 13.9759C73.8331 13.4673 74.1967 13.0724 74.6655 12.7912C75.1342 12.5099 75.6882 12.3693 76.3274 12.3693C76.9666 12.3693 77.5206 12.5099 77.9893 12.7912C78.4581 13.0724 78.8203 13.4673 79.076 13.9759C79.3345 14.4844 79.4638 15.0767 79.4638 15.7528C79.4638 16.429 79.3345 17.0199 79.076 17.5256C78.8203 18.0312 78.4581 18.4247 77.9893 18.706C77.5206 18.9872 76.9666 19.1278 76.3274 19.1278ZM76.3359 17.892C76.6825 17.892 76.9723 17.7969 77.2053 17.6065C77.4382 17.4134 77.6115 17.1548 77.7251 16.831C77.8416 16.5071 77.8999 16.1463 77.8999 15.7486C77.8999 15.348 77.8416 14.9858 77.7251 14.6619C77.6115 14.3352 77.4382 14.0753 77.2053 13.8821C76.9723 13.6889 76.6825 13.5923 76.3359 13.5923C75.9808 13.5923 75.6854 13.6889 75.4496 13.8821C75.2166 14.0753 75.0419 14.3352 74.9254 14.6619C74.8118 14.9858 74.755 15.348 74.755 15.7486C74.755 16.1463 74.8118 16.5071 74.9254 16.831C75.0419 17.1548 75.2166 17.4134 75.4496 17.6065C75.6854 17.7969 75.9808 17.892 76.3359 17.892ZM80.7731 19V12.4545H82.2688V13.5455H82.337C82.4563 13.1676 82.6609 12.8764 82.9506 12.6719C83.2433 12.4645 83.5771 12.3608 83.9521 12.3608C84.0373 12.3608 84.1325 12.3651 84.2376 12.3736C84.3455 12.3793 84.435 12.3892 84.506 12.4034V13.8224C84.4407 13.7997 84.337 13.7798 84.195 13.7628C84.0558 13.7429 83.9208 13.733 83.7901 13.733C83.5089 13.733 83.256 13.794 83.0316 13.9162C82.81 14.0355 82.6353 14.2017 82.5075 14.4148C82.3796 14.6278 82.3157 14.8736 82.3157 15.152V19H80.7731ZM88.1591 19.1278C87.5028 19.1278 86.9361 18.9915 86.4588 18.7188C85.9844 18.4432 85.6193 18.054 85.3636 17.5511C85.108 17.0455 84.9801 16.4503 84.9801 15.7656C84.9801 15.0923 85.108 14.5014 85.3636 13.9929C85.6222 13.4815 85.983 13.0838 86.446 12.7997C86.9091 12.5128 87.4531 12.3693 88.0781 12.3693C88.4815 12.3693 88.8622 12.4347 89.2202 12.5653C89.581 12.6932 89.8991 12.892 90.1747 13.1619C90.4531 13.4318 90.6719 13.7756 90.831 14.1932C90.9901 14.608 91.0696 15.1023 91.0696 15.6761V16.1491H85.7045V15.1094H89.5909C89.5881 14.8139 89.5241 14.5511 89.3991 14.321C89.2741 14.0881 89.0994 13.9048 88.875 13.7713C88.6534 13.6378 88.3949 13.571 88.0994 13.571C87.7841 13.571 87.5071 13.6477 87.2685 13.8011C87.0298 13.9517 86.8438 14.1506 86.7102 14.3977C86.5795 14.642 86.5128 14.9105 86.5099 15.2031V16.1108C86.5099 16.4915 86.5795 16.8182 86.7188 17.0909C86.858 17.3608 87.0526 17.5682 87.3026 17.7131C87.5526 17.8551 87.8452 17.9261 88.1804 17.9261C88.4048 17.9261 88.608 17.8949 88.7898 17.8324C88.9716 17.767 89.1293 17.6719 89.2628 17.5469C89.3963 17.4219 89.4972 17.267 89.5653 17.0824L91.0057 17.2443C90.9148 17.625 90.7415 17.9574 90.4858 18.2415C90.233 18.5227 89.9091 18.7415 89.5142 18.8977C89.1193 19.0511 88.6676 19.1278 88.1591 19.1278ZM93.3249 19.0938C93.0664 19.0938 92.8448 19.0028 92.6602 18.821C92.4755 18.6392 92.3846 18.4176 92.3874 18.1562C92.3846 17.9006 92.4755 17.6818 92.6602 17.5C92.8448 17.3182 93.0664 17.2273 93.3249 17.2273C93.5749 17.2273 93.7923 17.3182 93.9769 17.5C94.1644 17.6818 94.2596 17.9006 94.2624 18.1562C94.2596 18.3295 94.2141 18.4872 94.1261 18.6293C94.0408 18.7713 93.9272 18.8849 93.7852 18.9702C93.646 19.0526 93.4925 19.0938 93.3249 19.0938ZM96.8054 19.0938C96.5469 19.0938 96.3253 19.0028 96.1406 18.821C95.956 18.6392 95.8651 18.4176 95.8679 18.1562C95.8651 17.9006 95.956 17.6818 96.1406 17.5C96.3253 17.3182 96.5469 17.2273 96.8054 17.2273C97.0554 17.2273 97.2727 17.3182 97.4574 17.5C97.6449 17.6818 97.7401 17.9006 97.7429 18.1562C97.7401 18.3295 97.6946 18.4872 97.6065 18.6293C97.5213 18.7713 97.4077 18.8849 97.2656 18.9702C97.1264 19.0526 96.973 19.0938 96.8054 19.0938ZM100.286 19.0938C100.027 19.0938 99.8058 19.0028 99.6211 18.821C99.4364 18.6392 99.3455 18.4176 99.3484 18.1562C99.3455 17.9006 99.4364 17.6818 99.6211 17.5C99.8058 17.3182 100.027 17.2273 100.286 17.2273C100.536 17.2273 100.753 17.3182 100.938 17.5C101.125 17.6818 101.221 17.9006 101.223 18.1562C101.221 18.3295 101.175 18.4872 101.087 18.6293C101.002 18.7713 100.888 18.8849 100.746 18.9702C100.607 19.0526 100.453 19.0938 100.286 19.0938Z" fill="white"/>
<path d="M15.9999 11.6663C16.9166 11.6663 17.6666 10.9163 17.6666 9.99967C17.6666 9.08301 16.9166 8.33301 15.9999 8.33301C15.0833 8.33301 14.3333 9.08301 14.3333 9.99967C14.3333 10.9163 15.0833 11.6663 15.9999 11.6663ZM15.9999 13.333C15.0833 13.333 14.3333 14.083 14.3333 14.9997C14.3333 15.9163 15.0833 16.6663 15.9999 16.6663C16.9166 16.6663 17.6666 15.9163 17.6666 14.9997C17.6666 14.083 16.9166 13.333 15.9999 13.333ZM15.9999 18.333C15.0833 18.333 14.3333 19.083 14.3333 19.9997C14.3333 20.9163 15.0833 21.6663 15.9999 21.6663C16.9166 21.6663 17.6666 20.9163 17.6666 19.9997C17.6666 19.083 16.9166 18.333 15.9999 18.333Z" fill="white"/>
</g>
<defs>
<clipPath id="clip0_1148_642">
<rect width="139" height="30" fill="white"/>
</clipPath>
</defs>
</svg>
