<svg width="139" height="30" viewBox="0 0 139 30" fill="none" xmlns="http://www.w3.org/2000/svg">
<g clip-path="url(#clip0_1147_569)">
<rect width="139" height="30" rx="5" fill="#555555"/>
<path d="M103 0H134C136.761 0 139 2.23858 139 5V25C139 27.7614 136.761 30 134 30H103V0Z" fill="#00618A"/>
<path d="M31.2784 9.36364H33.4091L37.1136 18.4091H37.25L40.9545 9.36364H43.0852V21H41.4148V12.5795H41.3068L37.875 20.983H36.4886L33.0568 12.5739H32.9489V21H31.2784V9.36364ZM44.7401 9.36364H46.7344L49.7741 14.6534H49.8991L52.9389 9.36364H54.9332L50.7116 16.4318V21H48.9616V16.4318L44.7401 9.36364ZM62.9375 12.4205C62.8769 11.8826 62.6269 11.4659 62.1875 11.1705C61.7481 10.8712 61.1951 10.7216 60.5284 10.7216C60.0511 10.7216 59.6383 10.7973 59.2898 10.9489C58.9413 11.0966 58.6705 11.3011 58.4773 11.5625C58.2879 11.8201 58.1932 12.1136 58.1932 12.4432C58.1932 12.7197 58.2576 12.9583 58.3864 13.1591C58.5189 13.3598 58.6913 13.5284 58.9034 13.6648C59.1193 13.7973 59.3504 13.9091 59.5966 14C59.8428 14.0871 60.0795 14.1591 60.3068 14.2159L61.4432 14.5114C61.8144 14.6023 62.1951 14.7254 62.5852 14.8807C62.9754 15.036 63.3371 15.2405 63.6705 15.4943C64.0038 15.7481 64.2727 16.0625 64.4773 16.4375C64.6856 16.8125 64.7898 17.2614 64.7898 17.7841C64.7898 18.4432 64.6193 19.0284 64.2784 19.5398C63.9413 20.0511 63.4508 20.4545 62.8068 20.75C62.1667 21.0455 61.392 21.1932 60.483 21.1932C59.6117 21.1932 58.858 21.0549 58.2216 20.7784C57.5852 20.5019 57.0871 20.1098 56.7273 19.6023C56.3674 19.0909 56.1686 18.4848 56.1307 17.7841H57.892C57.9261 18.2045 58.0625 18.5549 58.3011 18.8352C58.5436 19.1117 58.8523 19.3182 59.2273 19.4545C59.6061 19.5871 60.0208 19.6534 60.4716 19.6534C60.9678 19.6534 61.4091 19.5758 61.7955 19.4205C62.1856 19.2614 62.4924 19.0417 62.7159 18.7614C62.9394 18.4773 63.0511 18.1458 63.0511 17.767C63.0511 17.4223 62.9527 17.1402 62.7557 16.9205C62.5625 16.7008 62.2992 16.5189 61.9659 16.375C61.6364 16.2311 61.2633 16.1042 60.8466 15.9943L59.4716 15.6193C58.5398 15.3655 57.8011 14.9924 57.2557 14.5C56.714 14.0076 56.4432 13.3561 56.4432 12.5455C56.4432 11.875 56.625 11.2898 56.9886 10.7898C57.3523 10.2898 57.8447 9.90151 58.4659 9.625C59.0871 9.3447 59.7879 9.20455 60.5682 9.20455C61.3561 9.20455 62.0511 9.3428 62.6534 9.61932C63.2595 9.89583 63.7367 10.2765 64.0852 10.7614C64.4337 11.2424 64.6155 11.7955 64.6307 12.4205H62.9375ZM71.1662 17.2273H72.8935L74.1094 18.8125L74.6832 19.517L76.6207 22.0455H74.8253L73.5298 20.358L73.0866 19.7443L71.1662 17.2273ZM76.9957 15.1818C76.9957 16.4242 76.7685 17.4924 76.3139 18.3864C75.8594 19.2765 75.2363 19.9621 74.4446 20.4432C73.6567 20.9205 72.7609 21.1591 71.7571 21.1591C70.7495 21.1591 69.8499 20.9205 69.0582 20.4432C68.2704 19.9621 67.6491 19.2746 67.1946 18.3807C66.7401 17.4867 66.5128 16.4205 66.5128 15.1818C66.5128 13.9394 66.7401 12.8731 67.1946 11.983C67.6491 11.089 68.2704 10.4034 69.0582 9.92614C69.8499 9.44508 70.7495 9.20455 71.7571 9.20455C72.7609 9.20455 73.6567 9.44508 74.4446 9.92614C75.2363 10.4034 75.8594 11.089 76.3139 11.983C76.7685 12.8731 76.9957 13.9394 76.9957 15.1818ZM75.2571 15.1818C75.2571 14.2348 75.1037 13.4375 74.7969 12.7898C74.4938 12.1383 74.0772 11.6458 73.5469 11.3125C73.0204 10.9754 72.4238 10.8068 71.7571 10.8068C71.0866 10.8068 70.4882 10.9754 69.9616 11.3125C69.4351 11.6458 69.0185 12.1383 68.7116 12.7898C68.4086 13.4375 68.2571 14.2348 68.2571 15.1818C68.2571 16.1288 68.4086 16.928 68.7116 17.5795C69.0185 18.2273 69.4351 18.7197 69.9616 19.0568C70.4882 19.3902 71.0866 19.5568 71.7571 19.5568C72.4238 19.5568 73.0204 19.3902 73.5469 19.0568C74.0772 18.7197 74.4938 18.2273 74.7969 17.5795C75.1037 16.928 75.2571 16.1288 75.2571 15.1818ZM79.1847 21V9.36364H80.9403V19.4886H86.2131V21H79.1847Z" fill="white"/>
<g clip-path="url(#clip1_1147_569)">
<path fill-rule="evenodd" clip-rule="evenodd" d="M10.5514 8.36698C10.3634 8.36368 10.1758 8.38441 9.99308 8.42864V8.46031H10.0239C10.1322 8.68281 10.3239 8.82698 10.4581 9.01864L10.7681 9.66948L10.7997 9.63864C10.9914 9.50364 11.0797 9.28698 11.0789 8.95614C11.0014 8.87531 10.9897 8.77364 10.9231 8.67698C10.8347 8.54864 10.6631 8.47531 10.5514 8.36698ZM25.5656 24.2811C25.7114 24.3886 25.8097 24.5553 25.9997 24.6228V24.5911C25.8997 24.4645 25.8747 24.2895 25.7831 24.157C25.648 24.0232 25.5136 23.8887 25.3797 23.7536C24.9748 23.2299 24.4936 22.7697 23.9522 22.3886C23.5289 22.0845 22.5781 21.6728 22.4014 21.1795L22.3697 21.1478C22.6706 21.1145 23.0231 21.0053 23.3006 20.9311C23.7672 20.8061 24.1839 20.8378 24.6656 20.7145C24.8831 20.6511 25.0997 20.5895 25.3172 20.5278V20.4028C25.0739 20.1528 24.9006 19.8228 24.6347 19.597C23.9397 19.0053 23.1822 18.4136 22.4014 17.922C21.9681 17.6478 21.4331 17.4711 20.9739 17.2386C20.8197 17.1611 20.5489 17.1203 20.4472 16.9911C20.2056 16.6828 20.0747 16.2936 19.8889 15.9361C19.4997 15.1861 19.1164 14.367 18.7722 13.5778C18.5364 13.0403 18.3831 12.5103 18.0889 12.0278C16.6806 9.71114 15.1639 8.31364 12.8156 6.93948C12.3156 6.64781 11.7139 6.53198 11.0789 6.38114L10.0547 6.31948C9.84641 6.23198 9.62975 5.97781 9.43475 5.85364C8.65641 5.36198 6.65975 4.29281 6.08475 5.69864C5.72058 6.58614 6.62808 7.45198 6.95308 7.90114C7.18058 8.21698 7.47225 8.57031 7.63558 8.92531C7.74225 9.15864 7.76058 9.39198 7.85225 9.63864C8.07808 10.247 8.27391 10.907 8.56558 11.4686C8.71391 11.7528 8.87641 12.052 9.06225 12.3061C9.17725 12.462 9.37225 12.5311 9.40308 12.772C9.21141 13.0395 9.20141 13.4553 9.09391 13.7953C8.60891 15.3245 8.79141 17.2245 9.49725 18.3561C9.71308 18.7028 10.2222 19.4478 10.9231 19.162C11.5364 18.912 11.3997 18.1386 11.5747 17.4561C11.6139 17.3011 11.5906 17.187 11.6681 17.0836V17.1145L12.2264 18.2311C12.6397 18.897 13.3731 19.5928 13.9947 20.062C14.3164 20.3053 14.5697 20.7261 14.9872 20.8686V20.837H14.9564C14.8747 20.712 14.7481 20.6595 14.6464 20.5578C14.3884 20.3073 14.1496 20.0377 13.9322 19.7511C13.3672 18.9845 12.8681 18.1445 12.4131 17.2703C12.1956 16.852 12.0064 16.392 11.8231 15.967C11.7522 15.8028 11.7531 15.5553 11.6064 15.4703C11.4056 15.782 11.1097 16.0336 10.9547 16.4011C10.7064 16.9886 10.6739 17.7053 10.5822 18.4486C10.5281 18.4678 10.5522 18.4545 10.5197 18.4795C10.0881 18.3753 9.93641 17.9303 9.77558 17.5486C9.36975 16.5845 9.29391 15.0303 9.65141 13.9195C9.74391 13.632 10.1622 12.727 9.99308 12.4611C9.91141 12.1961 9.64558 12.0436 9.49641 11.8411C9.30137 11.5693 9.13493 11.278 8.99975 10.972C8.66808 10.2203 8.51225 9.37531 8.16225 8.61448C7.99558 8.25114 7.71225 7.88364 7.47975 7.56031C7.22308 7.20198 6.93475 6.93864 6.73558 6.50531C6.66475 6.35114 6.56808 6.10531 6.67308 5.94698C6.70641 5.84031 6.75391 5.79531 6.85975 5.76114C7.03975 5.62198 7.54058 5.80698 7.72808 5.88448C8.22558 6.09114 8.64058 6.28781 9.06141 6.56781C9.26391 6.70114 9.46891 6.96114 9.71308 7.03281H9.99225C10.4297 7.13281 10.9189 7.06364 11.3264 7.18781C12.0472 7.40698 12.6931 7.74781 13.2806 8.11864C15.0689 9.24781 16.5306 10.8545 17.5306 12.772C17.6914 13.0803 17.7614 13.3753 17.9031 13.7028C18.1889 14.3628 18.5489 15.042 18.8331 15.6878C19.1164 16.332 19.3939 16.982 19.7947 17.5178C20.0056 17.7995 20.8206 17.9511 21.1914 18.1078C21.4506 18.217 21.8756 18.332 22.1214 18.4795C22.5914 18.7628 23.0464 19.1003 23.4864 19.4103C23.7064 19.5661 24.3839 19.9061 24.4172 20.1853C23.3256 20.157 22.4922 20.2578 21.7806 20.5586C21.5781 20.6436 21.2556 20.6461 21.2222 20.8995C21.3331 21.0161 21.3506 21.1911 21.4389 21.3336C21.6089 21.6086 21.8964 21.9778 22.1522 22.1711C22.4331 22.3828 22.7214 22.6086 23.0214 22.792C23.5547 23.117 24.1514 23.3036 24.6647 23.6295C24.9689 23.822 25.2706 24.0636 25.5656 24.2811Z" fill="white"/>
</g>
</g>
<defs>
<clipPath id="clip0_1147_569">
<rect width="139" height="30" fill="white"/>
</clipPath>
<clipPath id="clip1_1147_569">
<rect width="20" height="20" fill="white" transform="translate(6 5)"/>
</clipPath>
</defs>
</svg>
