<svg width="139" height="30" viewBox="0 0 139 30" fill="none" xmlns="http://www.w3.org/2000/svg">
<g clip-path="url(#clip0_1147_646)">
<rect width="139" height="30" rx="5" fill="#555555"/>
<path d="M103 0H134C136.761 0 139 2.23858 139 5V25C139 27.7614 136.761 30 134 30H103V0Z" fill="black"/>
<path d="M40.6705 9.36364V21H39.0568L33.142 12.4659H33.0341V21H31.2784V9.36364H32.9034L38.8239 17.9091H38.9318V9.36364H40.6705ZM53.3395 15.1818C53.3395 16.4242 53.1122 17.4924 52.6577 18.3864C52.2031 19.2765 51.58 19.9621 50.7884 20.4432C50.0005 20.9205 49.1046 21.1591 48.1009 21.1591C47.0933 21.1591 46.1937 20.9205 45.402 20.4432C44.6141 19.9621 43.9929 19.2746 43.5384 18.3807C43.0838 17.4867 42.8565 16.4205 42.8565 15.1818C42.8565 13.9394 43.0838 12.8731 43.5384 11.983C43.9929 11.089 44.6141 10.4034 45.402 9.92614C46.1937 9.44508 47.0933 9.20455 48.1009 9.20455C49.1046 9.20455 50.0005 9.44508 50.7884 9.92614C51.58 10.4034 52.2031 11.089 52.6577 11.983C53.1122 12.8731 53.3395 13.9394 53.3395 15.1818ZM51.6009 15.1818C51.6009 14.2348 51.4474 13.4375 51.1406 12.7898C50.8376 12.1383 50.4209 11.6458 49.8906 11.3125C49.3641 10.9754 48.7675 10.8068 48.1009 10.8068C47.4304 10.8068 46.8319 10.9754 46.3054 11.3125C45.7789 11.6458 45.3622 12.1383 45.0554 12.7898C44.7524 13.4375 44.6009 14.2348 44.6009 15.1818C44.6009 16.1288 44.7524 16.928 45.0554 17.5795C45.3622 18.2273 45.7789 18.7197 46.3054 19.0568C46.8319 19.3902 47.4304 19.5568 48.1009 19.5568C48.7675 19.5568 49.3641 19.3902 49.8906 19.0568C50.4209 18.7197 50.8376 18.2273 51.1406 17.5795C51.4474 16.928 51.6009 16.1288 51.6009 15.1818ZM54.4545 10.875V9.36364H63.4602V10.875H59.8295V21H58.0795V10.875H54.4545ZM67.206 9.36364V21H65.4503V9.36364H67.206ZM79.8707 15.1818C79.8707 16.4242 79.6435 17.4924 79.1889 18.3864C78.7344 19.2765 78.1113 19.9621 77.3196 20.4432C76.5317 20.9205 75.6359 21.1591 74.6321 21.1591C73.6245 21.1591 72.7249 20.9205 71.9332 20.4432C71.1454 19.9621 70.5241 19.2746 70.0696 18.3807C69.6151 17.4867 69.3878 16.4205 69.3878 15.1818C69.3878 13.9394 69.6151 12.8731 70.0696 11.983C70.5241 11.089 71.1454 10.4034 71.9332 9.92614C72.7249 9.44508 73.6245 9.20455 74.6321 9.20455C75.6359 9.20455 76.5317 9.44508 77.3196 9.92614C78.1113 10.4034 78.7344 11.089 79.1889 11.983C79.6435 12.8731 79.8707 13.9394 79.8707 15.1818ZM78.1321 15.1818C78.1321 14.2348 77.9787 13.4375 77.6719 12.7898C77.3688 12.1383 76.9522 11.6458 76.4219 11.3125C75.8954 10.9754 75.2988 10.8068 74.6321 10.8068C73.9616 10.8068 73.3632 10.9754 72.8366 11.3125C72.3101 11.6458 71.8935 12.1383 71.5866 12.7898C71.2836 13.4375 71.1321 14.2348 71.1321 15.1818C71.1321 16.1288 71.2836 16.928 71.5866 17.5795C71.8935 18.2273 72.3101 18.7197 72.8366 19.0568C73.3632 19.3902 73.9616 19.5568 74.6321 19.5568C75.2988 19.5568 75.8954 19.3902 76.4219 19.0568C76.9522 18.7197 77.3688 18.2273 77.6719 17.5795C77.9787 16.928 78.1321 16.1288 78.1321 15.1818ZM91.4517 9.36364V21H89.8381L83.9233 12.4659H83.8153V21H82.0597V9.36364H83.6847L89.6051 17.9091H89.7131V9.36364H91.4517Z" fill="white"/>
<g clip-path="url(#clip1_1147_646)">
<path d="M9.7175 8.50602C10.3362 9.01039 10.5706 8.97477 11.7388 8.89664L22.7513 8.23602C22.9856 8.23602 22.7906 8.00164 22.7119 7.96227L20.8825 6.64039C20.5344 6.36664 20.0656 6.05789 19.17 6.13227L8.50937 6.91352C8.11875 6.94914 8.04063 7.14477 8.19688 7.30102L9.7175 8.50602ZM10.3781 11.0748V22.6598C10.3781 23.2816 10.6875 23.516 11.3875 23.4766L23.4906 22.7766C24.1906 22.7373 24.2719 22.311 24.2719 21.8035V10.2966C24.2719 9.78852 24.0763 9.51852 23.6469 9.55789L11.0006 10.2966C10.5319 10.336 10.3787 10.5666 10.3787 11.0716L10.3781 11.0748ZM22.325 11.6929C22.4031 12.0448 22.325 12.3929 21.9731 12.4354L21.3906 12.5529V21.1041C20.8825 21.3779 20.4175 21.5341 20.03 21.5341C19.405 21.5341 19.2487 21.3385 18.7831 20.756L14.9681 14.7666V20.561L16.1756 20.8348C16.1756 20.8348 16.1756 21.5348 15.2025 21.5348L12.5169 21.691C12.4388 21.5348 12.5169 21.1441 12.7906 21.0691L13.4906 20.8735V13.2141L12.5175 13.136C12.4394 12.7841 12.635 12.2798 13.1781 12.241L16.0588 12.0454L20.03 18.1129V12.7448L19.0175 12.6273C18.9394 12.201 19.2488 11.8885 19.6394 11.8523L22.325 11.6929ZM7.61437 5.86289L18.705 5.04602C20.0656 4.92852 20.4175 5.00664 21.2731 5.62852L24.815 8.11852C25.3975 8.54477 25.5931 8.66227 25.5931 9.12789V22.7773C25.5931 23.6335 25.2806 24.1379 24.1931 24.216L11.3088 24.9941C10.495 25.0335 10.1044 24.916 9.67438 24.3723L7.06688 20.9866C6.60125 20.3648 6.40625 19.8991 6.40625 19.356V7.22414C6.40625 6.52414 6.71875 5.94164 7.61375 5.86352L7.61437 5.86289Z" fill="white"/>
</g>
</g>
<defs>
<clipPath id="clip0_1147_646">
<rect width="139" height="30" fill="white"/>
</clipPath>
<clipPath id="clip1_1147_646">
<rect width="20" height="20" fill="white" transform="translate(6 5)"/>
</clipPath>
</defs>
</svg>
