<svg width="139" height="30" viewBox="0 0 139 30" fill="none" xmlns="http://www.w3.org/2000/svg">
<g clip-path="url(#clip0_1147_661)">
<rect width="139" height="30" rx="5" fill="#555555"/>
<path d="M103 0H134C136.761 0 139 2.23858 139 5V25C139 27.7614 136.761 30 134 30H103V0Z" fill="#8673DE"/>
<path d="M40.1023 14.9091C40.1023 16.0062 39.8968 16.9458 39.4858 17.728C39.0781 18.5069 38.5213 19.1035 37.8153 19.5178C37.1127 19.9321 36.3156 20.1392 35.424 20.1392C34.5324 20.1392 33.7337 19.9321 33.0277 19.5178C32.325 19.1001 31.7682 18.5019 31.3572 17.723C30.9496 16.9408 30.7457 16.0028 30.7457 14.9091C30.7457 13.812 30.9496 12.8741 31.3572 12.0952C31.7682 11.313 32.325 10.7147 33.0277 10.3004C33.7337 9.88613 34.5324 9.67898 35.424 9.67898C36.3156 9.67898 37.1127 9.88613 37.8153 10.3004C38.5213 10.7147 39.0781 11.313 39.4858 12.0952C39.8968 12.8741 40.1023 13.812 40.1023 14.9091ZM38.2479 14.9091C38.2479 14.1368 38.1269 13.4856 37.8849 12.9553C37.6463 12.4216 37.3149 12.0189 36.8906 11.7472C36.4664 11.4721 35.9775 11.3345 35.424 11.3345C34.8705 11.3345 34.3816 11.4721 33.9574 11.7472C33.5331 12.0189 33.2 12.4216 32.9581 12.9553C32.7195 13.4856 32.6001 14.1368 32.6001 14.9091C32.6001 15.6813 32.7195 16.3343 32.9581 16.8679C33.2 17.3982 33.5331 17.8009 33.9574 18.076C34.3816 18.3478 34.8705 18.4837 35.424 18.4837C35.9775 18.4837 36.4664 18.3478 36.8906 18.076C37.3149 17.8009 37.6463 17.3982 37.8849 16.8679C38.1269 16.3343 38.2479 15.6813 38.2479 14.9091ZM41.8461 20V9.81818H45.7438C46.4796 9.81818 47.0911 9.93419 47.5783 10.1662C48.0688 10.3949 48.4351 10.7081 48.677 11.1058C48.9223 11.5036 49.0449 11.9543 49.0449 12.4581C49.0449 12.8724 48.9654 13.227 48.8063 13.522C48.6472 13.8137 48.4334 14.0507 48.165 14.233C47.8965 14.4152 47.5965 14.5462 47.2651 14.6257V14.7251C47.6264 14.745 47.9727 14.8561 48.3042 15.0582C48.6389 15.2571 48.9123 15.5388 49.1245 15.9034C49.3366 16.268 49.4426 16.7088 49.4426 17.2259C49.4426 17.7528 49.315 18.2268 49.0598 18.6477C48.8046 19.0653 48.4202 19.3951 47.9064 19.6371C47.3927 19.879 46.7464 20 45.9675 20H41.8461ZM43.6905 18.4588H45.6742C46.3437 18.4588 46.8259 18.3312 47.1209 18.076C47.4192 17.8175 47.5684 17.486 47.5684 17.0817C47.5684 16.7801 47.4938 16.5083 47.3446 16.2663C47.1955 16.0211 46.9834 15.8288 46.7083 15.6896C46.4332 15.5471 46.1051 15.4759 45.7239 15.4759H43.6905V18.4588ZM43.6905 14.1484H45.5151C45.8333 14.1484 46.12 14.0904 46.3752 13.9744C46.6304 13.8551 46.8309 13.6877 46.9767 13.4723C47.1259 13.2536 47.2005 12.995 47.2005 12.6967C47.2005 12.3023 47.0613 11.9775 46.7828 11.7223C46.5078 11.4671 46.0984 11.3395 45.5549 11.3395H43.6905V14.1484ZM56.5806 12.6172C56.5342 12.183 56.3387 11.8449 55.994 11.603C55.6526 11.361 55.2085 11.2401 54.6616 11.2401C54.2771 11.2401 53.9473 11.2981 53.6722 11.4141C53.3971 11.5301 53.1867 11.6875 53.0408 11.8864C52.895 12.0852 52.8204 12.3123 52.8171 12.5675C52.8171 12.7796 52.8652 12.9635 52.9613 13.1193C53.0607 13.2751 53.195 13.4077 53.364 13.517C53.533 13.6231 53.7203 13.7126 53.9258 13.7855C54.1313 13.8584 54.3384 13.9197 54.5472 13.9695L55.5018 14.2081C55.8862 14.2976 56.2558 14.4186 56.6104 14.571C56.9684 14.7235 57.2882 14.9157 57.57 15.1477C57.855 15.3797 58.0804 15.6598 58.2461 15.9879C58.4118 16.3161 58.4947 16.7005 58.4947 17.1413C58.4947 17.7379 58.3422 18.2633 58.0373 18.7173C57.7324 19.1681 57.2915 19.5211 56.7148 19.7763C56.1415 20.0282 55.4471 20.1541 54.6317 20.1541C53.8396 20.1541 53.1519 20.0315 52.5685 19.7862C51.9885 19.541 51.5344 19.183 51.2063 18.7124C50.8815 18.2417 50.7058 17.6683 50.6793 16.9922H52.494C52.5205 17.3468 52.6299 17.6418 52.8221 17.8771C53.0143 18.1125 53.2646 18.2881 53.5728 18.4041C53.8844 18.5201 54.2324 18.5781 54.6168 18.5781C55.0179 18.5781 55.3692 18.5185 55.6708 18.3991C55.9757 18.2765 56.2144 18.1075 56.3867 17.892C56.5591 17.6733 56.6469 17.4181 56.6502 17.1264C56.6469 16.8613 56.569 16.6425 56.4165 16.4702C56.2641 16.2945 56.0503 16.1487 55.7752 16.0327C55.5034 15.9134 55.1853 15.8073 54.8207 15.7145L53.6623 15.4162C52.8237 15.2008 52.1609 14.8743 51.6737 14.4368C51.1897 13.996 50.9478 13.411 50.9478 12.6818C50.9478 12.0819 51.1102 11.5566 51.435 11.1058C51.7631 10.6551 52.2089 10.3054 52.7724 10.0568C53.3358 9.80492 53.9738 9.67898 54.6864 9.67898C55.409 9.67898 56.042 9.80492 56.5856 10.0568C57.1325 10.3054 57.5617 10.6518 57.8732 11.0959C58.1848 11.5367 58.3455 12.0438 58.3555 12.6172H56.5806ZM61.9835 9.81818V20H60.139V9.81818H61.9835ZM67.4311 20H63.9808V9.81818H67.5007C68.5116 9.81818 69.38 10.022 70.1058 10.4297C70.835 10.834 71.3951 11.4157 71.7862 12.1747C72.1773 12.9337 72.3729 13.8419 72.3729 14.8991C72.3729 15.9598 72.1757 16.8712 71.7812 17.6335C71.3902 18.3958 70.825 18.9808 70.0859 19.3885C69.3501 19.7962 68.4652 20 67.4311 20ZM65.8253 18.4041H67.3416C68.0509 18.4041 68.6425 18.2749 69.1165 18.0163C69.5904 17.7545 69.9467 17.3651 70.1854 16.848C70.424 16.3277 70.5433 15.678 70.5433 14.8991C70.5433 14.1203 70.424 13.474 70.1854 12.9602C69.9467 12.4432 69.5938 12.0571 69.1264 11.8018C68.6624 11.5433 68.0857 11.4141 67.3963 11.4141H65.8253V18.4041ZM75.9698 9.81818V20H74.1254V9.81818H75.9698ZM79.2747 20H77.3059L80.8904 9.81818H83.1674L86.7569 20H84.7882L82.0687 11.9062H81.9892L79.2747 20ZM79.3393 16.0078H84.7086V17.4893H79.3393V16.0078ZM96.4652 9.81818V20H94.8246L90.027 13.0646H89.9425V20H88.098V9.81818H89.7486L94.5412 16.7585H94.6307V9.81818H96.4652Z" fill="white"/>
<g clip-path="url(#clip1_1147_661)">
<path d="M18.5616 5C16.4883 6.145 14.4166 7.29083 12.3441 8.43667L13.03 11.9917L18.3341 7.8125L18.5616 5ZM18.705 5.04917L18.4808 7.81083L22.2283 10.1042L18.705 5.04917ZM18.4108 7.9375L13.0725 12.1467L19.2308 24.9525L20.2116 22.9867L22.3166 10.3333C22.3066 10.3258 18.4108 7.9375 18.4108 7.9375ZM12.2233 8.58667L9.68164 14.0817L13.5275 22.925L12.9108 12.1467L12.9008 12.0933L12.2233 8.58667ZM13.0775 12.4933L13.6858 23.1467L19.0916 25L13.0775 12.4933Z" fill="white"/>
</g>
</g>
<defs>
<clipPath id="clip0_1147_661">
<rect width="139" height="30" fill="white"/>
</clipPath>
<clipPath id="clip1_1147_661">
<rect width="20" height="20" fill="white" transform="translate(6 5)"/>
</clipPath>
</defs>
</svg>
