<svg width="139" height="30" viewBox="0 0 139 30" fill="none" xmlns="http://www.w3.org/2000/svg">
<g clip-path="url(#clip0_1147_730)">
<rect width="139" height="30" rx="5" fill="#555555"/>
<path d="M103 0H134C136.761 0 139 2.23858 139 5V25C139 27.7614 136.761 30 134 30H103V0Z" fill="#D12124"/>
<path d="M39.3807 15.2727C39.3807 16.2914 39.1899 17.1639 38.8082 17.8903C38.4297 18.6135 37.9126 19.1675 37.2571 19.5522C36.6046 19.9369 35.8645 20.1293 35.0366 20.1293C34.2087 20.1293 33.467 19.9369 32.8114 19.5522C32.159 19.1644 31.6419 18.6089 31.2603 17.8857C30.8817 17.1593 30.6925 16.2884 30.6925 15.2727C30.6925 14.254 30.8817 13.383 31.2603 12.6598C31.6419 11.9335 32.159 11.378 32.8114 10.9933C33.467 10.6085 34.2087 10.4162 35.0366 10.4162C35.8645 10.4162 36.6046 10.6085 37.2571 10.9933C37.9126 11.378 38.4297 11.9335 38.8082 12.6598C39.1899 13.383 39.3807 14.254 39.3807 15.2727ZM37.6587 15.2727C37.6587 14.5556 37.5464 13.9509 37.3217 13.4585C37.1001 12.9629 36.7924 12.589 36.3984 12.3366C36.0045 12.0812 35.5505 11.9535 35.0366 11.9535C34.5226 11.9535 34.0687 12.0812 33.6747 12.3366C33.2808 12.589 32.9715 12.9629 32.7468 13.4585C32.5252 13.9509 32.4144 14.5556 32.4144 15.2727C32.4144 15.9898 32.5252 16.5961 32.7468 17.0916C32.9715 17.584 33.2808 17.958 33.6747 18.2134C34.0687 18.4658 34.5226 18.592 35.0366 18.592C35.5505 18.592 36.0045 18.4658 36.3984 18.2134C36.7924 17.958 37.1001 17.584 37.3217 17.0916C37.5464 16.5961 37.6587 15.9898 37.6587 15.2727ZM40.9999 20V10.5455H44.5454C45.2717 10.5455 45.8811 10.6716 46.3735 10.924C46.869 11.1764 47.2429 11.5303 47.4953 11.9858C47.7507 12.4382 47.8785 12.966 47.8785 13.5692C47.8785 14.1755 47.7492 14.7018 47.4907 15.1481C47.2352 15.5913 46.8582 15.9344 46.3596 16.1776C45.8611 16.4176 45.2486 16.5376 44.5223 16.5376H41.9971V15.1158H44.2915C44.7162 15.1158 45.064 15.0573 45.3348 14.9403C45.6056 14.8203 45.8057 14.6464 45.9349 14.4187C46.0673 14.1879 46.1334 13.9047 46.1334 13.5692C46.1334 13.2338 46.0673 12.9476 45.9349 12.7106C45.8026 12.4705 45.601 12.2889 45.3302 12.1658C45.0593 12.0397 44.71 11.9766 44.2822 11.9766H42.7126V20H40.9999ZM45.8841 15.7159L48.2247 20H46.3135L44.0145 15.7159H45.8841ZM50.6691 20H48.841L52.1695 10.5455H54.2838L57.6169 20H55.7888L53.2636 12.4844H53.1897L50.6691 20ZM50.7291 16.293H55.7149V17.6687H50.7291V16.293ZM66.5106 13.7354H64.784C64.7348 13.4523 64.644 13.2015 64.5116 12.983C64.3793 12.7614 64.2146 12.5736 64.0177 12.4197C63.8207 12.2659 63.596 12.1504 63.3437 12.0735C63.0944 11.9935 62.8251 11.9535 62.5358 11.9535C62.0218 11.9535 61.5663 12.0827 61.1693 12.3413C60.7723 12.5967 60.4614 12.9722 60.2368 13.4677C60.0121 13.9601 59.8998 14.5618 59.8998 15.2727C59.8998 15.996 60.0121 16.6054 60.2368 17.1009C60.4645 17.5933 60.7754 17.9657 61.1693 18.218C61.5663 18.4673 62.0203 18.592 62.5312 18.592C62.8143 18.592 63.079 18.555 63.3252 18.4812C63.5745 18.4042 63.7976 18.2919 63.9946 18.1442C64.1946 17.9964 64.3624 17.8149 64.4978 17.5994C64.6363 17.384 64.7317 17.1378 64.784 16.8608L66.5106 16.87C66.4459 17.3194 66.3059 17.741 66.0905 18.1349C65.8781 18.5289 65.5996 18.8767 65.2549 19.1783C64.9102 19.4768 64.507 19.7107 64.0454 19.88C63.5837 20.0462 63.0713 20.1293 62.5081 20.1293C61.6771 20.1293 60.9354 19.9369 60.2829 19.5522C59.6305 19.1675 59.1165 18.612 58.741 17.8857C58.3656 17.1593 58.1778 16.2884 58.1778 15.2727C58.1778 14.254 58.3671 13.383 58.7456 12.6598C59.1242 11.9335 59.6397 11.378 60.2922 10.9933C60.9446 10.6085 61.6833 10.4162 62.5081 10.4162C63.0344 10.4162 63.5237 10.4901 63.9761 10.6378C64.4285 10.7855 64.8317 11.0025 65.1856 11.2887C65.5396 11.5719 65.8304 11.9196 66.0582 12.332C66.289 12.7414 66.4398 13.2092 66.5106 13.7354ZM68.079 20V10.5455H69.7917V18.5643H73.9558V20H68.079ZM75.4423 20V10.5455H81.5914V11.9812H77.155V14.5479H81.2729V15.9837H77.155V18.5643H81.6284V20H75.4423Z" fill="white"/>
<g clip-path="url(#clip1_1147_730)">
<path d="M21.3125 5H10.6875C8.09867 5 6 7.09867 6 9.6875V20.3125C6 22.9013 8.09867 25 10.6875 25H21.3125C23.9013 25 26 22.9013 26 20.3125V9.6875C26 7.09867 23.9013 5 21.3125 5Z" fill="#6F6F6F"/>
<path d="M14.6341 15.3696H15.9607L15.2674 14.2413L13.9799 16.2805H13.3857L14.9507 13.8255C14.9916 13.7855 15.0374 13.7496 15.0857 13.7188L15.0891 13.7171C15.1411 13.6848 15.2012 13.6678 15.2624 13.668H15.2674C15.3245 13.6687 15.3801 13.6861 15.4274 13.718L15.4266 13.7171C15.4766 13.748 15.523 13.7843 15.5649 13.8255L17.1299 16.2805H16.5357L16.2582 15.8255H14.9316L14.6341 15.3696ZM20.6932 15.8255V13.7071H20.1982V16.0313C20.1982 16.0646 20.2057 16.0963 20.2191 16.1246L20.2182 16.123C20.2334 16.1525 20.2534 16.1792 20.2774 16.2021C20.2913 16.2293 20.3147 16.2504 20.3432 16.2613C20.3769 16.2746 20.4137 16.2813 20.4499 16.2813H22.7099L22.9874 15.8263L20.6932 15.8255ZM12.5149 15.4288H12.5274C12.7616 15.4288 12.9741 15.3346 13.1291 15.1813C13.2104 15.1059 13.2752 15.0145 13.3195 14.9128C13.3638 14.8111 13.3867 14.7014 13.3866 14.5905V14.5538C13.3866 14.4416 13.3638 14.3305 13.3195 14.2273C13.2752 14.1242 13.2104 14.0311 13.1291 13.9538C13.0499 13.8751 12.9561 13.8127 12.8528 13.7702C12.7496 13.7277 12.639 13.706 12.5274 13.7063H10.3357V16.2805H10.8332V14.1621H12.4891C12.6007 14.1621 12.7007 14.208 12.7732 14.2813C12.8109 14.3184 12.8408 14.3627 12.8613 14.4115C12.8817 14.4602 12.8923 14.5126 12.8924 14.5655V14.5788V14.578C12.8917 14.6855 12.8493 14.7886 12.7741 14.8655C12.7378 14.9061 12.6934 14.9386 12.6437 14.9608C12.594 14.9831 12.5402 14.9946 12.4857 14.9946H11.0691L12.5541 16.2821H13.2666L12.2757 15.4305L12.5149 15.4288ZM7.28657 16.2805H7.2799C6.9299 16.2805 6.61323 16.1363 6.38657 15.9046C6.26451 15.7903 6.16727 15.652 6.1009 15.4985C6.03452 15.345 6.00043 15.1794 6.00073 15.0121V14.9746C6.00073 14.623 6.14907 14.3063 6.38657 14.083L6.3874 14.0821C6.50377 13.9629 6.64286 13.8682 6.79643 13.8037C6.95001 13.7391 7.11497 13.706 7.28157 13.7063H8.81407C9.16323 13.7063 9.47823 13.8505 9.70407 14.0821C9.93657 14.308 10.0799 14.623 10.0799 14.9721V14.9938V15.0121C10.0799 15.3621 9.9349 15.678 9.7024 15.9038C9.58689 16.023 9.44856 16.1177 9.29565 16.1823C9.14274 16.2469 8.97839 16.28 8.8124 16.2796H8.79073L7.28657 16.2805ZM8.75323 15.8255H8.77323C8.88065 15.8256 8.98695 15.8038 9.08557 15.7612C9.18419 15.7186 9.27302 15.6563 9.34657 15.578C9.49881 15.4254 9.58423 15.2185 9.58407 15.003V14.9721C9.58421 14.8659 9.56329 14.7607 9.52253 14.6625C9.48176 14.5644 9.42196 14.4753 9.34657 14.4005C9.27169 14.3251 9.18262 14.2653 9.0845 14.2245C8.98638 14.1837 8.88115 14.1628 8.7749 14.163H8.75157H7.31657C7.101 14.1628 6.89419 14.2482 6.74157 14.4005C6.66334 14.4742 6.60103 14.5632 6.55846 14.662C6.5159 14.7607 6.49398 14.8671 6.49407 14.9746V14.9955V14.9946V15.0005C6.49399 15.1085 6.51581 15.2155 6.5582 15.3149C6.6006 15.4143 6.66269 15.5041 6.74073 15.5788C6.81532 15.6571 6.90505 15.7194 7.00447 15.762C7.10389 15.8045 7.21092 15.8264 7.31907 15.8263H7.3249L8.75323 15.8255ZM18.1591 16.2805H18.1382C17.7891 16.2805 17.4741 16.1363 17.2482 15.9046C17.129 15.7891 17.0343 15.6508 16.9697 15.4979C16.9052 15.345 16.8721 15.1806 16.8724 15.0146V14.973C16.8724 14.6238 17.0166 14.3088 17.2482 14.083C17.3637 13.9638 17.5021 13.8691 17.655 13.8045C17.8079 13.7399 17.9722 13.7068 18.1382 13.7071H18.1599H18.1591H19.9407L19.6432 14.1621H18.1674C17.9518 14.162 17.745 14.2474 17.5924 14.3996C17.5142 14.4734 17.4519 14.5624 17.4093 14.6611C17.3667 14.7599 17.3448 14.8663 17.3449 14.9738V14.9946V14.9938V14.9996C17.3448 15.1077 17.3666 15.2147 17.409 15.3141C17.4514 15.4134 17.5135 15.5032 17.5916 15.578C17.6661 15.6563 17.7559 15.7186 17.8553 15.7612C17.9547 15.8037 18.0618 15.8256 18.1699 15.8255H19.9757L19.6782 16.2805H18.1591ZM24.1982 15.8255H24.1916C24.0122 15.8256 23.8386 15.7621 23.7016 15.6463L23.7024 15.6471C23.5634 15.5366 23.4605 15.3872 23.4066 15.218L23.4049 15.2113H25.5232L25.8007 14.7563H23.4049C23.4591 14.583 23.5616 14.4388 23.6974 14.3346L23.6991 14.333C23.8377 14.2236 24.0092 14.1643 24.1857 14.1646H25.6607L25.9582 13.7096H24.1557C23.8066 13.7096 23.4916 13.8538 23.2657 14.0855C23.1465 14.201 23.0518 14.3393 22.9872 14.4922C22.9227 14.6451 22.8896 14.8095 22.8899 14.9755V14.9971V14.9963V15.0171C22.8899 15.3663 23.0341 15.6813 23.2657 15.9071C23.4916 16.1396 23.8066 16.283 24.1557 16.283H24.1774H25.6991L25.9966 15.828L24.1982 15.8255Z" fill="white"/>
</g>
</g>
<defs>
<clipPath id="clip0_1147_730">
<rect width="139" height="30" fill="white"/>
</clipPath>
<clipPath id="clip1_1147_730">
<rect width="20" height="20" fill="white" transform="translate(6 5)"/>
</clipPath>
</defs>
</svg>
