<svg width="139" height="30" viewBox="0 0 139 30" fill="none" xmlns="http://www.w3.org/2000/svg">
<g clip-path="url(#clip0_1147_499)">
<rect width="139" height="30" rx="5" fill="#555555"/>
<path d="M103 0H134C136.761 0 139 2.23858 139 5V25C139 27.7614 136.761 30 134 30H103V0Z" fill="#8993BE"/>
<path d="M31.2784 21V9.36364H35.4261C36.3314 9.36364 37.0814 9.52841 37.6761 9.85795C38.2708 10.1875 38.7159 10.6383 39.0114 11.2102C39.3068 11.7784 39.4545 12.4186 39.4545 13.1307C39.4545 13.8466 39.3049 14.4905 39.0057 15.0625C38.7102 15.6307 38.2633 16.0814 37.6648 16.4148C37.0701 16.7443 36.322 16.9091 35.4205 16.9091H32.5682V15.4205H35.2614C35.8333 15.4205 36.2973 15.322 36.6534 15.125C37.0095 14.9242 37.2708 14.6515 37.4375 14.3068C37.6042 13.9621 37.6875 13.5701 37.6875 13.1307C37.6875 12.6913 37.6042 12.3011 37.4375 11.9602C37.2708 11.6193 37.0076 11.3523 36.6477 11.1591C36.2917 10.9659 35.822 10.8693 35.2386 10.8693H33.0341V21H31.2784ZM41.5128 21V9.36364H43.2685V14.4205H49.0696V9.36364H50.831V21H49.0696V15.9261H43.2685V21H41.5128ZM53.3878 21V9.36364H57.5355C58.4408 9.36364 59.1908 9.52841 59.7855 9.85795C60.3802 10.1875 60.8253 10.6383 61.1207 11.2102C61.4162 11.7784 61.5639 12.4186 61.5639 13.1307C61.5639 13.8466 61.4143 14.4905 61.1151 15.0625C60.8196 15.6307 60.3726 16.0814 59.7741 16.4148C59.1795 16.7443 58.4313 16.9091 57.5298 16.9091H54.6776V15.4205H57.3707C57.9427 15.4205 58.4067 15.322 58.7628 15.125C59.1188 14.9242 59.3802 14.6515 59.5469 14.3068C59.7135 13.9621 59.7969 13.5701 59.7969 13.1307C59.7969 12.6913 59.7135 12.3011 59.5469 11.9602C59.3802 11.6193 59.117 11.3523 58.7571 11.1591C58.401 10.9659 57.9313 10.8693 57.348 10.8693H55.1435V21H53.3878Z" fill="white"/>
<g clip-path="url(#clip1_1147_499)">
<path d="M21.3125 5H10.6875C8.09867 5 6 7.09867 6 9.6875V20.3125C6 22.9013 8.09867 25 10.6875 25H21.3125C23.9013 25 26 22.9013 26 20.3125V9.6875C26 7.09867 23.9013 5 21.3125 5Z" fill="#6F6F6F"/>
<path d="M9.84047 12.8317H12.0598C12.7113 12.8372 13.1833 13.025 13.4759 13.3948C13.7686 13.7647 13.8652 14.2698 13.7658 14.9103C13.7272 15.203 13.6416 15.49 13.5091 15.7716C13.382 16.0531 13.2055 16.307 12.9791 16.5334C12.703 16.8205 12.4077 17.0027 12.093 17.08C11.7783 17.1573 11.4525 17.1959 11.1158 17.1959H10.122L9.80734 18.7694H8.65625L9.84047 12.8317ZM10.8094 13.7758L10.3125 16.2602C10.3456 16.2656 10.3788 16.2684 10.4119 16.2684H10.5278C11.0578 16.2739 11.4995 16.2216 11.8528 16.1111C12.2061 15.9952 12.4436 15.5922 12.565 14.902C12.6644 14.3223 12.565 13.9883 12.2669 13.9C11.9742 13.8117 11.6072 13.7703 11.1655 13.7758C11.0992 13.7813 11.0358 13.7841 10.975 13.7841H10.8011L10.8094 13.7758ZM15.077 11.25H16.2198L15.8969 12.8317H16.9238C17.4869 12.8428 17.9064 12.9587 18.1825 13.1795C18.4641 13.4003 18.5469 13.82 18.4309 14.4383L17.8761 17.1959H16.7167L17.2467 14.5625C17.3019 14.2864 17.2853 14.0905 17.197 13.9745C17.1088 13.8586 16.9183 13.8006 16.6256 13.8006L15.7064 13.7923L15.0273 17.1959H13.8845L15.077 11.25ZM19.6581 12.8317H21.8775C22.5289 12.8372 23.0009 13.025 23.2936 13.3948C23.5863 13.7647 23.6828 14.2698 23.5834 14.9103C23.5448 15.203 23.4592 15.49 23.3267 15.7716C23.1997 16.0531 23.0231 16.307 22.7967 16.5334C22.5206 16.8205 22.2253 17.0027 21.9106 17.08C21.5959 17.1573 21.2702 17.1959 20.9334 17.1959H19.9397L19.625 18.7694H18.4739L19.6581 12.8317ZM20.627 13.7758L20.1302 16.2602C20.1633 16.2656 20.1964 16.2684 20.2295 16.2684H20.3455C20.8755 16.2739 21.3172 16.2216 21.6705 16.1111C22.0238 15.9952 22.2612 15.5922 22.3827 14.902C22.482 14.3223 22.3827 13.9883 22.0845 13.9C21.7919 13.8117 21.4248 13.7703 20.9831 13.7758C20.9169 13.7813 20.8534 13.7841 20.7927 13.7841H20.6187L20.627 13.7758Z" fill="white"/>
</g>
</g>
<defs>
<clipPath id="clip0_1147_499">
<rect width="139" height="30" fill="white"/>
</clipPath>
<clipPath id="clip1_1147_499">
<rect width="20" height="20" fill="white" transform="translate(6 5)"/>
</clipPath>
</defs>
</svg>
