<svg width="139" height="30" viewBox="0 0 139 30" fill="none" xmlns="http://www.w3.org/2000/svg">
<g clip-path="url(#clip0_1147_595)">
<rect width="139" height="30" rx="5" fill="#555555"/>
<path d="M103 0H134C136.761 0 139 2.23858 139 5V25C139 27.7614 136.761 30 134 30H103V0Z" fill="#336791"/>
<path d="M30.6321 19V11.7273H33.5014C34.053 11.7273 34.523 11.8326 34.9112 12.0433C35.2995 12.2517 35.5954 12.5417 35.799 12.9134C36.005 13.2827 36.108 13.7088 36.108 14.1918C36.108 14.6747 36.0038 15.1009 35.7955 15.4702C35.5871 15.8395 35.2853 16.1271 34.8899 16.3331C34.4969 16.5391 34.0211 16.642 33.4624 16.642H31.6335V15.4098H33.2138C33.5097 15.4098 33.7536 15.3589 33.9453 15.2571C34.1394 15.1529 34.2839 15.0097 34.3786 14.8274C34.4756 14.6428 34.5241 14.4309 34.5241 14.1918C34.5241 13.9503 34.4756 13.7396 34.3786 13.5597C34.2839 13.3774 34.1394 13.2365 33.9453 13.1371C33.7512 13.0353 33.505 12.9844 33.2067 12.9844H32.1697V19H30.6321ZM43.79 15.3636C43.79 16.1567 43.6396 16.8314 43.339 17.3878C43.0407 17.9441 42.6335 18.3691 42.1174 18.6626C41.6036 18.9538 41.026 19.0994 40.3844 19.0994C39.7381 19.0994 39.1581 18.9527 38.6444 18.6591C38.1306 18.3655 37.7246 17.9406 37.4263 17.3842C37.128 16.8279 36.9789 16.1544 36.9789 15.3636C36.9789 14.5705 37.128 13.8958 37.4263 13.3395C37.7246 12.7831 38.1306 12.3594 38.6444 12.0682C39.1581 11.7746 39.7381 11.6278 40.3844 11.6278C41.026 11.6278 41.6036 11.7746 42.1174 12.0682C42.6335 12.3594 43.0407 12.7831 43.339 13.3395C43.6396 13.8958 43.79 14.5705 43.79 15.3636ZM42.231 15.3636C42.231 14.8499 42.1541 14.4167 42.0002 14.0639C41.8487 13.7112 41.6344 13.4437 41.3574 13.2614C41.0804 13.0791 40.7561 12.9879 40.3844 12.9879C40.0127 12.9879 39.6884 13.0791 39.4114 13.2614C39.1344 13.4437 38.919 13.7112 38.7651 14.0639C38.6136 14.4167 38.5378 14.8499 38.5378 15.3636C38.5378 15.8774 38.6136 16.3106 38.7651 16.6634C38.919 17.0161 39.1344 17.2836 39.4114 17.4659C39.6884 17.6482 40.0127 17.7393 40.3844 17.7393C40.7561 17.7393 41.0804 17.6482 41.3574 17.4659C41.6344 17.2836 41.8487 17.0161 42.0002 16.6634C42.1541 16.3106 42.231 15.8774 42.231 15.3636ZM48.8743 13.8189C48.8459 13.5324 48.724 13.3099 48.5085 13.1513C48.2931 12.9927 48.0007 12.9134 47.6314 12.9134C47.3804 12.9134 47.1686 12.9489 46.9957 13.0199C46.8229 13.0885 46.6903 13.1844 46.598 13.3075C46.508 13.4306 46.4631 13.5703 46.4631 13.7266C46.4583 13.8568 46.4856 13.9704 46.5447 14.0675C46.6063 14.1645 46.6903 14.2486 46.7969 14.3196C46.9034 14.3883 47.0265 14.4486 47.1662 14.5007C47.3059 14.5504 47.455 14.593 47.6136 14.6286L48.267 14.7848C48.5843 14.8558 48.8755 14.9505 49.1406 15.0689C49.4058 15.1873 49.6354 15.3329 49.8295 15.5057C50.0237 15.6785 50.174 15.8821 50.2805 16.1165C50.3894 16.3509 50.4451 16.6196 50.4474 16.9226C50.4451 17.3677 50.3314 17.7536 50.1065 18.0803C49.884 18.4046 49.562 18.6567 49.1406 18.8366C48.7216 19.0142 48.2161 19.103 47.6243 19.103C47.0372 19.103 46.5258 19.013 46.0902 18.8331C45.657 18.6532 45.3184 18.3868 45.0746 18.0341C44.8331 17.679 44.7064 17.2398 44.6946 16.7166H46.1825C46.1991 16.9605 46.2689 17.1641 46.392 17.3274C46.5175 17.4884 46.6844 17.6103 46.8928 17.6932C47.1035 17.7737 47.3414 17.8139 47.6065 17.8139C47.867 17.8139 48.093 17.776 48.2848 17.7003C48.4789 17.6245 48.6293 17.5192 48.7358 17.3842C48.8423 17.2493 48.8956 17.0942 48.8956 16.919C48.8956 16.7557 48.8471 16.6184 48.75 16.5071C48.6553 16.3958 48.5156 16.3011 48.331 16.223C48.1487 16.1449 47.925 16.0739 47.6598 16.0099L46.8679 15.8111C46.2547 15.6619 45.7706 15.4287 45.4155 15.1115C45.0604 14.7943 44.884 14.367 44.8864 13.8295C44.884 13.3892 45.0012 13.0045 45.2379 12.6754C45.477 12.3464 45.8049 12.0895 46.2216 11.9048C46.6383 11.7202 47.1117 11.6278 47.642 11.6278C48.1818 11.6278 48.6529 11.7202 49.0554 11.9048C49.4602 12.0895 49.7751 12.3464 50 12.6754C50.2249 13.0045 50.3409 13.3857 50.348 13.8189H48.8743ZM51.2047 12.995V11.7273H57.1777V12.995H54.9512V19H53.4313V12.995H51.2047ZM62.6518 14.0781C62.6021 13.9053 62.5323 13.7526 62.4423 13.62C62.3523 13.4851 62.2422 13.3714 62.112 13.2791C61.9842 13.1844 61.8374 13.1122 61.6717 13.0625C61.5083 13.0128 61.3272 12.9879 61.1284 12.9879C60.7567 12.9879 60.43 13.0803 60.1483 13.2649C59.8689 13.4496 59.6511 13.7183 59.4949 14.071C59.3386 14.4214 59.2605 14.8499 59.2605 15.3565C59.2605 15.8632 59.3374 16.294 59.4913 16.6491C59.6452 17.0043 59.863 17.2753 60.1447 17.4624C60.4264 17.647 60.7591 17.7393 61.1426 17.7393C61.4906 17.7393 61.7877 17.6778 62.0339 17.5547C62.2825 17.4292 62.4719 17.2528 62.6021 17.0256C62.7347 16.7983 62.801 16.5296 62.801 16.2195L63.1135 16.2656H61.2385V15.108H64.2818V16.0241C64.2818 16.6634 64.1468 17.2126 63.877 17.6719C63.6071 18.1288 63.2354 18.4815 62.7619 18.7301C62.2884 18.9763 61.7463 19.0994 61.1355 19.0994C60.4537 19.0994 59.8547 18.9491 59.3386 18.6484C58.8225 18.3454 58.42 17.9157 58.1312 17.3594C57.8448 16.8007 57.7015 16.1378 57.7015 15.3707C57.7015 14.7812 57.7868 14.2557 57.9572 13.794C58.13 13.33 58.3715 12.937 58.6816 12.6151C58.9918 12.2931 59.3528 12.0481 59.7647 11.88C60.1767 11.7119 60.6229 11.6278 61.1035 11.6278C61.5154 11.6278 61.899 11.6882 62.2541 11.8089C62.6092 11.9273 62.9241 12.0954 63.1987 12.3132C63.4757 12.531 63.7018 12.7902 63.877 13.0909C64.0521 13.3892 64.1646 13.7183 64.2143 14.0781H62.6518ZM65.4368 19V11.7273H68.3061C68.8554 11.7273 69.3241 11.8255 69.7124 12.022C70.103 12.2161 70.4001 12.492 70.6037 12.8494C70.8097 13.2045 70.9126 13.6224 70.9126 14.103C70.9126 14.5859 70.8085 15.0014 70.6001 15.3494C70.3918 15.6951 70.09 15.9602 69.6946 16.1449C69.3016 16.3295 68.8258 16.4219 68.267 16.4219H66.3459V15.1861H68.0185C68.312 15.1861 68.5559 15.1458 68.75 15.0653C68.9441 14.9848 69.0885 14.8641 69.1832 14.7031C69.2803 14.5421 69.3288 14.3421 69.3288 14.103C69.3288 13.8615 69.2803 13.6579 69.1832 13.4922C69.0885 13.3265 68.9429 13.201 68.7464 13.1158C68.5523 13.0282 68.3073 12.9844 68.0114 12.9844H66.9744V19H65.4368ZM69.3643 15.6903L71.1719 19H69.4744L67.706 15.6903H69.3643ZM71.9993 19V11.7273H76.8999V12.995H73.5369V14.728H76.6477V15.9957H73.5369V17.7322H76.9141V19H71.9993ZM82.0676 13.8189C82.0392 13.5324 81.9173 13.3099 81.7019 13.1513C81.4864 12.9927 81.1941 12.9134 80.8248 12.9134C80.5738 12.9134 80.3619 12.9489 80.1891 13.0199C80.0163 13.0885 79.8837 13.1844 79.7914 13.3075C79.7014 13.4306 79.6564 13.5703 79.6564 13.7266C79.6517 13.8568 79.6789 13.9704 79.7381 14.0675C79.7997 14.1645 79.8837 14.2486 79.9902 14.3196C80.0968 14.3883 80.2199 14.4486 80.3596 14.5007C80.4992 14.5504 80.6484 14.593 80.807 14.6286L81.4604 14.7848C81.7776 14.8558 82.0688 14.9505 82.334 15.0689C82.5991 15.1873 82.8288 15.3329 83.0229 15.5057C83.217 15.6785 83.3674 15.8821 83.4739 16.1165C83.5828 16.3509 83.6384 16.6196 83.6408 16.9226C83.6384 17.3677 83.5248 17.7536 83.2999 18.0803C83.0774 18.4046 82.7554 18.6567 82.334 18.8366C81.915 19.0142 81.4095 19.103 80.8176 19.103C80.2305 19.103 79.7192 19.013 79.2836 18.8331C78.8503 18.6532 78.5118 18.3868 78.2679 18.0341C78.0265 17.679 77.8998 17.2398 77.888 16.7166H79.3759C79.3925 16.9605 79.4623 17.1641 79.5854 17.3274C79.7109 17.4884 79.8778 17.6103 80.0861 17.6932C80.2968 17.7737 80.5347 17.8139 80.7999 17.8139C81.0603 17.8139 81.2864 17.776 81.4782 17.7003C81.6723 17.6245 81.8226 17.5192 81.9292 17.3842C82.0357 17.2493 82.089 17.0942 82.089 16.919C82.089 16.7557 82.0404 16.6184 81.9434 16.5071C81.8487 16.3958 81.709 16.3011 81.5243 16.223C81.342 16.1449 81.1183 16.0739 80.8532 16.0099L80.0613 15.8111C79.4481 15.6619 78.964 15.4287 78.6088 15.1115C78.2537 14.7943 78.0774 14.367 78.0797 13.8295C78.0774 13.3892 78.1945 13.0045 78.4313 12.6754C78.6704 12.3464 78.9983 12.0895 79.415 11.9048C79.8316 11.7202 80.3051 11.6278 80.8354 11.6278C81.3752 11.6278 81.8463 11.7202 82.2488 11.9048C82.6536 12.0895 82.9685 12.3464 83.1934 12.6754C83.4183 13.0045 83.5343 13.3857 83.5414 13.8189H82.0676ZM87.4201 16.4716H88.7269L89.3839 17.3168L90.0302 18.0696L91.2482 19.5966H89.8136L88.9755 18.5668L88.5458 17.956L87.4201 16.4716ZM91.3583 15.3636C91.3583 16.1567 91.208 16.8314 90.9073 17.3878C90.609 17.9441 90.2018 18.3691 89.6857 18.6626C89.172 18.9538 88.5943 19.0994 87.9528 19.0994C87.3065 19.0994 86.7264 18.9527 86.2127 18.6591C85.699 18.3655 85.293 17.9406 84.9947 17.3842C84.6964 16.8279 84.5472 16.1544 84.5472 15.3636C84.5472 14.5705 84.6964 13.8958 84.9947 13.3395C85.293 12.7831 85.699 12.3594 86.2127 12.0682C86.7264 11.7746 87.3065 11.6278 87.9528 11.6278C88.5943 11.6278 89.172 11.7746 89.6857 12.0682C90.2018 12.3594 90.609 12.7831 90.9073 13.3395C91.208 13.8958 91.3583 14.5705 91.3583 15.3636ZM89.7994 15.3636C89.7994 14.8499 89.7224 14.4167 89.5685 14.0639C89.417 13.7112 89.2028 13.4437 88.9258 13.2614C88.6488 13.0791 88.3245 12.9879 87.9528 12.9879C87.5811 12.9879 87.2567 13.0791 86.9798 13.2614C86.7028 13.4437 86.4873 13.7112 86.3335 14.0639C86.1819 14.4167 86.1062 14.8499 86.1062 15.3636C86.1062 15.8774 86.1819 16.3106 86.3335 16.6634C86.4873 17.0161 86.7028 17.2836 86.9798 17.4659C87.2567 17.6482 87.5811 17.7393 87.9528 17.7393C88.3245 17.7393 88.6488 17.6482 88.9258 17.4659C89.2028 17.2836 89.417 17.0161 89.5685 16.6634C89.7224 16.3106 89.7994 15.8774 89.7994 15.3636ZM92.4973 19V11.7273H94.035V17.7322H97.1529V19H92.4973Z" fill="white"/>
<g clip-path="url(#clip1_1147_595)">
<path d="M25.6334 17.2688C25.6219 17.2336 25.6059 17.2 25.5859 17.1688C25.4701 16.9504 25.1884 16.8846 24.7468 16.9763C23.3684 17.2596 22.8351 17.0846 22.6418 16.9596C23.7601 15.2529 24.6793 13.1913 25.1759 11.2679C25.4026 10.3929 25.8409 8.33209 25.2776 7.32626C25.2419 7.25711 25.2001 7.19129 25.1526 7.12959C24.0768 5.75793 22.5001 5.02043 20.5918 5.00043C19.3459 4.98709 18.2834 5.28876 17.9951 5.39959C17.8524 5.37286 17.709 5.35007 17.5651 5.33126C17.2042 5.26613 16.8385 5.23074 16.4718 5.22543C15.4868 5.20959 14.6359 5.44543 13.9301 5.92543C13.2168 5.65793 9.94095 4.55459 7.91345 5.99126C6.77928 6.79376 6.25761 8.22709 6.35845 10.2529C6.39261 10.9346 6.78095 13.0313 7.39428 15.0396C7.77761 16.2946 8.17595 17.2913 8.58845 18.0246C9.04928 18.8529 9.52678 19.3521 10.0168 19.5163C10.3901 19.6396 10.9609 19.6354 11.5651 18.9088C12.0892 18.2819 12.6297 17.6689 13.1859 17.0704C13.5484 17.2663 13.9409 17.3721 14.3443 17.3846C14.3442 17.3857 14.3442 17.3868 14.3443 17.3879C14.2742 17.4714 14.2055 17.5562 14.1384 17.6421C13.8559 18.0004 13.7968 18.0754 12.8884 18.2629C12.6301 18.3163 11.9434 18.4571 11.9334 18.9388C11.9315 19.0351 11.9579 19.1298 12.0093 19.2113C12.1984 19.5638 12.7776 19.7196 12.8551 19.7388C13.9676 20.0163 14.9426 19.8154 15.6651 19.1729C15.6509 21.0321 15.7293 22.8546 15.9526 23.4129C16.1368 23.8738 16.5876 24.9996 18.0109 24.9996C18.2193 24.9996 18.4493 24.9746 18.7018 24.9213C20.1868 24.6029 20.8318 23.9463 21.0809 22.4996C21.2059 21.7746 21.4159 20.1038 21.5301 19.0821C21.5443 19.0238 21.5601 18.9821 21.5776 18.9688C21.5776 18.9688 21.6359 18.9288 21.9334 18.9938C21.9455 18.9964 21.9578 18.9984 21.9701 18.9996L22.1818 19.0179L22.1943 19.0188C22.9001 19.0513 23.7868 18.9004 24.3034 18.6604C24.8401 18.4104 25.8093 17.7996 25.6334 17.2688ZM7.97511 14.8963C7.35511 12.8671 6.99345 10.8254 6.96511 10.2538C6.87428 8.44376 7.31261 7.18459 8.26678 6.50959C9.79761 5.42709 12.3001 6.05959 13.3568 6.40126L13.3484 6.40959C11.6626 8.11126 11.7026 11.0213 11.7084 11.1996C11.7084 11.2679 11.7134 11.3654 11.7218 11.4996C11.7501 11.9879 11.8051 12.8996 11.6601 13.9313C11.5268 14.8896 11.8218 15.8279 12.4709 16.5054C12.5376 16.5754 12.6084 16.6413 12.6809 16.7029C12.3918 17.0121 11.7643 17.6971 11.0951 18.5013C10.6218 19.0696 10.2951 18.9604 10.1884 18.9246C9.86178 18.8163 9.51095 18.4354 9.15595 17.8229C8.75595 17.1238 8.35345 16.1296 7.97678 14.8963H7.97511ZM12.9809 19.1363C12.8544 19.1044 12.7332 19.0544 12.6209 18.9879C12.6951 18.9554 12.8184 18.9129 13.0234 18.8713C14.0934 18.6504 14.2584 18.4954 14.6193 18.0379C14.7165 17.911 14.8185 17.7879 14.9251 17.6688C14.9531 17.6374 14.9742 17.6005 14.9868 17.5604C15.1284 17.4346 15.2134 17.4688 15.3501 17.5254C15.4801 17.5796 15.6068 17.7421 15.6584 17.9213C15.6834 18.0063 15.7101 18.1671 15.6209 18.2921C14.8676 19.3471 13.7693 19.3338 12.9809 19.1363ZM14.7259 15.8129L14.6826 15.9296C14.5718 16.2271 14.4684 16.5038 14.4043 16.7663C13.8484 16.7646 13.3068 16.5263 12.8959 16.0971C12.3726 15.5513 12.1351 14.7921 12.2434 14.0138C12.3959 12.9238 12.3401 11.9746 12.3101 11.4646L12.2993 11.2813C12.5459 11.0629 13.6876 10.4513 14.5018 10.6379C14.8734 10.7229 15.1001 10.9763 15.1934 11.4113C15.6809 13.6646 15.2584 14.6029 14.9184 15.3579C14.8495 15.5074 14.7855 15.6591 14.7268 15.8129H14.7259ZM20.8626 19.6229C20.8484 19.7704 20.8326 19.9363 20.8109 20.1196L20.6893 20.4846C20.6797 20.5136 20.6746 20.544 20.6743 20.5746C20.6693 20.9704 20.6293 21.1154 20.5784 21.2996C20.4957 21.5867 20.4454 21.8821 20.4284 22.1804C20.3368 23.3588 19.6968 24.0363 18.4143 24.3104C17.1518 24.5813 16.9276 23.8971 16.7309 23.2929C16.7104 23.2295 16.6888 23.1664 16.6659 23.1038C16.4868 22.6154 16.5076 21.9271 16.5351 20.9746C16.5484 20.5071 16.5143 19.3904 16.2601 18.7696C16.2634 18.5254 16.2684 18.2771 16.2759 18.0263C16.2766 17.9944 16.2721 17.9626 16.2626 17.9321C16.2545 17.8735 16.2423 17.8156 16.2259 17.7588C16.1243 17.4021 15.8759 17.1038 15.5759 16.9796C15.4576 16.9304 15.2401 16.8404 14.9784 16.9071C15.0343 16.6771 15.1309 16.4179 15.2359 16.1363L15.2801 16.0179C15.3301 15.8846 15.3918 15.7471 15.4576 15.6013C15.8126 14.8113 16.2993 13.7296 15.7709 11.2863C15.5734 10.3713 14.9126 9.92459 13.9109 10.0279C13.3109 10.0904 12.7609 10.3329 12.4868 10.4713C12.4318 10.4991 12.3773 10.528 12.3234 10.5579C12.4001 9.63626 12.6893 7.91293 13.7701 6.82293C13.8503 6.74203 13.9346 6.66526 14.0226 6.59293C14.0664 6.58454 14.1077 6.5663 14.1434 6.53959C14.7701 6.06459 15.5559 5.83126 16.4784 5.84543C16.8201 5.85126 17.1468 5.87376 17.4568 5.91293C19.0734 6.20876 20.1601 7.11876 20.8201 7.89876C21.4984 8.70043 21.8659 9.50793 22.0126 9.94376C20.9101 9.83209 20.1601 10.0496 19.7793 10.5938C18.9526 11.7754 20.2326 14.0704 20.8476 15.1738C20.9601 15.3754 21.0576 15.5504 21.0884 15.6238C21.2884 16.1096 21.5476 16.4338 21.7368 16.6704C21.7951 16.7429 21.8518 16.8129 21.8943 16.8746C21.5609 16.9713 20.9609 17.1938 21.0151 18.3054C20.9944 18.5321 20.9711 18.7585 20.9451 18.9846C20.9068 19.1579 20.8876 19.3679 20.8626 19.6229ZM21.6043 18.2721C21.5709 17.5788 21.8293 17.5063 22.1018 17.4304C22.1396 17.42 22.1771 17.4086 22.2143 17.3963C22.2494 17.4275 22.2868 17.4561 22.3259 17.4821C22.8009 17.7954 23.6451 17.8329 24.8318 17.5938C24.6634 17.7413 24.3993 17.9271 24.0376 18.0946C23.6959 18.2529 23.1243 18.3721 22.5818 18.3979C21.9818 18.4263 21.6768 18.3313 21.6043 18.2721ZM22.0793 10.5463C22.0695 10.826 22.0402 11.1047 21.9918 11.3804C21.9459 11.6788 21.8984 11.9871 21.8859 12.3613C21.8743 12.7246 21.9193 13.1029 21.9634 13.4696C22.0526 14.2088 22.1434 14.9696 21.7909 15.7204C21.7323 15.6168 21.68 15.5096 21.6343 15.3996C21.5519 15.2241 21.4616 15.0526 21.3634 14.8854C20.8501 13.9654 19.6493 11.8104 20.2634 10.9321C20.5801 10.4796 21.3818 10.4604 22.0793 10.5463ZM22.2693 16.3904C22.2458 16.3606 22.2222 16.3309 22.1984 16.3013L22.1693 16.2646C22.7743 15.2646 22.6559 14.2754 22.5501 13.3988C22.5068 13.0388 22.4668 12.6988 22.4768 12.3804C22.4876 12.0413 22.5318 11.7513 22.5751 11.4704C22.6284 11.1246 22.6834 10.7671 22.6676 10.3454C22.68 10.2936 22.6834 10.2401 22.6776 10.1871C22.6393 9.78209 22.1776 8.57209 21.2359 7.47626C20.6222 6.75299 19.8577 6.17276 18.9959 5.77626C19.551 5.66274 20.117 5.61076 20.6834 5.62126C22.3934 5.65959 23.7459 6.29959 24.7034 7.52376C24.7239 7.55027 24.7425 7.57811 24.7593 7.60709C25.3618 8.73709 24.5284 12.8363 22.2693 16.3904ZM14.9226 11.2938C14.9018 11.4438 14.6643 11.6463 14.4051 11.6463C14.3825 11.6462 14.36 11.6445 14.3376 11.6413C14.1684 11.6116 14.0173 11.5175 13.9159 11.3788C13.8776 11.3288 13.8159 11.2304 13.8276 11.1413C13.8315 11.1164 13.8403 11.0926 13.8536 11.0712C13.8669 11.0499 13.8845 11.0315 13.9051 11.0171C14.0034 10.9429 14.1984 10.9154 14.4134 10.9454C14.6768 10.9821 14.9493 11.1063 14.9226 11.2938ZM21.5309 10.9513C21.5401 11.0179 21.4901 11.1179 21.4034 11.2096C21.3137 11.3073 21.1942 11.3727 21.0634 11.3954C21.0427 11.3983 21.0218 11.3996 21.0009 11.3996C20.7568 11.3996 20.5501 11.2046 20.5343 11.0904C20.5143 10.9429 20.7543 10.8321 21.0009 10.7971C21.2493 10.7621 21.5109 10.8046 21.5309 10.9513Z" fill="white"/>
</g>
</g>
<defs>
<clipPath id="clip0_1147_595">
<rect width="139" height="30" fill="white"/>
</clipPath>
<clipPath id="clip1_1147_595">
<rect width="20" height="20" fill="white" transform="translate(6 5)"/>
</clipPath>
</defs>
</svg>
