<svg width="139" height="30" viewBox="0 0 139 30" fill="none" xmlns="http://www.w3.org/2000/svg">
<g clip-path="url(#clip0_1147_671)">
<rect width="139" height="30" rx="5" fill="#555555"/>
<path d="M103 0H134C136.761 0 139 2.23858 139 5V25C139 27.7614 136.761 30 134 30H103V0Z" fill="#FF6C37"/>
<path d="M30.9325 20V10.5455H34.478C35.2043 10.5455 35.8137 10.6809 36.3061 10.9517C36.8016 11.2225 37.1755 11.5949 37.4279 12.0689C37.6834 12.5398 37.8111 13.0753 37.8111 13.6754C37.8111 14.2817 37.6834 14.8203 37.4279 15.2912C37.1725 15.7621 36.7955 16.1329 36.2969 16.4038C35.7983 16.6715 35.1843 16.8054 34.4549 16.8054H32.1051V15.3974H34.2241C34.6488 15.3974 34.9966 15.3235 35.2674 15.1758C35.5382 15.0281 35.7383 14.8249 35.8675 14.5664C35.9999 14.3079 36.0661 14.0109 36.0661 13.6754C36.0661 13.34 35.9999 13.0445 35.8675 12.7891C35.7383 12.5336 35.5367 12.3351 35.2628 12.1935C34.992 12.0489 34.6426 11.9766 34.2148 11.9766H32.6452V20H30.9325ZM47.7469 15.2727C47.7469 16.2914 47.5561 17.1639 47.1744 17.8903C46.7959 18.6135 46.2789 19.1675 45.6233 19.5522C44.9709 19.9369 44.2307 20.1293 43.4028 20.1293C42.5749 20.1293 41.8332 19.9369 41.1776 19.5522C40.5252 19.1644 40.0081 18.6089 39.6265 17.8857C39.248 17.1593 39.0587 16.2884 39.0587 15.2727C39.0587 14.254 39.248 13.383 39.6265 12.6598C40.0081 11.9335 40.5252 11.378 41.1776 10.9933C41.8332 10.6085 42.5749 10.4162 43.4028 10.4162C44.2307 10.4162 44.9709 10.6085 45.6233 10.9933C46.2789 11.378 46.7959 11.9335 47.1744 12.6598C47.5561 13.383 47.7469 14.254 47.7469 15.2727ZM46.0249 15.2727C46.0249 14.5556 45.9126 13.9509 45.6879 13.4585C45.4664 12.9629 45.1586 12.589 44.7646 12.3366C44.3707 12.0812 43.9168 11.9535 43.4028 11.9535C42.8888 11.9535 42.4349 12.0812 42.0409 12.3366C41.647 12.589 41.3377 12.9629 41.113 13.4585C40.8914 13.9509 40.7806 14.5556 40.7806 15.2727C40.7806 15.9898 40.8914 16.5961 41.113 17.0916C41.3377 17.584 41.647 17.958 42.0409 18.2134C42.4349 18.4658 42.8888 18.592 43.4028 18.592C43.9168 18.592 44.3707 18.4658 44.7646 18.2134C45.1586 17.958 45.4664 17.584 45.6879 17.0916C45.9126 16.5961 46.0249 15.9898 46.0249 15.2727ZM54.5043 13.1445C54.4612 12.7414 54.2796 12.4274 53.9595 12.2028C53.6425 11.9781 53.2301 11.8658 52.7223 11.8658C52.3653 11.8658 52.0591 11.9196 51.8036 12.0273C51.5482 12.1351 51.3527 12.2812 51.2173 12.4659C51.0819 12.6506 51.0127 12.8614 51.0096 13.0984C51.0096 13.2953 51.0542 13.4661 51.1435 13.6108C51.2358 13.7554 51.3604 13.8786 51.5174 13.9801C51.6744 14.0786 51.8482 14.1617 52.0391 14.2294C52.2299 14.2971 52.4222 14.354 52.6161 14.4002L53.5025 14.6218C53.8595 14.7049 54.2027 14.8172 54.532 14.9588C54.8643 15.1004 55.1613 15.2789 55.4229 15.4943C55.6876 15.7098 55.8969 15.9698 56.0508 16.2745C56.2047 16.5792 56.2816 16.9362 56.2816 17.3455C56.2816 17.8995 56.14 18.3873 55.8569 18.8089C55.5737 19.2275 55.1644 19.5553 54.6289 19.7923C54.0965 20.0262 53.4517 20.1431 52.6946 20.1431C51.959 20.1431 51.3204 20.0292 50.7788 19.8015C50.2402 19.5737 49.8185 19.2414 49.5138 18.8043C49.2122 18.3673 49.0491 17.8349 49.0245 17.207H50.7095C50.7341 17.5363 50.8357 17.8103 51.0142 18.0288C51.1927 18.2473 51.4251 18.4104 51.7113 18.5181C52.0006 18.6258 52.3237 18.6797 52.6808 18.6797C53.0531 18.6797 53.3794 18.6243 53.6594 18.5135C53.9426 18.3996 54.1642 18.2427 54.3242 18.0426C54.4843 17.8395 54.5658 17.6025 54.5689 17.3317C54.5658 17.0855 54.4935 16.8823 54.3519 16.7223C54.2103 16.5592 54.0118 16.4238 53.7564 16.3161C53.504 16.2053 53.2086 16.1068 52.87 16.0206L51.7944 15.7436C51.0157 15.5436 50.4002 15.2404 49.9478 14.8342C49.4985 14.4248 49.2738 13.8816 49.2738 13.2045C49.2738 12.6475 49.4246 12.1597 49.7262 11.7411C50.0309 11.3226 50.4448 10.9979 50.968 10.767C51.4912 10.5331 52.0837 10.4162 52.7454 10.4162C53.4163 10.4162 54.0041 10.5331 54.5089 10.767C55.0167 10.9979 55.4152 11.3195 55.7045 11.7319C55.9938 12.1412 56.1431 12.6121 56.1523 13.1445H54.5043ZM57.393 11.9812V10.5455H64.9363V11.9812H62.0141V20H60.3153V11.9812H57.393ZM66.3905 10.5455H68.4864L71.2932 17.3963H71.404L74.2108 10.5455H76.3067V20H74.6633V13.5046H74.5756L71.9626 19.9723H70.7346L68.1217 13.4908H68.034V20H66.3905V10.5455ZM79.3859 20H77.5578L80.8863 10.5455H83.0006L86.3337 20H84.5056L81.9804 12.4844H81.9065L79.3859 20ZM79.4459 16.293H84.4317V17.6687H79.4459V16.293ZM95.3485 10.5455V20H93.8251L89.3702 13.56H89.2917V20H87.579V10.5455H89.1117L93.562 16.9901H93.6451V10.5455H95.3485Z" fill="white"/>
<g clip-path="url(#clip1_1147_671)">
<path d="M17.2725 5.08185C11.7944 4.38185 6.78435 8.24873 6.08185 13.7275C5.38185 19.2056 9.24873 24.2156 14.7275 24.9181C20.2056 25.6181 25.2156 21.7512 25.915 16.2725C26.6181 10.7944 22.7519 5.78435 17.2725 5.08185ZM19.33 11.3219C19.1444 11.3219 18.9681 11.3969 18.8381 11.53L15.1275 15.2375L14.8706 14.9831L14.3362 14.4462C17.9919 10.8006 18.6531 10.7644 19.3294 11.3212L19.33 11.3219ZM15.2806 15.3706L18.9781 11.67C19.0268 11.6192 19.0854 11.5788 19.1502 11.5514C19.215 11.5239 19.2846 11.5099 19.355 11.5102C19.4254 11.5105 19.495 11.5251 19.5595 11.5531C19.6241 11.5811 19.6823 11.6219 19.7306 11.6731C19.7786 11.7243 19.8156 11.7848 19.8394 11.8508C19.8632 11.9168 19.8732 11.987 19.869 12.057C19.8647 12.127 19.8462 12.1955 19.8145 12.2581C19.7829 12.3207 19.7388 12.3762 19.685 12.4212L15.7694 15.8587L15.2806 15.3706ZM15.5544 15.9506L14.6362 16.1487C14.6251 16.1503 14.6138 16.1482 14.604 16.143C14.5941 16.1377 14.5861 16.1294 14.5812 16.1194C14.5762 16.1097 14.5745 16.0987 14.5763 16.088C14.5781 16.0773 14.5833 16.0674 14.5912 16.06L15.1281 15.5231L15.5544 15.9506ZM13.2169 15.5669L14.1969 14.59L14.9294 15.3225L13.2787 15.6769C13.2648 15.6805 13.2501 15.6793 13.237 15.6734C13.2239 15.6675 13.2133 15.6572 13.2069 15.6444C13.1997 15.6322 13.1968 15.6179 13.1986 15.6039C13.2004 15.5899 13.2068 15.5768 13.2169 15.5669ZM10.18 20.615C10.1444 20.6119 10.1175 20.5794 10.1206 20.5469C10.1232 20.532 10.1302 20.5183 10.1406 20.5075H10.1437L10.9312 19.72L11.9506 20.7394L10.18 20.615ZM12.2006 19.5669C12.1632 19.5872 12.1334 19.6192 12.1158 19.658C12.0982 19.6968 12.0937 19.7403 12.1031 19.7819L12.2725 20.5019C12.2994 20.6062 12.1719 20.6769 12.0969 20.5994H12.0937L11.0719 19.5769L14.2069 16.445L15.7237 16.1169L16.4494 16.8462C15.4044 17.7637 13.975 18.6787 12.2012 19.5669H12.2006ZM16.5994 16.7125L15.8994 16.0125L19.815 12.575C19.8506 12.5425 19.8831 12.5069 19.9125 12.4706C19.7925 13.5906 18.2231 15.1725 16.5994 16.7125ZM19.6494 11.3281H19.6462C18.2819 9.95748 20.2094 7.85123 21.6937 9.0881L20.3531 10.4331C20.3437 10.4425 20.3363 10.4536 20.3312 10.4658C20.3261 10.478 20.3235 10.4911 20.3235 10.5044C20.3235 10.5176 20.3261 10.5307 20.3312 10.5429C20.3363 10.5552 20.3437 10.5663 20.3531 10.5756L21.3912 11.615C21.1075 11.7558 20.7866 11.8038 20.474 11.7523C20.1615 11.7008 19.873 11.5524 19.6494 11.3281ZM21.7944 11.3281C21.7264 11.3967 21.6511 11.4576 21.57 11.51L20.5644 10.5044L21.84 9.22498C22.1056 9.5135 22.2492 9.89365 22.2407 10.2857C22.2322 10.6778 22.0722 11.0514 21.7944 11.3281ZM21.7125 10.0425C21.6924 10.0568 21.6773 10.077 21.6692 10.1003C21.6612 10.1236 21.6606 10.1488 21.6675 10.1725C21.6978 10.2322 21.7099 10.2995 21.7023 10.366C21.6948 10.4326 21.6679 10.4954 21.625 10.5469C21.6151 10.5589 21.6077 10.5728 21.6033 10.5877C21.5989 10.6027 21.5976 10.6183 21.5994 10.6338C21.6012 10.6493 21.6061 10.6642 21.6138 10.6777C21.6216 10.6912 21.6319 10.7031 21.6444 10.7125C21.6643 10.7268 21.688 10.7348 21.7125 10.7356C21.7481 10.7356 21.7819 10.7225 21.8006 10.6962C21.8724 10.6099 21.9176 10.5047 21.9309 10.3932C21.9442 10.2818 21.925 10.1689 21.8756 10.0681C21.8667 10.0556 21.8553 10.045 21.8423 10.0369C21.8292 10.0288 21.8146 10.0234 21.7994 10.021C21.7842 10.0186 21.7687 10.0193 21.7538 10.023C21.7389 10.0267 21.7248 10.0333 21.7125 10.0425Z" fill="white"/>
</g>
</g>
<defs>
<clipPath id="clip0_1147_671">
<rect width="139" height="30" fill="white"/>
</clipPath>
<clipPath id="clip1_1147_671">
<rect width="20" height="20" fill="white" transform="translate(6 5)"/>
</clipPath>
</defs>
</svg>
