<svg width="139" height="30" viewBox="0 0 139 30" fill="none" xmlns="http://www.w3.org/2000/svg">
<g clip-path="url(#clip0_1147_681)">
<rect width="139" height="30" rx="5" fill="#555555"/>
<path d="M103 0H134C136.761 0 139 2.23858 139 5V25C139 27.7614 136.761 30 134 30H103V0Z" fill="#20D68B"/>
<path d="M30.9325 20V10.5455H34.478C35.2043 10.5455 35.8137 10.6809 36.3061 10.9517C36.8016 11.2225 37.1755 11.5949 37.4279 12.0689C37.6834 12.5398 37.8111 13.0753 37.8111 13.6754C37.8111 14.2817 37.6834 14.8203 37.4279 15.2912C37.1725 15.7621 36.7955 16.1329 36.2969 16.4038C35.7983 16.6715 35.1843 16.8054 34.4549 16.8054H32.1051V15.3974H34.2241C34.6488 15.3974 34.9966 15.3235 35.2674 15.1758C35.5382 15.0281 35.7383 14.8249 35.8675 14.5664C35.9999 14.3079 36.0661 14.0109 36.0661 13.6754C36.0661 13.34 35.9999 13.0445 35.8675 12.7891C35.7383 12.5336 35.5367 12.3351 35.2628 12.1935C34.992 12.0489 34.6426 11.9766 34.2148 11.9766H32.6452V20H30.9325ZM38.6524 10.5455H40.5867L42.8996 14.728H42.9919L45.3048 10.5455H47.2391L43.7998 16.473V20H42.0917V16.473L38.6524 10.5455ZM56.0115 13.7354H54.285C54.2357 13.4523 54.1449 13.2015 54.0126 12.983C53.8803 12.7614 53.7156 12.5736 53.5186 12.4197C53.3217 12.2659 53.097 12.1504 52.8446 12.0735C52.5953 11.9935 52.3261 11.9535 52.0368 11.9535C51.5228 11.9535 51.0673 12.0827 50.6703 12.3413C50.2733 12.5967 49.9624 12.9722 49.7377 13.4677C49.5131 13.9601 49.4007 14.5618 49.4007 15.2727C49.4007 15.996 49.5131 16.6054 49.7377 17.1009C49.9655 17.5933 50.2763 17.9657 50.6703 18.218C51.0673 18.4673 51.5212 18.592 52.0321 18.592C52.3153 18.592 52.58 18.555 52.8262 18.4812C53.0755 18.4042 53.2986 18.2919 53.4956 18.1442C53.6956 17.9964 53.8633 17.8149 53.9988 17.5994C54.1373 17.384 54.2327 17.1378 54.285 16.8608L56.0115 16.87C55.9469 17.3194 55.8069 17.741 55.5914 18.1349C55.3791 18.5289 55.1006 18.8767 54.7559 19.1783C54.4112 19.4768 54.008 19.7107 53.5463 19.88C53.0847 20.0462 52.5723 20.1293 52.0091 20.1293C51.1781 20.1293 50.4364 19.9369 49.7839 19.5522C49.1315 19.1675 48.6175 18.612 48.242 17.8857C47.8665 17.1593 47.6788 16.2884 47.6788 15.2727C47.6788 14.254 47.8681 13.383 48.2466 12.6598C48.6252 11.9335 49.1407 11.378 49.7931 10.9933C50.4456 10.6085 51.1842 10.4162 52.0091 10.4162C52.5353 10.4162 53.0247 10.4901 53.4771 10.6378C53.9295 10.7855 54.3327 11.0025 54.6866 11.2887C55.0405 11.5719 55.3314 11.9196 55.5591 12.332C55.79 12.7414 55.9408 13.2092 56.0115 13.7354ZM57.58 20V10.5455H59.2927V14.5479H63.6737V10.5455H65.3911V20H63.6737V15.9837H59.2927V20H57.58ZM68.468 20H66.6398L69.9683 10.5455H72.0827L75.4157 20H73.5876L71.0624 12.4844H70.9885L68.468 20ZM68.528 16.293H73.5138V17.6687H68.528V16.293ZM76.661 20V10.5455H80.2065C80.9328 10.5455 81.5422 10.6716 82.0346 10.924C82.5301 11.1764 82.9041 11.5303 83.1564 11.9858C83.4119 12.4382 83.5396 12.966 83.5396 13.5692C83.5396 14.1755 83.4103 14.7018 83.1518 15.1481C82.8964 15.5913 82.5194 15.9344 82.0208 16.1776C81.5222 16.4176 80.9097 16.5376 80.1834 16.5376H77.6582V15.1158H79.9526C80.3773 15.1158 80.7251 15.0573 80.9959 14.9403C81.2667 14.8203 81.4668 14.6464 81.5961 14.4187C81.7284 14.1879 81.7946 13.9047 81.7946 13.5692C81.7946 13.2338 81.7284 12.9476 81.5961 12.7106C81.4637 12.4705 81.2621 12.2889 80.9913 12.1658C80.7205 12.0397 80.3712 11.9766 79.9434 11.9766H78.3738V20H76.661ZM81.5453 15.7159L83.8858 20H81.9746L79.6756 15.7159H81.5453ZM85.1161 10.5455H87.212L90.0188 17.3963H90.1296L92.9364 10.5455H95.0323V20H93.3888V13.5046H93.3011L90.6882 19.9723H89.4602L86.8473 13.4908H86.7596V20H85.1161V10.5455Z" fill="white"/>
<g clip-path="url(#clip1_1147_681)">
<path d="M12.5275 10.555V10.5092C12.5275 9.67583 11.9717 9.25917 11.0458 9.25917H9.6575V11.805H11.0933C12.0192 11.805 12.5275 11.25 12.5275 10.555ZM6 5V25H26V5H6ZM7.8525 7.63917H11.1858C13.1767 7.63917 14.38 8.79667 14.38 10.51V10.5558C14.38 12.4542 12.8983 13.4725 11.0458 13.4725H9.6575V15.9267H7.8525V7.63917ZM15.3975 22.5H7.8975V21.25H15.3975V22.5ZM19.38 16.0192C16.9267 16.065 15.1208 14.1667 15.1208 11.805C15.12 9.44417 16.88 7.5 19.4258 7.5C21 7.5 21.9258 8.00917 22.7125 8.79667L21.555 10.1383C20.9067 9.53667 20.2583 9.2125 19.425 9.2125C18.0433 9.2125 17.0308 10.3583 17.0192 11.7825C17.0308 13.2067 17.9975 14.3517 19.425 14.3517C20.3508 14.3517 20.9525 13.9808 21.6 13.3792L22.7583 14.5367C21.9258 15.4633 20.9533 16.0192 19.38 16.0192Z" fill="white"/>
</g>
</g>
<defs>
<clipPath id="clip0_1147_681">
<rect width="139" height="30" fill="white"/>
</clipPath>
<clipPath id="clip1_1147_681">
<rect width="20" height="20" fill="white" transform="translate(6 5)"/>
</clipPath>
</defs>
</svg>
