<svg width="140" height="30" viewBox="0 0 140 30" fill="none" xmlns="http://www.w3.org/2000/svg">
<g clip-path="url(#clip0_1147_481)">
<rect width="140" height="30" rx="5" fill="#555555"/>
<path d="M103 0H135C137.761 0 140 2.23858 140 5V25C140 27.7614 137.761 30 135 30H103V0Z" fill="#4B6C9C"/>
<path d="M31.2784 21V9.36364H35.4261C36.3314 9.36364 37.0814 9.52841 37.6761 9.85795C38.2708 10.1875 38.7159 10.6383 39.0114 11.2102C39.3068 11.7784 39.4545 12.4186 39.4545 13.1307C39.4545 13.8466 39.3049 14.4905 39.0057 15.0625C38.7102 15.6307 38.2633 16.0814 37.6648 16.4148C37.0701 16.7443 36.322 16.9091 35.4205 16.9091H32.5682V15.4205H35.2614C35.8333 15.4205 36.2973 15.322 36.6534 15.125C37.0095 14.9242 37.2708 14.6515 37.4375 14.3068C37.6042 13.9621 37.6875 13.5701 37.6875 13.1307C37.6875 12.6913 37.6042 12.3011 37.4375 11.9602C37.2708 11.6193 37.0076 11.3523 36.6477 11.1591C36.2917 10.9659 35.822 10.8693 35.2386 10.8693H33.0341V21H31.2784ZM40.6151 9.36364H42.6094L45.6491 14.6534H45.7741L48.8139 9.36364H50.8082L46.5866 16.4318V21H44.8366V16.4318L40.6151 9.36364ZM52.6264 10.875V9.36364H61.6321V10.875H58.0014V21H56.2514V10.875H52.6264ZM63.6222 21V9.36364H65.3778V14.4205H71.179V9.36364H72.9403V21H71.179V15.9261H65.3778V21H63.6222ZM85.6051 15.1818C85.6051 16.4242 85.3778 17.4924 84.9233 18.3864C84.4688 19.2765 83.8456 19.9621 83.054 20.4432C82.2661 20.9205 81.3703 21.1591 80.3665 21.1591C79.3589 21.1591 78.4593 20.9205 77.6676 20.4432C76.8797 19.9621 76.2585 19.2746 75.804 18.3807C75.3494 17.4867 75.1222 16.4205 75.1222 15.1818C75.1222 13.9394 75.3494 12.8731 75.804 11.983C76.2585 11.089 76.8797 10.4034 77.6676 9.92614C78.4593 9.44508 79.3589 9.20455 80.3665 9.20455C81.3703 9.20455 82.2661 9.44508 83.054 9.92614C83.8456 10.4034 84.4688 11.089 84.9233 11.983C85.3778 12.8731 85.6051 13.9394 85.6051 15.1818ZM83.8665 15.1818C83.8665 14.2348 83.7131 13.4375 83.4062 12.7898C83.1032 12.1383 82.6866 11.6458 82.1562 11.3125C81.6297 10.9754 81.0331 10.8068 80.3665 10.8068C79.696 10.8068 79.0975 10.9754 78.571 11.3125C78.0445 11.6458 77.6278 12.1383 77.321 12.7898C77.018 13.4375 76.8665 14.2348 76.8665 15.1818C76.8665 16.1288 77.018 16.928 77.321 17.5795C77.6278 18.2273 78.0445 18.7197 78.571 19.0568C79.0975 19.3902 79.696 19.5568 80.3665 19.5568C81.0331 19.5568 81.6297 19.3902 82.1562 19.0568C82.6866 18.7197 83.1032 18.2273 83.4062 17.5795C83.7131 16.928 83.8665 16.1288 83.8665 15.1818ZM97.1861 9.36364V21H95.5724L89.6577 12.4659H89.5497V21H87.794V9.36364H89.419L95.3395 17.9091H95.4474V9.36364H97.1861Z" fill="white"/>
<path d="M22.2833 11.1667C22.9154 11.1667 23.5216 11.4178 23.9686 11.8647C24.4156 12.3117 24.6667 12.9179 24.6667 13.55V16.7C24.6667 17.013 24.605 17.3229 24.4852 17.6121C24.3655 17.9012 24.1899 18.164 23.9686 18.3853C23.7473 18.6066 23.4846 18.7821 23.1954 18.9019C22.9062 19.0217 22.5963 19.0833 22.2833 19.0833H16.3333C16.3333 19.4083 16.6 19.8833 16.925 19.8833H20.5V21.2833C20.5 21.9154 20.2489 22.5216 19.8019 22.9686C19.355 23.4156 18.7488 23.6667 18.1167 23.6667H14.55C13.9179 23.6667 13.3117 23.4156 12.8647 22.9686C12.4178 22.5216 12.1667 21.9154 12.1667 21.2833V18.1583C12.1667 17.8457 12.2284 17.5362 12.3482 17.2475C12.4681 16.9588 12.6438 16.6967 12.8652 16.476C13.0867 16.2554 13.3495 16.0806 13.6386 15.9617C13.9277 15.8429 14.2374 15.7822 14.55 15.7833H18.925C19.2376 15.7833 19.5471 15.7216 19.8358 15.6018C20.1245 15.4819 20.3867 15.3062 20.6073 15.0848C20.828 14.8633 21.0027 14.6005 21.1216 14.3114C21.2405 14.0223 21.3011 13.7126 21.3 13.4V11.1667H22.2833ZM18.7167 20.9917C18.3833 20.9917 18.1167 21.2417 18.1167 21.7333C18.1167 22.225 18.3833 22.325 18.7167 22.325C18.7944 22.325 18.8713 22.3097 18.9431 22.28C19.0149 22.2502 19.0801 22.2066 19.135 22.1517C19.19 22.0968 19.2336 22.0315 19.2633 21.9598C19.293 21.888 19.3083 21.811 19.3083 21.7333C19.3083 21.2417 19.0417 20.9917 18.7167 20.9917ZM10.3833 19.5C9.75123 19.5 9.14502 19.2489 8.69806 18.8019C8.2511 18.355 8 17.7488 8 17.1167V13.9667C8 13.6537 8.06165 13.3438 8.18142 13.0546C8.30119 12.7654 8.47675 12.5027 8.69806 12.2814C9.14502 11.8344 9.75123 11.5833 10.3833 11.5833H16.3333C16.3333 11.2583 16.0667 10.7833 15.7417 10.7833H12.1667V9.38333C12.1667 8.75123 12.4178 8.14502 12.8647 7.69806C13.3117 7.2511 13.9179 7 14.55 7H18.1167C18.4297 7 18.7396 7.06165 19.0287 7.18142C19.3179 7.30119 19.5806 7.47675 19.8019 7.69806C20.0233 7.91938 20.1988 8.18211 20.3186 8.47127C20.4384 8.76043 20.5 9.07035 20.5 9.38333V12.5083C20.5 12.8209 20.4383 13.1304 20.3184 13.4191C20.1985 13.7078 20.0229 13.97 19.8014 14.1907C19.58 14.4113 19.3172 14.5861 19.0281 14.7049C18.739 14.8238 18.4293 14.8844 18.1167 14.8833H13.7417C13.4291 14.8833 13.1196 14.945 12.8309 15.0649C12.5422 15.1848 12.28 15.3605 12.0593 15.5819C11.8387 15.8033 11.6639 16.0661 11.5451 16.3552C11.4262 16.6443 11.3656 16.9541 11.3667 17.2667V19.5H10.3833ZM13.95 9.675C14.2833 9.675 14.55 9.425 14.55 8.93333C14.55 8.44167 14.2833 8.34167 13.95 8.34167C13.625 8.34167 13.3583 8.44167 13.3583 8.93333C13.3583 9.425 13.625 9.675 13.95 9.675Z" fill="white"/>
</g>
<defs>
<clipPath id="clip0_1147_481">
<rect width="140" height="30" fill="white"/>
</clipPath>
</defs>
</svg>
