<svg width="139" height="30" viewBox="0 0 139 30" fill="none" xmlns="http://www.w3.org/2000/svg">
<g clip-path="url(#clip0_1147_748)">
<rect width="139" height="30" rx="5" fill="#555555"/>
<path d="M103 0H134C136.761 0 139 2.23858 139 5V25C139 27.7614 136.761 30 134 30H103V0Z" fill="#BC1142"/>
<path d="M30.8608 19V10.2727H34.1335C34.804 10.2727 35.3665 10.3892 35.821 10.6222C36.2784 10.8551 36.6236 11.1818 36.8565 11.6023C37.0923 12.0199 37.2102 12.5071 37.2102 13.0639C37.2102 13.6236 37.0909 14.1094 36.8523 14.5213C36.6165 14.9304 36.2685 15.2472 35.8082 15.4716C35.348 15.6932 34.7827 15.804 34.1122 15.804H31.7812V14.4915H33.8991C34.2912 14.4915 34.6122 14.4375 34.8622 14.3295C35.1122 14.2187 35.2969 14.0582 35.4162 13.848C35.5384 13.6349 35.5994 13.3736 35.5994 13.0639C35.5994 12.7543 35.5384 12.4901 35.4162 12.2713C35.294 12.0497 35.108 11.8821 34.858 11.7685C34.608 11.652 34.2855 11.5938 33.8906 11.5938H32.4418V19H30.8608ZM35.3693 15.0455L37.5298 19H35.7656L33.6435 15.0455H35.3693ZM39.7862 19H38.0987L41.1712 10.2727H43.1229L46.1996 19H44.5121L42.1811 12.0625H42.1129L39.7862 19ZM39.8416 15.5781H44.4439V16.848H39.8416V15.5781ZM51.9513 12.6719C51.9116 12.2997 51.744 12.0099 51.4485 11.8026C51.1559 11.5952 50.7752 11.4915 50.3065 11.4915C49.9769 11.4915 49.6942 11.5412 49.4585 11.6406C49.2227 11.7401 49.0423 11.875 48.9173 12.0455C48.7923 12.2159 48.7283 12.4105 48.7255 12.6293C48.7255 12.8111 48.7667 12.9687 48.8491 13.1023C48.9343 13.2358 49.0494 13.3494 49.1942 13.4432C49.3391 13.5341 49.4996 13.6108 49.6758 13.6733C49.8519 13.7358 50.0295 13.7884 50.2085 13.831L51.0266 14.0355C51.3562 14.1122 51.6729 14.2159 51.9769 14.3466C52.2837 14.4773 52.5579 14.642 52.7994 14.8409C53.0437 15.0398 53.2369 15.2798 53.3789 15.5611C53.521 15.8423 53.592 16.1719 53.592 16.5497C53.592 17.0611 53.4613 17.5114 53.1999 17.9006C52.9386 18.2869 52.5607 18.5895 52.0664 18.8082C51.5749 19.0241 50.9798 19.1321 50.2809 19.1321C49.6019 19.1321 49.0124 19.027 48.5124 18.8168C48.0153 18.6065 47.6261 18.2997 47.3448 17.8963C47.0664 17.4929 46.9158 17.0014 46.8931 16.4219H48.4485C48.4712 16.7259 48.565 16.9787 48.7298 17.1804C48.8945 17.3821 49.109 17.5327 49.3732 17.6321C49.6403 17.7315 49.9386 17.7812 50.2681 17.7812C50.6119 17.7812 50.913 17.7301 51.1715 17.6278C51.4329 17.5227 51.6374 17.3778 51.7852 17.1932C51.9329 17.0057 52.0082 16.7869 52.011 16.5369C52.0082 16.3097 51.9414 16.1222 51.8107 15.9744C51.68 15.8239 51.4968 15.6989 51.261 15.5994C51.0281 15.4972 50.7553 15.4062 50.4428 15.3267L49.4499 15.071C48.7312 14.8864 48.163 14.6065 47.7454 14.2315C47.3306 13.8537 47.1232 13.3523 47.1232 12.7273C47.1232 12.2131 47.2624 11.7628 47.5408 11.3764C47.8221 10.9901 48.2042 10.6903 48.6871 10.4773C49.1701 10.2614 49.717 10.1534 50.3278 10.1534C50.9471 10.1534 51.4897 10.2614 51.9556 10.4773C52.4244 10.6903 52.7923 10.9872 53.0593 11.3679C53.3263 11.7457 53.4641 12.1804 53.4727 12.6719H51.9513ZM55.0014 19V10.2727H58.2741C58.9446 10.2727 59.5071 10.3977 59.9616 10.6477C60.419 10.8977 60.7642 11.2415 60.9972 11.679C61.233 12.1136 61.3509 12.608 61.3509 13.1619C61.3509 13.7216 61.233 14.2187 60.9972 14.6534C60.7614 15.0881 60.4134 15.4304 59.9531 15.6804C59.4929 15.9276 58.9261 16.0511 58.2528 16.0511H56.0838V14.7514H58.0398C58.4318 14.7514 58.7528 14.6832 59.0028 14.5469C59.2528 14.4105 59.4375 14.223 59.5568 13.9844C59.679 13.7457 59.7401 13.4716 59.7401 13.1619C59.7401 12.8523 59.679 12.5795 59.5568 12.3438C59.4375 12.108 59.2514 11.9247 58.9986 11.794C58.7486 11.6605 58.4261 11.5938 58.0312 11.5938H56.5824V19H55.0014ZM62.7241 19V10.2727H66.065C66.6957 10.2727 67.2198 10.3722 67.6374 10.571C68.0579 10.767 68.3718 11.0355 68.5792 11.3764C68.7894 11.7173 68.8945 12.1037 68.8945 12.5355C68.8945 12.8906 68.8263 13.1946 68.69 13.4474C68.5536 13.6974 68.3704 13.9006 68.1403 14.0568C67.9102 14.2131 67.6531 14.3253 67.369 14.3935V14.4787C67.6786 14.4957 67.9755 14.5909 68.2596 14.7642C68.5465 14.9347 68.7809 15.1761 68.9627 15.4886C69.1445 15.8011 69.2354 16.179 69.2354 16.6222C69.2354 17.0739 69.1261 17.4801 68.9073 17.8409C68.6886 18.1989 68.359 18.4815 67.9187 18.6889C67.4783 18.8963 66.9244 19 66.2567 19H62.7241ZM64.305 17.679H66.0053C66.5792 17.679 66.9925 17.5696 67.2454 17.3509C67.5011 17.1293 67.6289 16.8452 67.6289 16.4986C67.6289 16.2401 67.565 16.0071 67.4371 15.7997C67.3093 15.5895 67.1275 15.4247 66.8917 15.3054C66.6559 15.1832 66.3746 15.1222 66.0479 15.1222H64.305V17.679ZM64.305 13.9844H65.869C66.1417 13.9844 66.3874 13.9347 66.6062 13.8352C66.8249 13.733 66.9968 13.5895 67.1218 13.4048C67.2496 13.2173 67.3136 12.9957 67.3136 12.7401C67.3136 12.402 67.1942 12.1236 66.9556 11.9048C66.7198 11.6861 66.369 11.5767 65.9031 11.5767H64.305V13.9844ZM70.6108 19V10.2727H76.2869V11.598H72.1918V13.9673H75.9929V15.2926H72.1918V17.6747H76.321V19H70.6108ZM77.8999 19V10.2727H81.1726C81.843 10.2727 82.4055 10.3892 82.8601 10.6222C83.3175 10.8551 83.6626 11.1818 83.8956 11.6023C84.1314 12.0199 84.2493 12.5071 84.2493 13.0639C84.2493 13.6236 84.13 14.1094 83.8913 14.5213C83.6555 14.9304 83.3075 15.2472 82.8473 15.4716C82.3871 15.6932 81.8217 15.804 81.1513 15.804H78.8203V14.4915H80.9382C81.3303 14.4915 81.6513 14.4375 81.9013 14.3295C82.1513 14.2187 82.3359 14.0582 82.4553 13.848C82.5774 13.6349 82.6385 13.3736 82.6385 13.0639C82.6385 12.7543 82.5774 12.4901 82.4553 12.2713C82.3331 12.0497 82.147 11.8821 81.897 11.7685C81.647 11.652 81.3246 11.5938 80.9297 11.5938H79.4808V19H77.8999ZM82.4084 15.0455L84.5689 19H82.8047L80.6825 15.0455H82.4084ZM85.7045 19V10.2727H88.9773C89.6477 10.2727 90.2102 10.3892 90.6648 10.6222C91.1222 10.8551 91.4673 11.1818 91.7003 11.6023C91.9361 12.0199 92.054 12.5071 92.054 13.0639C92.054 13.6236 91.9347 14.1094 91.696 14.5213C91.4602 14.9304 91.1122 15.2472 90.652 15.4716C90.1918 15.6932 89.6264 15.804 88.956 15.804H86.625V14.4915H88.7429C89.1349 14.4915 89.456 14.4375 89.706 14.3295C89.956 14.2187 90.1406 14.0582 90.2599 13.848C90.3821 13.6349 90.4432 13.3736 90.4432 13.0639C90.4432 12.7543 90.3821 12.4901 90.2599 12.2713C90.1378 12.0497 89.9517 11.8821 89.7017 11.7685C89.4517 11.652 89.1293 11.5938 88.7344 11.5938H87.2855V19H85.7045ZM90.2131 15.0455L92.3736 19H90.6094L88.4872 15.0455H90.2131ZM92.5728 10.2727H94.3583L96.4933 14.1335H96.5785L98.7134 10.2727H100.499L97.3242 15.7443V19H95.7475V15.7443L92.5728 10.2727Z" fill="white"/>
<g clip-path="url(#clip1_1147_748)">
<path fill-rule="evenodd" clip-rule="evenodd" d="M12.7393 5.00021C12.6162 5.00791 12.4993 5.05628 12.4068 5.13771C12.1043 5.02104 11.8093 4.97938 11.5468 5.21771C11.1418 5.16521 11.0109 5.27354 10.9118 5.40104C10.8226 5.39854 10.2451 5.30938 9.98093 5.70438C9.31593 5.62521 9.10676 6.09604 9.34509 6.53271C9.20926 6.74354 9.06843 6.94938 9.38509 7.35021C9.27343 7.57354 9.34343 7.81521 9.60759 8.10854C9.53759 8.42188 9.67509 8.64271 9.92093 8.81521C9.87509 9.24438 10.3143 9.49438 10.4451 9.58354C10.4951 9.83354 10.6009 10.0702 11.1034 10.2002C11.1859 10.5727 11.4868 10.6377 11.7793 10.716C10.8134 11.2769 9.98509 12.0144 9.99093 13.8269L9.84926 14.0794C8.74259 14.7527 7.74593 16.9177 9.30426 18.6777C9.40593 19.2277 9.57593 19.6227 9.72759 20.061C9.95509 21.8252 11.4393 22.6527 11.8301 22.7502C12.4034 23.1869 13.0151 23.6002 13.8409 23.891C14.6201 24.6944 15.4626 25.0002 16.3451 25.0002C17.2276 25.0002 18.0701 24.6944 18.8493 23.891C19.6759 23.601 20.2868 23.1869 20.8601 22.7494C21.2518 22.6519 22.7351 21.8244 22.9626 20.061C23.1143 19.6227 23.2843 19.2277 23.3859 18.6777C24.9443 16.9177 23.9476 14.7527 22.8401 14.0794L22.6993 13.8269C22.7051 12.0144 21.8768 11.2769 20.9109 10.716C21.2026 10.6377 21.5043 10.5727 21.5876 10.2002C22.0893 10.0702 22.1951 9.83354 22.2459 9.58354C22.3768 9.49438 22.8151 9.24438 22.7693 8.81521C23.0151 8.64271 23.1526 8.42188 23.0826 8.10854C23.3476 7.81521 23.4176 7.57354 23.3051 7.35021C23.6218 6.95021 23.4818 6.74354 23.3459 6.53354C23.5834 6.09521 23.3743 5.62521 22.7101 5.70438C22.4451 5.30938 21.8684 5.39854 21.7793 5.40021C21.6793 5.27354 21.5484 5.16521 21.1434 5.21688C20.8809 4.98021 20.5859 5.02104 20.2834 5.13771C20.1911 5.05645 20.0745 5.00809 19.9518 5.00021C19.7584 4.99438 19.5934 5.11188 19.4159 5.16854C18.9801 5.02688 18.8818 5.21938 18.6676 5.29854C18.1934 5.19854 18.0493 5.41771 17.8218 5.64854L17.5551 5.64271C16.8401 6.06438 16.4868 6.92188 16.3451 6.92188C16.2034 6.92188 15.8501 6.06438 15.1343 5.64271L14.8684 5.64771C14.6418 5.41771 14.4968 5.19854 14.0226 5.29854C13.8084 5.21938 13.7101 5.02604 13.2751 5.16854C13.0968 5.11188 12.9318 4.99438 12.7393 5.00021ZM12.7643 5.50771C13.1276 5.64188 13.3168 5.81604 13.5143 5.98688C13.5809 5.89688 13.6826 5.83021 13.5576 5.61188C13.8159 5.76188 14.0109 5.93688 14.1551 6.13271C14.3143 6.03104 14.2484 5.89354 14.2493 5.76521C14.5176 5.98354 14.6893 6.21521 14.8976 6.44188C14.9393 6.41104 14.9751 6.30688 15.0076 6.14354C15.6476 6.76354 16.5509 8.32688 15.2401 8.94771C14.1243 8.02771 12.7918 7.35854 11.3168 6.85688C13.2143 7.83521 14.3184 8.62604 14.9226 9.30021C14.6134 10.5419 12.9976 10.6002 12.4068 10.5652C12.5276 10.5085 12.6284 10.4402 12.6651 10.336C12.5159 10.2302 11.9901 10.3252 11.6234 10.1194C11.7651 10.0894 11.8309 10.0619 11.8968 9.95771C11.5501 9.84771 11.1768 9.75104 10.9568 9.56771C11.0759 9.56938 11.1859 9.59521 11.3401 9.48854C11.0301 9.32104 10.6984 9.18854 10.4418 8.93188C10.6026 8.92854 10.7751 8.93021 10.8251 8.87104C10.559 8.70889 10.3159 8.51155 10.1026 8.28438C10.3276 8.31188 10.4209 8.28938 10.4759 8.25104C10.2609 8.03021 9.99009 7.84521 9.86009 7.57438C10.0268 7.63188 10.1793 7.65188 10.2893 7.56771C10.2159 7.40271 9.90259 7.30604 9.72259 6.92104C9.89843 6.93771 10.0859 6.95938 10.1226 6.92104C10.0418 6.58938 9.90259 6.40271 9.76509 6.20938C10.1409 6.20354 10.7101 6.21021 10.6843 6.17854L10.4518 5.94104C10.8184 5.84271 11.1951 5.95771 11.4676 6.04271C11.5901 5.94688 11.4643 5.82354 11.3151 5.69854C11.6268 5.74021 11.9093 5.81188 12.1643 5.91104C12.3001 5.78771 12.0743 5.66604 11.9659 5.54188C12.4476 5.63354 12.6534 5.76104 12.8559 5.88938C13.0034 5.74854 12.8643 5.62938 12.7643 5.50604V5.50771ZM19.9259 5.50771C19.8259 5.63021 19.6868 5.74938 19.8343 5.89104C20.0376 5.76188 20.2426 5.63438 20.7243 5.54271C20.6159 5.66604 20.3901 5.78771 20.5259 5.91104C20.7998 5.80673 21.0852 5.73539 21.3759 5.69854C21.2259 5.82354 21.1009 5.94688 21.2226 6.04271C21.4959 5.95771 21.8718 5.84271 22.2393 5.94104L22.0059 6.17854C21.9809 6.21021 22.5493 6.20354 22.9251 6.20938C22.7876 6.40271 22.6493 6.58938 22.5668 6.92104C22.6043 6.95938 22.7918 6.93771 22.9668 6.92104C22.7876 7.30604 22.4743 7.40271 22.4009 7.56771C22.5109 7.65188 22.6634 7.63188 22.8301 7.57438C22.7009 7.84521 22.4301 8.03021 22.2151 8.25021C22.2693 8.28938 22.3634 8.31188 22.5876 8.28438C22.3745 8.5115 22.1318 8.70883 21.8659 8.87104C21.9159 8.92938 22.0884 8.92854 22.2493 8.93188C21.9909 9.18771 21.6609 9.32104 21.3501 9.48854C21.5051 9.59521 21.6151 9.56938 21.7334 9.56771C21.5134 9.75104 21.1409 9.84771 20.7943 9.95771C20.8601 10.0619 20.9259 10.0894 21.0668 10.1185C20.7001 10.3252 20.1743 10.2302 20.0259 10.3352C20.0618 10.4394 20.1626 10.5085 20.2843 10.5652C19.6926 10.5994 18.0776 10.541 17.7676 9.30021C18.3726 8.62521 19.4759 7.83521 21.3743 6.85688C19.8976 7.35854 18.5659 8.02771 17.4509 8.94771C16.1393 8.32771 17.0426 6.76438 17.6826 6.14354C17.7159 6.30688 17.7509 6.41021 17.7934 6.44188C18.0018 6.21521 18.1726 5.98354 18.4409 5.76521C18.4409 5.89354 18.3759 6.03188 18.5359 6.13271C18.6793 5.93688 18.8743 5.76104 19.1326 5.61271C19.0076 5.82938 19.1101 5.89688 19.1768 5.98771C19.3734 5.81521 19.5626 5.64188 19.9259 5.50771ZM16.3451 10.6419C17.4776 10.6419 18.4218 11.411 18.4234 11.8635C18.4268 12.4302 17.5951 13.0135 16.3601 13.0285H16.3301C15.0951 13.0135 14.2634 12.431 14.2668 11.8635C14.2693 11.411 15.2134 10.6419 16.3451 10.6419ZM13.1676 11.0144H13.2376C13.4209 11.0144 13.6101 11.031 13.8018 11.0635C14.4493 11.1719 10.7018 14.4452 10.6434 13.7152C10.5918 12.046 11.7084 11.0377 13.1684 11.0144H13.1676ZM19.4526 11.0144H19.5226C20.9818 11.0377 22.0984 12.046 22.0476 13.7144C21.9893 14.4452 18.2418 11.1727 18.8884 11.0635C19.0801 11.0302 19.2693 11.016 19.4526 11.0144ZM13.7651 13.0977C13.9809 13.096 14.1993 13.1277 14.4126 13.1994C15.5484 13.581 16.1226 14.9102 15.6959 16.166C15.2684 17.4235 14.0009 18.1327 12.8643 17.7519C11.7284 17.3702 11.1543 16.041 11.5809 14.7852C11.9284 13.7635 12.8301 13.1044 13.7651 13.0977ZM18.9259 13.0977C19.8609 13.1044 20.7626 13.7644 21.1093 14.7844C21.5368 16.041 20.9626 17.3702 19.8259 17.751C18.6893 18.1335 17.4218 17.4235 16.9943 16.1669C16.5676 14.9102 17.1418 13.581 18.2776 13.2002C18.4909 13.1277 18.7101 13.096 18.9259 13.0977ZM10.4418 14.5002C11.3268 14.5127 10.6693 18.7102 9.86676 18.3535C8.95676 17.621 8.66343 15.4777 10.3518 14.5135C10.3741 14.5073 10.397 14.5034 10.4201 14.5019L10.4418 14.5002ZM22.2484 14.5002L22.2709 14.5019C22.2938 14.5035 22.3164 14.5074 22.3384 14.5135C24.0268 15.4777 23.7343 17.6219 22.8234 18.3535C22.0209 18.7102 21.3634 14.5127 22.2484 14.5002ZM16.3451 17.4019C16.9197 17.3974 17.4758 17.6051 17.9068 17.9852C18.3401 18.3769 18.5918 18.9352 18.5884 19.4944C18.5884 20.0444 18.3426 20.5885 17.9218 20.976C17.4884 21.366 16.928 21.5849 16.3451 21.5919C15.7622 21.5846 15.2019 21.3657 14.7684 20.976C14.5617 20.7879 14.3959 20.5593 14.2812 20.3044C14.1665 20.0496 14.1055 19.7738 14.1018 19.4944C14.1041 19.2094 14.1659 18.928 14.2833 18.6682C14.4007 18.4085 14.571 18.1761 14.7834 17.986C15.2142 17.6057 15.7704 17.3979 16.3451 17.4027V17.4019ZM11.1234 18.5002C11.7093 18.4885 12.4301 18.951 13.0134 19.6277C13.6634 20.411 13.9601 21.7885 13.4176 22.1944C12.9034 22.5044 11.6551 22.376 10.7693 21.1027C10.1709 20.0344 10.2493 18.9469 10.6693 18.6277C10.8059 18.5444 10.9593 18.5035 11.1234 18.5002ZM21.5109 18.5002H21.5668C21.7309 18.5035 21.8834 18.5435 22.0218 18.6277C22.4409 18.9469 22.5193 20.0344 21.9218 21.1027C21.0351 22.376 19.7868 22.5044 19.2734 22.1944C18.7301 21.7885 19.0259 20.411 19.6768 19.6277C20.2418 18.9719 20.9351 18.5169 21.5109 18.5002ZM16.3451 22.2535C17.2534 22.2435 18.6034 22.626 18.5868 23.1135C18.6009 23.451 17.4934 24.4252 16.3643 24.3769H16.3268C15.1968 24.4252 14.0893 23.4519 14.1043 23.1135C14.0876 22.626 15.4376 22.2435 16.3459 22.2535H16.3451Z" fill="white"/>
</g>
</g>
<defs>
<clipPath id="clip0_1147_748">
<rect width="139" height="30" fill="white"/>
</clipPath>
<clipPath id="clip1_1147_748">
<rect width="20" height="20" fill="white" transform="translate(6 5)"/>
</clipPath>
</defs>
</svg>
