<svg width="139" height="30" viewBox="0 0 139 30" fill="none" xmlns="http://www.w3.org/2000/svg">
<g clip-path="url(#clip0_1332_558)">
<rect width="139" height="30" rx="5" fill="#555555"/>
<path d="M35.6037 12.6719C35.5639 12.2997 35.3963 12.0099 35.1009 11.8026C34.8082 11.5952 34.4276 11.4915 33.9588 11.4915C33.6293 11.4915 33.3466 11.5412 33.1108 11.6406C32.875 11.7401 32.6946 11.875 32.5696 12.0455C32.4446 12.2159 32.3807 12.4105 32.3778 12.6293C32.3778 12.8111 32.419 12.9687 32.5014 13.1023C32.5866 13.2358 32.7017 13.3494 32.8466 13.4432C32.9915 13.5341 33.152 13.6108 33.3281 13.6733C33.5043 13.7358 33.6818 13.7884 33.8608 13.831L34.679 14.0355C35.0085 14.1122 35.3253 14.2159 35.6293 14.3466C35.9361 14.4773 36.2102 14.642 36.4517 14.8409C36.696 15.0398 36.8892 15.2798 37.0312 15.5611C37.1733 15.8423 37.2443 16.1719 37.2443 16.5497C37.2443 17.0611 37.1136 17.5114 36.8523 17.9006C36.5909 18.2869 36.2131 18.5895 35.7188 18.8082C35.2273 19.0241 34.6321 19.1321 33.9332 19.1321C33.2543 19.1321 32.6648 19.027 32.1648 18.8168C31.6676 18.6065 31.2784 18.2997 30.9972 17.8963C30.7188 17.4929 30.5682 17.0014 30.5455 16.4219H32.1009C32.1236 16.7259 32.2173 16.9787 32.3821 17.1804C32.5469 17.3821 32.7614 17.5327 33.0256 17.6321C33.2926 17.7315 33.5909 17.7812 33.9205 17.7812C34.2642 17.7812 34.5653 17.7301 34.8239 17.6278C35.0852 17.5227 35.2898 17.3778 35.4375 17.1932C35.5852 17.0057 35.6605 16.7869 35.6634 16.5369C35.6605 16.3097 35.5938 16.1222 35.4631 15.9744C35.3324 15.8239 35.1491 15.6989 34.9134 15.5994C34.6804 15.4972 34.4077 15.4062 34.0952 15.3267L33.1023 15.071C32.3835 14.8864 31.8153 14.6065 31.3977 14.2315C30.983 13.8537 30.7756 13.3523 30.7756 12.7273C30.7756 12.2131 30.9148 11.7628 31.1932 11.3764C31.4744 10.9901 31.8565 10.6903 32.3395 10.4773C32.8224 10.2614 33.3693 10.1534 33.9801 10.1534C34.5994 10.1534 35.142 10.2614 35.608 10.4773C36.0767 10.6903 36.4446 10.9872 36.7116 11.3679C36.9787 11.7457 37.1165 12.1804 37.125 12.6719H35.6037ZM40.1282 15.1648V19H38.5856V10.2727H40.0941V13.5668H40.1708C40.3242 13.1974 40.5614 12.9062 40.8825 12.6932C41.2063 12.4773 41.6183 12.3693 42.1183 12.3693C42.5728 12.3693 42.9691 12.4645 43.3072 12.6548C43.6452 12.8452 43.9066 13.1236 44.0913 13.4901C44.2788 13.8565 44.3725 14.304 44.3725 14.8324V19H42.8299V15.071C42.8299 14.6307 42.7163 14.2884 42.489 14.044C42.2646 13.7969 41.9492 13.6733 41.543 13.6733C41.2702 13.6733 41.0259 13.733 40.81 13.8523C40.5969 13.9687 40.4293 14.1378 40.3072 14.3594C40.1879 14.581 40.1282 14.8494 40.1282 15.1648ZM47.8285 19.1321C47.4137 19.1321 47.0401 19.0582 46.7077 18.9105C46.3782 18.7599 46.1168 18.5384 45.9237 18.2457C45.7333 17.9531 45.6381 17.5923 45.6381 17.1634C45.6381 16.794 45.7063 16.4886 45.8427 16.2472C45.979 16.0057 46.1651 15.8125 46.4009 15.6676C46.6367 15.5227 46.9023 15.4134 47.1978 15.3395C47.4961 15.2628 47.8043 15.2074 48.1225 15.1733C48.506 15.1335 48.8171 15.098 49.0558 15.0668C49.2944 15.0327 49.4677 14.9815 49.5756 14.9134C49.6864 14.8423 49.7418 14.733 49.7418 14.5852V14.5597C49.7418 14.2386 49.6467 13.9901 49.4563 13.8139C49.266 13.6378 48.9918 13.5497 48.6339 13.5497C48.256 13.5497 47.9563 13.6321 47.7347 13.7969C47.516 13.9616 47.3683 14.1562 47.2915 14.3807L45.8512 14.1761C45.9648 13.7784 46.1523 13.446 46.4137 13.179C46.6751 12.9091 46.9947 12.7074 47.3725 12.5739C47.7504 12.4375 48.168 12.3693 48.6254 12.3693C48.9407 12.3693 49.2546 12.4062 49.5671 12.4801C49.8796 12.554 50.1651 12.6761 50.4237 12.8466C50.6822 13.0142 50.8896 13.2429 51.0458 13.5327C51.2049 13.8224 51.2844 14.1847 51.2844 14.6193V19H49.8015V18.1009H49.7504C49.6566 18.2827 49.5245 18.4531 49.354 18.6122C49.1864 18.7685 48.9748 18.8949 48.7191 18.9915C48.4663 19.0852 48.1694 19.1321 47.8285 19.1321ZM48.229 17.9986C48.5387 17.9986 48.8072 17.9375 49.0344 17.8153C49.2617 17.6903 49.4364 17.5256 49.5586 17.321C49.6836 17.1165 49.7461 16.8935 49.7461 16.652V15.8807C49.6978 15.9205 49.6154 15.9574 49.4989 15.9915C49.3853 16.0256 49.2575 16.0554 49.1154 16.081C48.9734 16.1065 48.8327 16.1293 48.6935 16.1491C48.5543 16.169 48.4336 16.1861 48.3313 16.2003C48.1012 16.2315 47.8952 16.2827 47.7134 16.3537C47.5316 16.4247 47.3881 16.5241 47.283 16.652C47.1779 16.777 47.1254 16.9389 47.1254 17.1378C47.1254 17.4219 47.229 17.6364 47.4364 17.7812C47.6438 17.9261 47.908 17.9986 48.229 17.9986ZM52.8356 19V12.4545H54.3313V13.5455H54.3995C54.5188 13.1676 54.7234 12.8764 55.0131 12.6719C55.3058 12.4645 55.6396 12.3608 56.0146 12.3608C56.0998 12.3608 56.195 12.3651 56.3001 12.3736C56.408 12.3793 56.4975 12.3892 56.5685 12.4034V13.8224C56.5032 13.7997 56.3995 13.7798 56.2575 13.7628C56.1183 13.7429 55.9833 13.733 55.8526 13.733C55.5714 13.733 55.3185 13.794 55.0941 13.9162C54.8725 14.0355 54.6978 14.2017 54.57 14.4148C54.4421 14.6278 54.3782 14.8736 54.3782 15.152V19H52.8356ZM60.2216 19.1278C59.5653 19.1278 58.9986 18.9915 58.5213 18.7188C58.0469 18.4432 57.6818 18.054 57.4261 17.5511C57.1705 17.0455 57.0426 16.4503 57.0426 15.7656C57.0426 15.0923 57.1705 14.5014 57.4261 13.9929C57.6847 13.4815 58.0455 13.0838 58.5085 12.7997C58.9716 12.5128 59.5156 12.3693 60.1406 12.3693C60.544 12.3693 60.9247 12.4347 61.2827 12.5653C61.6435 12.6932 61.9616 12.892 62.2372 13.1619C62.5156 13.4318 62.7344 13.7756 62.8935 14.1932C63.0526 14.608 63.1321 15.1023 63.1321 15.6761V16.1491H57.767V15.1094H61.6534C61.6506 14.8139 61.5866 14.5511 61.4616 14.321C61.3366 14.0881 61.1619 13.9048 60.9375 13.7713C60.7159 13.6378 60.4574 13.571 60.1619 13.571C59.8466 13.571 59.5696 13.6477 59.331 13.8011C59.0923 13.9517 58.9063 14.1506 58.7727 14.3977C58.642 14.642 58.5753 14.9105 58.5724 15.2031V16.1108C58.5724 16.4915 58.642 16.8182 58.7812 17.0909C58.9205 17.3608 59.1151 17.5682 59.3651 17.7131C59.6151 17.8551 59.9077 17.9261 60.2429 17.9261C60.4673 17.9261 60.6705 17.8949 60.8523 17.8324C61.0341 17.767 61.1918 17.6719 61.3253 17.5469C61.4588 17.4219 61.5597 17.267 61.6278 17.0824L63.0682 17.2443C62.9773 17.625 62.804 17.9574 62.5483 18.2415C62.2955 18.5227 61.9716 18.7415 61.5767 18.8977C61.1818 19.0511 60.7301 19.1278 60.2216 19.1278ZM70.6822 12.4545V13.6477H66.9194V12.4545H70.6822ZM67.8484 10.8864H69.391V17.0312C69.391 17.2386 69.4222 17.3977 69.4847 17.5085C69.5501 17.6165 69.6353 17.6903 69.7404 17.7301C69.8455 17.7699 69.962 17.7898 70.0898 17.7898C70.1864 17.7898 70.2745 17.7827 70.354 17.7685C70.4364 17.7543 70.4989 17.7415 70.5415 17.7301L70.8015 18.9361C70.7191 18.9645 70.6012 18.9957 70.4478 19.0298C70.2972 19.0639 70.1126 19.0838 69.8938 19.0895C69.5075 19.1009 69.1594 19.0426 68.8498 18.9148C68.5401 18.7841 68.2944 18.5824 68.1126 18.3097C67.9336 18.0369 67.8455 17.696 67.8484 17.2869V10.8864ZM73.6555 15.1648V19H72.1129V10.2727H73.6214V13.5668H73.6982C73.8516 13.1974 74.0888 12.9062 74.4098 12.6932C74.7337 12.4773 75.1456 12.3693 75.6456 12.3693C76.1001 12.3693 76.4964 12.4645 76.8345 12.6548C77.1726 12.8452 77.4339 13.1236 77.6186 13.4901C77.8061 13.8565 77.8999 14.304 77.8999 14.8324V19H76.3572V15.071C76.3572 14.6307 76.2436 14.2884 76.0163 14.044C75.7919 13.7969 75.4766 13.6733 75.0703 13.6733C74.7976 13.6733 74.5533 13.733 74.3374 13.8523C74.1243 13.9687 73.9567 14.1378 73.8345 14.3594C73.7152 14.581 73.6555 14.8494 73.6555 15.1648ZM79.4723 19V12.4545H81.0149V19H79.4723ZM80.2479 11.5256C80.0036 11.5256 79.7933 11.4446 79.6172 11.2827C79.4411 11.1179 79.353 10.9205 79.353 10.6903C79.353 10.4574 79.4411 10.2599 79.6172 10.098C79.7933 9.93324 80.0036 9.85085 80.2479 9.85085C80.495 9.85085 80.7053 9.93324 80.8786 10.098C81.0547 10.2599 81.1428 10.4574 81.1428 10.6903C81.1428 10.9205 81.0547 11.1179 80.8786 11.2827C80.7053 11.4446 80.495 11.5256 80.2479 11.5256ZM87.7745 14.1847L86.3683 14.3381C86.3285 14.196 86.2589 14.0625 86.1594 13.9375C86.0629 13.8125 85.9322 13.7116 85.7674 13.6349C85.6026 13.5582 85.4009 13.5199 85.1623 13.5199C84.8413 13.5199 84.5714 13.5895 84.3526 13.7287C84.1367 13.8679 84.0302 14.0483 84.033 14.2699C84.0302 14.4602 84.0998 14.6151 84.2418 14.7344C84.3867 14.8537 84.6254 14.9517 84.9577 15.0284L86.0742 15.267C86.6935 15.4006 87.1538 15.6122 87.4549 15.902C87.7589 16.1918 87.9123 16.571 87.9151 17.0398C87.9123 17.4517 87.7915 17.8153 87.5529 18.1307C87.3171 18.4432 86.989 18.6875 86.5685 18.8636C86.1481 19.0398 85.6651 19.1278 85.1197 19.1278C84.3185 19.1278 83.6737 18.9602 83.185 18.625C82.6964 18.2869 82.4052 17.8168 82.3114 17.2145L83.8157 17.0696C83.8839 17.3651 84.0288 17.5881 84.2504 17.7386C84.4719 17.8892 84.7603 17.9645 85.1154 17.9645C85.4819 17.9645 85.7759 17.8892 85.9975 17.7386C86.2219 17.5881 86.3342 17.402 86.3342 17.1804C86.3342 16.9929 86.2617 16.8381 86.1168 16.7159C85.9748 16.5937 85.7532 16.5 85.4521 16.4347L84.3356 16.2003C83.7077 16.0696 83.2433 15.8494 82.9421 15.5398C82.641 15.2273 82.4918 14.8324 82.4947 14.3551C82.4918 13.9517 82.6012 13.6023 82.8228 13.3068C83.0472 13.0085 83.3583 12.7784 83.756 12.6165C84.1566 12.4517 84.6183 12.3693 85.141 12.3693C85.908 12.3693 86.5117 12.5327 86.9521 12.8594C87.3952 13.1861 87.6694 13.6278 87.7745 14.1847ZM92.1637 21.4545V12.4545H93.6808V13.5369H93.7702C93.8498 13.3778 93.962 13.2088 94.1069 13.0298C94.2518 12.848 94.4478 12.6932 94.695 12.5653C94.9421 12.4347 95.2575 12.3693 95.641 12.3693C96.1467 12.3693 96.6026 12.4986 97.0089 12.7571C97.418 13.0128 97.7418 13.392 97.9805 13.8949C98.2219 14.3949 98.3427 15.0085 98.3427 15.7358C98.3427 16.4545 98.2248 17.0653 97.989 17.5682C97.7532 18.071 97.4322 18.4545 97.0259 18.7188C96.6197 18.983 96.1594 19.1151 95.6452 19.1151C95.2702 19.1151 94.9592 19.0526 94.712 18.9276C94.4648 18.8026 94.266 18.652 94.1154 18.4759C93.9677 18.2969 93.8526 18.1278 93.7702 17.9688H93.7063V21.4545H92.1637ZM93.6765 15.7273C93.6765 16.1506 93.7362 16.5213 93.8555 16.8395C93.9776 17.1577 94.1523 17.4062 94.3796 17.5852C94.6097 17.7614 94.8881 17.8494 95.2148 17.8494C95.5558 17.8494 95.8413 17.7585 96.0714 17.5767C96.3015 17.392 96.4748 17.1406 96.5913 16.8224C96.7106 16.5014 96.7702 16.1364 96.7702 15.7273C96.7702 15.321 96.712 14.9602 96.5955 14.6449C96.479 14.3295 96.3058 14.0824 96.0756 13.9034C95.8455 13.7244 95.5586 13.6349 95.2148 13.6349C94.8853 13.6349 94.6055 13.7216 94.3754 13.8949C94.1452 14.0682 93.9705 14.3111 93.8512 14.6236C93.7347 14.9361 93.6765 15.304 93.6765 15.7273ZM101.547 19.1321C101.132 19.1321 100.759 19.0582 100.426 18.9105C100.097 18.7599 99.8356 18.5384 99.6424 18.2457C99.4521 17.9531 99.3569 17.5923 99.3569 17.1634C99.3569 16.794 99.4251 16.4886 99.5614 16.2472C99.6978 16.0057 99.8839 15.8125 100.12 15.6676C100.355 15.5227 100.621 15.4134 100.917 15.3395C101.215 15.2628 101.523 15.2074 101.841 15.1733C102.225 15.1335 102.536 15.098 102.775 15.0668C103.013 15.0327 103.186 14.9815 103.294 14.9134C103.405 14.8423 103.461 14.733 103.461 14.5852V14.5597C103.461 14.2386 103.365 13.9901 103.175 13.8139C102.985 13.6378 102.711 13.5497 102.353 13.5497C101.975 13.5497 101.675 13.6321 101.453 13.7969C101.235 13.9616 101.087 14.1562 101.01 14.3807L99.57 14.1761C99.6836 13.7784 99.8711 13.446 100.132 13.179C100.394 12.9091 100.713 12.7074 101.091 12.5739C101.469 12.4375 101.887 12.3693 102.344 12.3693C102.659 12.3693 102.973 12.4062 103.286 12.4801C103.598 12.554 103.884 12.6761 104.142 12.8466C104.401 13.0142 104.608 13.2429 104.765 13.5327C104.924 13.8224 105.003 14.1847 105.003 14.6193V19H103.52V18.1009H103.469C103.375 18.2827 103.243 18.4531 103.073 18.6122C102.905 18.7685 102.694 18.8949 102.438 18.9915C102.185 19.0852 101.888 19.1321 101.547 19.1321ZM101.948 17.9986C102.257 17.9986 102.526 17.9375 102.753 17.8153C102.98 17.6903 103.155 17.5256 103.277 17.321C103.402 17.1165 103.465 16.8935 103.465 16.652V15.8807C103.417 15.9205 103.334 15.9574 103.218 15.9915C103.104 16.0256 102.976 16.0554 102.834 16.081C102.692 16.1065 102.551 16.1293 102.412 16.1491C102.273 16.169 102.152 16.1861 102.05 16.2003C101.82 16.2315 101.614 16.2827 101.432 16.3537C101.25 16.4247 101.107 16.5241 101.002 16.652C100.897 16.777 100.844 16.9389 100.844 17.1378C100.844 17.4219 100.948 17.6364 101.155 17.7812C101.363 17.9261 101.627 17.9986 101.948 17.9986ZM109.401 21.5909C108.847 21.5909 108.371 21.5156 107.973 21.3651C107.576 21.2173 107.256 21.0185 107.015 20.7685C106.773 20.5185 106.605 20.2415 106.512 19.9375L107.901 19.6009C107.963 19.7287 108.054 19.8551 108.174 19.9801C108.293 20.108 108.453 20.2131 108.655 20.2955C108.86 20.3807 109.117 20.4233 109.426 20.4233C109.864 20.4233 110.226 20.3168 110.513 20.1037C110.8 19.8935 110.944 19.5469 110.944 19.0639V17.8239H110.867C110.787 17.983 110.671 18.1463 110.517 18.3139C110.367 18.4815 110.167 18.6222 109.917 18.7358C109.669 18.8494 109.358 18.9062 108.983 18.9062C108.48 18.9062 108.025 18.7884 107.615 18.5526C107.209 18.3139 106.885 17.9588 106.644 17.4872C106.405 17.0128 106.286 16.419 106.286 15.706C106.286 14.9872 106.405 14.3807 106.644 13.8864C106.885 13.3892 107.211 13.0128 107.62 12.7571C108.029 12.4986 108.485 12.3693 108.988 12.3693C109.371 12.3693 109.686 12.4347 109.934 12.5653C110.184 12.6932 110.382 12.848 110.53 13.0298C110.678 13.2088 110.79 13.3778 110.867 13.5369H110.952V12.4545H112.473V19.1065C112.473 19.6662 112.34 20.1293 112.073 20.4957C111.806 20.8622 111.441 21.1364 110.978 21.3182C110.515 21.5 109.989 21.5909 109.401 21.5909ZM109.414 17.696C109.74 17.696 110.019 17.6165 110.249 17.4574C110.479 17.2983 110.654 17.0696 110.773 16.7713C110.892 16.473 110.952 16.1151 110.952 15.6974C110.952 15.2855 110.892 14.9247 110.773 14.6151C110.657 14.3054 110.483 14.0653 110.253 13.8949C110.026 13.7216 109.746 13.6349 109.414 13.6349C109.07 13.6349 108.783 13.7244 108.553 13.9034C108.323 14.0824 108.15 14.3281 108.033 14.6406C107.917 14.9503 107.858 15.3026 107.858 15.6974C107.858 16.098 107.917 16.4489 108.033 16.75C108.152 17.0483 108.327 17.2812 108.557 17.4489C108.79 17.6136 109.076 17.696 109.414 17.696ZM116.952 19.1278C116.296 19.1278 115.729 18.9915 115.252 18.7188C114.777 18.4432 114.412 18.054 114.157 17.5511C113.901 17.0455 113.773 16.4503 113.773 15.7656C113.773 15.0923 113.901 14.5014 114.157 13.9929C114.415 13.4815 114.776 13.0838 115.239 12.7997C115.702 12.5128 116.246 12.3693 116.871 12.3693C117.275 12.3693 117.655 12.4347 118.013 12.5653C118.374 12.6932 118.692 12.892 118.968 13.1619C119.246 13.4318 119.465 13.7756 119.624 14.1932C119.783 14.608 119.863 15.1023 119.863 15.6761V16.1491H114.498V15.1094H118.384C118.381 14.8139 118.317 14.5511 118.192 14.321C118.067 14.0881 117.892 13.9048 117.668 13.7713C117.446 13.6378 117.188 13.571 116.892 13.571C116.577 13.571 116.3 13.6477 116.061 13.8011C115.823 13.9517 115.637 14.1506 115.503 14.3977C115.373 14.642 115.306 14.9105 115.303 15.2031V16.1108C115.303 16.4915 115.373 16.8182 115.512 17.0909C115.651 17.3608 115.846 17.5682 116.096 17.7131C116.346 17.8551 116.638 17.9261 116.973 17.9261C117.198 17.9261 117.401 17.8949 117.583 17.8324C117.765 17.767 117.922 17.6719 118.056 17.5469C118.189 17.4219 118.29 17.267 118.358 17.0824L119.799 17.2443C119.708 17.625 119.534 17.9574 119.279 18.2415C119.026 18.5227 118.702 18.7415 118.307 18.8977C117.912 19.0511 117.461 19.1278 116.952 19.1278Z" fill="white"/>
<path d="M22.6666 15.0003L17.3333 9.16699V12.0837C14.6666 12.0837 9.33325 13.8337 9.33325 20.8337C9.33325 19.8612 10.9333 17.917 17.3333 17.917V20.8337L22.6666 15.0003Z" stroke="white" stroke-width="1.4" stroke-linecap="round" stroke-linejoin="round"/>
</g>
<defs>
<clipPath id="clip0_1332_558">
<rect width="139" height="30" fill="white"/>
</clipPath>
</defs>
</svg>
