<svg width="139" height="30" viewBox="0 0 139 30" fill="none" xmlns="http://www.w3.org/2000/svg">
<g clip-path="url(#clip0_1147_512)">
<rect width="139" height="30" rx="5" fill="#555555"/>
<path d="M103 0H134C136.761 0 139 2.23858 139 5V25C139 27.7614 136.761 30 134 30H103V0Z" fill="#3FAA00"/>
<path d="M37.625 12.4205C37.5644 11.8826 37.3144 11.4659 36.875 11.1705C36.4356 10.8712 35.8826 10.7216 35.2159 10.7216C34.7386 10.7216 34.3258 10.7973 33.9773 10.9489C33.6288 11.0966 33.358 11.3011 33.1648 11.5625C32.9754 11.8201 32.8807 12.1136 32.8807 12.4432C32.8807 12.7197 32.9451 12.9583 33.0739 13.1591C33.2064 13.3598 33.3788 13.5284 33.5909 13.6648C33.8068 13.7973 34.0379 13.9091 34.2841 14C34.5303 14.0871 34.767 14.1591 34.9943 14.2159L36.1307 14.5114C36.5019 14.6023 36.8826 14.7254 37.2727 14.8807C37.6629 15.036 38.0246 15.2405 38.358 15.4943C38.6913 15.7481 38.9602 16.0625 39.1648 16.4375C39.3731 16.8125 39.4773 17.2614 39.4773 17.7841C39.4773 18.4432 39.3068 19.0284 38.9659 19.5398C38.6288 20.0511 38.1383 20.4545 37.4943 20.75C36.8542 21.0455 36.0795 21.1932 35.1705 21.1932C34.2992 21.1932 33.5455 21.0549 32.9091 20.7784C32.2727 20.5019 31.7746 20.1098 31.4148 19.6023C31.0549 19.0909 30.8561 18.4848 30.8182 17.7841H32.5795C32.6136 18.2045 32.75 18.5549 32.9886 18.8352C33.2311 19.1117 33.5398 19.3182 33.9148 19.4545C34.2936 19.5871 34.7083 19.6534 35.1591 19.6534C35.6553 19.6534 36.0966 19.5758 36.483 19.4205C36.8731 19.2614 37.1799 19.0417 37.4034 18.7614C37.6269 18.4773 37.7386 18.1458 37.7386 17.767C37.7386 17.4223 37.6402 17.1402 37.4432 16.9205C37.25 16.7008 36.9867 16.5189 36.6534 16.375C36.3239 16.2311 35.9508 16.1042 35.5341 15.9943L34.1591 15.6193C33.2273 15.3655 32.4886 14.9924 31.9432 14.5C31.4015 14.0076 31.1307 13.3561 31.1307 12.5455C31.1307 11.875 31.3125 11.2898 31.6761 10.7898C32.0398 10.2898 32.5322 9.90151 33.1534 9.625C33.7746 9.3447 34.4754 9.20455 35.2557 9.20455C36.0436 9.20455 36.7386 9.3428 37.3409 9.61932C37.947 9.89583 38.4242 10.2765 38.7727 10.7614C39.1212 11.2424 39.303 11.7955 39.3182 12.4205H37.625ZM45.8537 17.2273H47.581L48.7969 18.8125L49.3707 19.517L51.3082 22.0455H49.5128L48.2173 20.358L47.7741 19.7443L45.8537 17.2273ZM51.6832 15.1818C51.6832 16.4242 51.456 17.4924 51.0014 18.3864C50.5469 19.2765 49.9238 19.9621 49.1321 20.4432C48.3442 20.9205 47.4484 21.1591 46.4446 21.1591C45.437 21.1591 44.5374 20.9205 43.7457 20.4432C42.9579 19.9621 42.3366 19.2746 41.8821 18.3807C41.4276 17.4867 41.2003 16.4205 41.2003 15.1818C41.2003 13.9394 41.4276 12.8731 41.8821 11.983C42.3366 11.089 42.9579 10.4034 43.7457 9.92614C44.5374 9.44508 45.437 9.20455 46.4446 9.20455C47.4484 9.20455 48.3442 9.44508 49.1321 9.92614C49.9238 10.4034 50.5469 11.089 51.0014 11.983C51.456 12.8731 51.6832 13.9394 51.6832 15.1818ZM49.9446 15.1818C49.9446 14.2348 49.7912 13.4375 49.4844 12.7898C49.1813 12.1383 48.7647 11.6458 48.2344 11.3125C47.7079 10.9754 47.1113 10.8068 46.4446 10.8068C45.7741 10.8068 45.1757 10.9754 44.6491 11.3125C44.1226 11.6458 43.706 12.1383 43.3991 12.7898C43.0961 13.4375 42.9446 14.2348 42.9446 15.1818C42.9446 16.1288 43.0961 16.928 43.3991 17.5795C43.706 18.2273 44.1226 18.7197 44.6491 19.0568C45.1757 19.3902 45.7741 19.5568 46.4446 19.5568C47.1113 19.5568 47.7079 19.3902 48.2344 19.0568C48.7647 18.7197 49.1813 18.2273 49.4844 17.5795C49.7912 16.928 49.9446 16.1288 49.9446 15.1818ZM53.8722 21V9.36364H55.6278V19.4886H60.9006V21H53.8722Z" fill="white"/>
<path d="M21.5666 15.2667C21.2184 14.9185 20.805 14.6425 20.35 14.4544C19.8949 14.2663 19.4072 14.1699 18.9149 14.1707C18.4225 14.1714 17.9351 14.2694 17.4807 14.4589C17.0262 14.6484 16.6136 14.9257 16.2666 15.275C15.9179 15.6226 15.6412 16.0356 15.4524 16.4904C15.2636 16.9451 15.1664 17.4326 15.1664 17.925C15.1664 18.4174 15.2636 18.9049 15.4524 19.3596C15.6412 19.8144 15.9179 20.2274 16.2666 20.575C16.8674 21.1736 17.6531 21.5513 18.4959 21.6467C19.3387 21.742 20.1889 21.5493 20.9083 21.1L23.4999 23.6583L24.6583 22.5L22.0833 19.9083C23.0249 18.4333 22.8083 16.5 21.5666 15.2667ZM20.3916 19.3917C19.5749 20.2083 18.2583 20.2 17.4416 19.3917C16.6333 18.575 16.6333 17.2583 17.4499 16.4417C18.2583 15.6333 19.5749 15.6333 20.3916 16.4417C21.1999 17.2583 21.1999 18.575 20.3916 19.3917ZM15.0833 21.75C14.5394 21.2005 14.119 20.5414 13.8499 19.8167C11.2249 19.375 9.33325 18.1333 9.33325 16.6667V19.1667C9.33325 21.0083 12.3166 22.5 15.9999 22.5C15.6666 22.2833 15.3583 22.0333 15.0833 21.75ZM9.33325 12.5V15C9.33325 16.4 11.0583 17.6 13.4999 18.0833V17.9167C13.4999 17.1417 13.6666 16.375 13.9833 15.675C11.2833 15.25 9.33325 13.9917 9.33325 12.5ZM15.9999 7.5C12.3166 7.5 9.33325 8.99167 9.33325 10.8333C9.33325 12.5 11.8333 13.9 15.0416 14.1667H15.0833C16.0833 13.1167 17.4666 12.5 18.9166 12.5C19.6749 12.5 20.4249 12.6583 21.1166 12.9667C21.537 12.7749 21.9006 12.4777 22.1722 12.1039C22.4438 11.7301 22.6141 11.2924 22.6666 10.8333C22.6666 8.99167 19.6833 7.5 15.9999 7.5Z" fill="white"/>
</g>
<defs>
<clipPath id="clip0_1147_512">
<rect width="139" height="30" fill="white"/>
</clipPath>
</defs>
</svg>
