<svg width="139" height="30" viewBox="0 0 139 30" fill="none" xmlns="http://www.w3.org/2000/svg">
<g clip-path="url(#clip0_1147_719)">
<rect width="139" height="30" rx="5" fill="#555555"/>
<path d="M103 0H134C136.761 0 139 2.23858 139 5V25C139 27.7614 136.761 30 134 30H103V0Z" fill="#3296D6"/>
<path d="M37.625 12.4205C37.5644 11.8826 37.3144 11.4659 36.875 11.1705C36.4356 10.8712 35.8826 10.7216 35.2159 10.7216C34.7386 10.7216 34.3258 10.7973 33.9773 10.9489C33.6288 11.0966 33.358 11.3011 33.1648 11.5625C32.9754 11.8201 32.8807 12.1136 32.8807 12.4432C32.8807 12.7197 32.9451 12.9583 33.0739 13.1591C33.2064 13.3598 33.3788 13.5284 33.5909 13.6648C33.8068 13.7973 34.0379 13.9091 34.2841 14C34.5303 14.0871 34.767 14.1591 34.9943 14.2159L36.1307 14.5114C36.5019 14.6023 36.8826 14.7254 37.2727 14.8807C37.6629 15.036 38.0246 15.2405 38.358 15.4943C38.6913 15.7481 38.9602 16.0625 39.1648 16.4375C39.3731 16.8125 39.4773 17.2614 39.4773 17.7841C39.4773 18.4432 39.3068 19.0284 38.9659 19.5398C38.6288 20.0511 38.1383 20.4545 37.4943 20.75C36.8542 21.0455 36.0795 21.1932 35.1705 21.1932C34.2992 21.1932 33.5455 21.0549 32.9091 20.7784C32.2727 20.5019 31.7746 20.1098 31.4148 19.6023C31.0549 19.0909 30.8561 18.4848 30.8182 17.7841H32.5795C32.6136 18.2045 32.75 18.5549 32.9886 18.8352C33.2311 19.1117 33.5398 19.3182 33.9148 19.4545C34.2936 19.5871 34.7083 19.6534 35.1591 19.6534C35.6553 19.6534 36.0966 19.5758 36.483 19.4205C36.8731 19.2614 37.1799 19.0417 37.4034 18.7614C37.6269 18.4773 37.7386 18.1458 37.7386 17.767C37.7386 17.4223 37.6402 17.1402 37.4432 16.9205C37.25 16.7008 36.9867 16.5189 36.6534 16.375C36.3239 16.2311 35.9508 16.1042 35.5341 15.9943L34.1591 15.6193C33.2273 15.3655 32.4886 14.9924 31.9432 14.5C31.4015 14.0076 31.1307 13.3561 31.1307 12.5455C31.1307 11.875 31.3125 11.2898 31.6761 10.7898C32.0398 10.2898 32.5322 9.90151 33.1534 9.625C33.7746 9.3447 34.4754 9.20455 35.2557 9.20455C36.0436 9.20455 36.7386 9.3428 37.3409 9.61932C37.947 9.89583 38.4242 10.2765 38.7727 10.7614C39.1212 11.2424 39.303 11.7955 39.3182 12.4205H37.625ZM45.8537 17.2273H47.581L48.7969 18.8125L49.3707 19.517L51.3082 22.0455H49.5128L48.2173 20.358L47.7741 19.7443L45.8537 17.2273ZM51.6832 15.1818C51.6832 16.4242 51.456 17.4924 51.0014 18.3864C50.5469 19.2765 49.9238 19.9621 49.1321 20.4432C48.3442 20.9205 47.4484 21.1591 46.4446 21.1591C45.437 21.1591 44.5374 20.9205 43.7457 20.4432C42.9579 19.9621 42.3366 19.2746 41.8821 18.3807C41.4276 17.4867 41.2003 16.4205 41.2003 15.1818C41.2003 13.9394 41.4276 12.8731 41.8821 11.983C42.3366 11.089 42.9579 10.4034 43.7457 9.92614C44.5374 9.44508 45.437 9.20455 46.4446 9.20455C47.4484 9.20455 48.3442 9.44508 49.1321 9.92614C49.9238 10.4034 50.5469 11.089 51.0014 11.983C51.456 12.8731 51.6832 13.9394 51.6832 15.1818ZM49.9446 15.1818C49.9446 14.2348 49.7912 13.4375 49.4844 12.7898C49.1813 12.1383 48.7647 11.6458 48.2344 11.3125C47.7079 10.9754 47.1113 10.8068 46.4446 10.8068C45.7741 10.8068 45.1757 10.9754 44.6491 11.3125C44.1226 11.6458 43.706 12.1383 43.3991 12.7898C43.0961 13.4375 42.9446 14.2348 42.9446 15.1818C42.9446 16.1288 43.0961 16.928 43.3991 17.5795C43.706 18.2273 44.1226 18.7197 44.6491 19.0568C45.1757 19.3902 45.7741 19.5568 46.4446 19.5568C47.1113 19.5568 47.7079 19.3902 48.2344 19.0568C48.7647 18.7197 49.1813 18.2273 49.4844 17.5795C49.7912 16.928 49.9446 16.1288 49.9446 15.1818ZM53.8722 21V9.36364H55.6278V19.4886H60.9006V21H53.8722ZM64.6591 9.36364V21H62.9034V9.36364H64.6591ZM66.642 10.875V9.36364H75.6477V10.875H72.017V21H70.267V10.875H66.642ZM77.6378 21V9.36364H84.9332V10.875H79.3935V14.4205H84.5526V15.9261H79.3935V19.4886H85.0014V21H77.6378Z" fill="white"/>
<g clip-path="url(#clip1_1147_719)">
<path d="M15.9305 14.1043L15.3669 15.8914C15.0664 17.0008 15.0919 17.3507 15.2444 17.6089C15.282 17.6723 15.3849 17.88 15.5287 18.4346C15.7374 19.2375 15.9212 20.4498 15.9257 20.5078C15.8955 21.2488 15.9119 22.0339 15.9718 22.7856H8.53382C7.6928 22.7856 7.00464 22.0975 7.00464 21.2565V7.41718C7.00464 6.57616 7.69276 5.88788 8.53382 5.88788H19.9794C18.2265 7.74745 16.4896 11.276 15.9305 14.1043ZM24.01 5.43499C26.1075 7.30605 24.0247 11.5835 22.113 14.5945C20.7229 15.0412 19.1026 16.0279 19.1026 16.0279C19.1026 16.0279 19.2374 15.9564 19.7376 15.7466C20.0767 15.604 21.0891 15.3633 21.7056 15.2227C20.6764 16.7745 19.7956 17.8607 19.7956 17.8607C19.7956 17.8607 17.9999 18.5904 17.4446 20.288C17.7664 18.4772 18.3005 16.5873 19.0542 14.5732C19.7274 12.7747 21.976 7.91784 23.6374 6.41741C21.8146 7.87027 19.8229 10.9124 18.3874 14.7041C17.5377 17.2158 17.0779 19.6256 17.003 21.6239C16.9535 22.9312 17.0665 24.0649 17.3448 24.9299L17.2161 25C16.9432 24.2917 16.6927 23.047 16.7526 20.4963C16.7437 20.3825 16.7383 20.3085 16.7383 20.3085C16.7383 20.3085 16.5726 19.1926 16.3343 18.2759C16.2287 17.869 16.1086 17.5011 15.9825 17.2878C15.9175 17.1778 15.9895 16.7258 16.1709 16.0563C16.4781 16.5912 16.8095 17.1702 16.9368 17.6439C16.9368 17.6439 16.6913 16.381 16.2885 15.6441C16.3768 15.3461 16.4823 15.0168 16.6016 14.6648C16.8987 15.1843 17.2017 15.6786 17.3225 16.1737C17.1903 15.5412 17.0114 14.9112 16.7326 14.2868C17.2393 11.6502 18.8701 8.19784 20.627 6.33402C21.5648 5.33335 22.8572 4.43777 24.01 5.43499Z" fill="white"/>
</g>
</g>
<defs>
<clipPath id="clip0_1147_719">
<rect width="139" height="30" fill="white"/>
</clipPath>
<clipPath id="clip1_1147_719">
<rect width="17.9" height="20" fill="white" transform="translate(7 5)"/>
</clipPath>
</defs>
</svg>
