<svg width="139" height="30" viewBox="0 0 139 30" fill="none" xmlns="http://www.w3.org/2000/svg">
<g clip-path="url(#clip0_1147_707)">
<rect width="139" height="30" rx="5" fill="#555555"/>
<path d="M103 0H134C136.761 0 139 2.23858 139 5V25C139 27.7614 136.761 30 134 30H103V0Z" fill="#19204E"/>
<path d="M30.6605 10.5078V9.09091H39.1033V10.5078H35.6996V20H34.0589V10.5078H30.6605ZM40.969 20V9.09091H47.8085V10.5078H42.615V13.8317H47.4516V15.2433H42.615V18.5831H47.8724V20H40.969ZM50.0071 20V9.09091H53.8956C54.7408 9.09091 55.4421 9.23651 55.9996 9.5277C56.5607 9.81889 56.9798 10.2219 57.2567 10.7369C57.5337 11.2482 57.6722 11.8395 57.6722 12.5107C57.6722 13.1783 57.532 13.766 57.2514 14.2738C56.9744 14.7781 56.5554 15.1705 55.9943 15.451C55.4368 15.7315 54.7354 15.8718 53.8903 15.8718H50.9446V14.4549H53.7411C54.2738 14.4549 54.707 14.3786 55.0408 14.2259C55.3782 14.0732 55.625 13.8512 55.7812 13.56C55.9375 13.2688 56.0156 12.919 56.0156 12.5107C56.0156 12.0987 55.9357 11.7418 55.7759 11.44C55.6197 11.1381 55.3729 10.9073 55.0355 10.7475C54.7017 10.5842 54.2631 10.5025 53.7198 10.5025H51.6531V20H50.0071ZM55.3924 15.0781L58.0877 20H56.2127L53.5707 15.0781H55.3924ZM59.6751 9.09091H61.6726L65.1456 17.571H65.2734L68.7464 9.09091H70.744V20H69.1779V12.1058H69.0767L65.8594 19.984H64.5597L61.3423 12.1005H61.2411V20H59.6751V9.09091ZM74.7829 9.09091V20H73.137V9.09091H74.7829ZM84.1952 9.09091H85.8465V16.266C85.8465 17.0295 85.6672 17.706 85.3085 18.2955C84.9498 18.8814 84.4456 19.343 83.7957 19.6804C83.1459 20.0142 82.3841 20.1811 81.5106 20.1811C80.6405 20.1811 79.8806 20.0142 79.2307 19.6804C78.5809 19.343 78.0766 18.8814 77.718 18.2955C77.3593 17.706 77.18 17.0295 77.18 16.266V9.09091H78.8259V16.1328C78.8259 16.6264 78.9342 17.065 79.1508 17.4485C79.371 17.832 79.6817 18.1339 80.083 18.354C80.4843 18.5707 80.9601 18.679 81.5106 18.679C82.0645 18.679 82.5422 18.5707 82.9434 18.354C83.3483 18.1339 83.6572 17.832 83.8703 17.4485C84.0869 17.065 84.1952 16.6264 84.1952 16.1328V9.09091ZM94.1895 11.9567C94.1326 11.4524 93.8983 11.0618 93.4863 10.7848C93.0744 10.5043 92.5559 10.364 91.9309 10.364C91.4835 10.364 91.0964 10.435 90.7697 10.5771C90.443 10.7156 90.1891 10.9073 90.008 11.1523C89.8304 11.3938 89.7417 11.669 89.7417 11.978C89.7417 12.2372 89.802 12.4609 89.9228 12.6491C90.0471 12.8374 90.2086 12.9954 90.4075 13.1232C90.6099 13.2475 90.8265 13.3523 91.0574 13.4375C91.2882 13.5192 91.5101 13.5866 91.7232 13.6399L92.7885 13.9169C93.1365 14.0021 93.4934 14.1175 93.8592 14.2631C94.225 14.4087 94.5641 14.6005 94.8766 14.8384C95.1891 15.0763 95.4412 15.3711 95.633 15.7227C95.8283 16.0742 95.926 16.495 95.926 16.9851C95.926 17.603 95.7662 18.1516 95.4466 18.631C95.1305 19.1104 94.6706 19.4886 94.0669 19.7656C93.4668 20.0426 92.7406 20.1811 91.8883 20.1811C91.0716 20.1811 90.3649 20.0515 89.7683 19.7923C89.1717 19.533 88.7047 19.1655 88.3674 18.6896C88.03 18.2102 87.8436 17.642 87.8081 16.9851H89.4593C89.4913 17.3793 89.6191 17.7077 89.8429 17.9705C90.0701 18.2298 90.3596 18.4233 90.7111 18.5511C91.0662 18.6754 91.4551 18.7376 91.8777 18.7376C92.3429 18.7376 92.7566 18.6648 93.1188 18.5192C93.4846 18.37 93.7722 18.1641 93.9817 17.9013C94.1912 17.6349 94.296 17.3242 94.296 16.9691C94.296 16.646 94.2037 16.3814 94.019 16.1754C93.8379 15.9695 93.5911 15.799 93.2786 15.6641C92.9696 15.5291 92.6199 15.4102 92.2292 15.3072L90.9402 14.9556C90.0666 14.7177 89.3741 14.3679 88.8627 13.9062C88.3549 13.4446 88.101 12.8338 88.101 12.0739C88.101 11.4453 88.2715 10.8967 88.6124 10.4279C88.9533 9.95916 89.415 9.59517 89.9973 9.33594C90.5797 9.07315 91.2367 8.94176 91.9682 8.94176C92.7069 8.94176 93.3585 9.07138 93.9231 9.33061C94.4913 9.58984 94.9387 9.94673 95.2654 10.4013C95.5922 10.8523 95.7626 11.3707 95.7768 11.9567H94.1895Z" fill="white"/>
<path d="M13.1979 13.6348L15.6438 14.4098L13.1979 15.1848M11.9563 19.5931C11.4198 19.5927 10.8887 19.4866 10.3933 19.2809C9.89788 19.0752 9.44783 18.7739 9.06884 18.3943C8.68986 18.0146 8.38937 17.5641 8.18453 17.0683C7.97969 16.5725 7.87451 16.0412 7.875 15.5048C7.88034 14.8117 8.05535 14.1304 8.38474 13.5205C8.71413 12.9106 9.18788 12.3906 9.76459 12.0061C9.7603 11.4651 9.86283 10.9286 10.0663 10.4273C10.2698 9.92601 10.5702 9.46981 10.9503 9.08486C11.3304 8.6999 11.7828 8.39376 12.2814 8.18396C12.7801 7.97417 13.3153 7.86486 13.8563 7.8623C14.4366 7.86602 15.0099 7.98895 15.5408 8.22347C16.0716 8.458 16.5486 8.79911 16.9421 9.22564C17.5089 8.96488 18.1248 8.82808 18.7488 8.82439C19.2824 8.8224 19.8112 8.92615 20.3045 9.12964C20.7978 9.33313 21.246 9.63233 21.623 10.01C22.0001 10.3876 22.2986 10.8362 22.5013 11.3298C22.704 11.8235 22.807 12.3524 22.8042 12.8861C23.4204 13.4496 23.8479 14.1893 24.0287 15.0046C24.2095 15.8198 24.1347 16.671 23.8145 17.4422C23.4943 18.2134 22.9442 18.8672 22.2391 19.3146C21.5341 19.762 20.7083 19.9814 19.8742 19.9427C19.4721 20.5965 18.9132 21.1396 18.2482 21.5228C17.5832 21.906 16.8331 22.1172 16.0658 22.1373C15.2536 22.132 14.4606 21.8897 13.784 21.4402C13.1074 20.9908 12.5768 20.3536 12.2571 19.6069C12.1574 19.595 12.0566 19.5904 11.9563 19.5931Z" stroke="white" stroke-linecap="round" stroke-linejoin="round"/>
<path d="M15.9663 16.2393C16.3592 16.4875 16.8145 16.6192 17.2792 16.6192C17.744 16.6192 18.1992 16.4875 18.5921 16.2393" stroke="white" stroke-width="0.416667" stroke-linecap="round" stroke-linejoin="round"/>
</g>
<defs>
<clipPath id="clip0_1147_707">
<rect width="139" height="30" fill="white"/>
</clipPath>
</defs>
</svg>
