<svg width="139" height="30" viewBox="0 0 139 30" fill="none" xmlns="http://www.w3.org/2000/svg">
<g clip-path="url(#clip0_1147_527)">
<rect width="139" height="30" rx="5" fill="#555555"/>
<path d="M103 0H134C136.761 0 139 2.23858 139 5V25C139 27.7614 136.761 30 134 30H103V0Z" fill="#E95420"/>
<path d="M38.7614 9.36364H40.5227V17.017C40.5227 17.8314 40.3314 18.553 39.9489 19.1818C39.5663 19.8068 39.0284 20.2992 38.3352 20.6591C37.642 21.0152 36.8295 21.1932 35.8977 21.1932C34.9697 21.1932 34.1591 21.0152 33.4659 20.6591C32.7727 20.2992 32.2348 19.8068 31.8523 19.1818C31.4697 18.553 31.2784 17.8314 31.2784 17.017V9.36364H33.0341V16.875C33.0341 17.4015 33.1496 17.8693 33.3807 18.2784C33.6155 18.6875 33.947 19.0095 34.375 19.2443C34.803 19.4754 35.3106 19.5909 35.8977 19.5909C36.4886 19.5909 36.9981 19.4754 37.4261 19.2443C37.858 19.0095 38.1875 18.6875 38.4148 18.2784C38.6458 17.8693 38.7614 17.4015 38.7614 16.875V9.36364ZM43.0753 21V9.36364H47.3366C48.1624 9.36364 48.8461 9.5 49.3878 9.77273C49.9295 10.0417 50.3348 10.4072 50.6037 10.8693C50.8726 11.3277 51.0071 11.8447 51.0071 12.4205C51.0071 12.9053 50.9181 13.3144 50.7401 13.6477C50.562 13.9773 50.3234 14.2424 50.0241 14.4432C49.7287 14.6402 49.4029 14.7841 49.0469 14.875V14.9886C49.4332 15.0076 49.8101 15.1326 50.1776 15.3636C50.5488 15.5909 50.8556 15.9148 51.098 16.3352C51.3404 16.7557 51.4616 17.267 51.4616 17.8693C51.4616 18.464 51.3215 18.9981 51.0412 19.4716C50.7647 19.9413 50.3366 20.3144 49.7571 20.5909C49.1776 20.8636 48.437 21 47.5355 21H43.0753ZM44.831 19.4943H47.3651C48.206 19.4943 48.8082 19.3314 49.1719 19.0057C49.5355 18.6799 49.7173 18.2727 49.7173 17.7841C49.7173 17.4167 49.6245 17.0795 49.4389 16.7727C49.2533 16.4659 48.9882 16.2216 48.6435 16.0398C48.3026 15.858 47.8973 15.767 47.4276 15.767H44.831V19.4943ZM44.831 14.3977H47.1832C47.5772 14.3977 47.9313 14.322 48.2457 14.1705C48.5639 14.0189 48.8158 13.8068 49.0014 13.5341C49.1908 13.2576 49.2855 12.9318 49.2855 12.5568C49.2855 12.0758 49.117 11.6723 48.7798 11.3466C48.4427 11.0208 47.9257 10.858 47.2287 10.858H44.831V14.3977ZM61.027 9.36364H62.7884V17.017C62.7884 17.8314 62.5971 18.553 62.2145 19.1818C61.8319 19.8068 61.294 20.2992 60.6009 20.6591C59.9077 21.0152 59.0952 21.1932 58.1634 21.1932C57.2353 21.1932 56.4247 21.0152 55.7315 20.6591C55.0384 20.2992 54.5005 19.8068 54.1179 19.1818C53.7353 18.553 53.544 17.8314 53.544 17.017V9.36364H55.2997V16.875C55.2997 17.4015 55.4152 17.8693 55.6463 18.2784C55.8812 18.6875 56.2126 19.0095 56.6406 19.2443C57.0687 19.4754 57.5762 19.5909 58.1634 19.5909C58.7543 19.5909 59.2637 19.4754 59.6918 19.2443C60.1236 19.0095 60.4531 18.6875 60.6804 18.2784C60.9115 17.8693 61.027 17.4015 61.027 16.875V9.36364ZM74.733 9.36364V21H73.1193L67.2045 12.4659H67.0966V21H65.3409V9.36364H66.9659L72.8864 17.9091H72.9943V9.36364H74.733ZM76.7202 10.875V9.36364H85.7259V10.875H82.0952V21H80.3452V10.875H76.7202ZM95.1989 9.36364H96.9602V17.017C96.9602 17.8314 96.7689 18.553 96.3864 19.1818C96.0038 19.8068 95.4659 20.2992 94.7727 20.6591C94.0795 21.0152 93.267 21.1932 92.3352 21.1932C91.4072 21.1932 90.5966 21.0152 89.9034 20.6591C89.2102 20.2992 88.6723 19.8068 88.2898 19.1818C87.9072 18.553 87.7159 17.8314 87.7159 17.017V9.36364H89.4716V16.875C89.4716 17.4015 89.5871 17.8693 89.8182 18.2784C90.053 18.6875 90.3845 19.0095 90.8125 19.2443C91.2405 19.4754 91.7481 19.5909 92.3352 19.5909C92.9261 19.5909 93.4356 19.4754 93.8636 19.2443C94.2955 19.0095 94.625 18.6875 94.8523 18.2784C95.0833 17.8693 95.1989 17.4015 95.1989 16.875V9.36364Z" fill="white"/>
<g clip-path="url(#clip1_1147_527)">
<path d="M15.6899 5.3125C10.3384 5.3125 6.00244 9.64844 6.00244 15C6.00244 20.3516 10.3384 24.6875 15.6899 24.6875C21.0415 24.6875 25.3774 20.3516 25.3774 15C25.3774 9.64844 21.0415 5.3125 15.6899 5.3125ZM17.7485 8.94531C18.0923 8.35156 18.854 8.14453 19.4478 8.48828C20.0454 8.83203 20.2485 9.59375 19.9048 10.1914C19.561 10.7852 18.7993 10.9922 18.2056 10.6484C17.6079 10.3008 17.4048 9.53906 17.7485 8.94531ZM9.4165 16.2461C8.729 16.2461 8.17041 15.6875 8.17041 15C8.17041 14.3125 8.729 13.7539 9.4165 13.7539C10.104 13.7539 10.6626 14.3125 10.6626 15C10.6626 15.6875 10.104 16.2461 9.4165 16.2461ZM10.5142 16.3672C11.3853 15.668 11.3892 14.3398 10.5142 13.6367C10.8501 12.3555 11.6509 11.2656 12.7212 10.5469L13.647 12.0938C11.6353 13.5117 11.6353 16.4883 13.647 17.9062L12.7212 19.4531C11.6509 18.7383 10.854 17.6445 10.5142 16.3672ZM19.4478 21.5117C18.8501 21.8555 18.0923 21.6523 17.7485 21.0547C17.4048 20.457 17.6079 19.6953 18.2056 19.3516C18.7993 19.0078 19.561 19.2109 19.9048 19.8086C20.2485 20.4063 20.0454 21.168 19.4478 21.5117ZM19.4595 18.7969C18.4165 18.3945 17.2681 19.0547 17.0962 20.1641C16.8931 20.2188 15.186 20.7227 13.3188 19.7969L14.1978 18.2227C16.4243 19.2578 19.0181 17.7656 19.2329 15.3164L21.0337 15.3437C20.9438 16.6914 20.3579 17.9023 19.4595 18.7969ZM19.229 14.6836C19.0181 12.2617 16.4438 10.7305 14.1938 11.7773L13.3149 10.2031C15.186 9.27734 16.8892 9.78125 17.0923 9.83594C17.2642 10.9414 18.4126 11.6055 19.4556 11.2031C20.3579 12.0977 20.9399 13.3086 21.0259 14.6602L19.229 14.6836Z" fill="white"/>
</g>
</g>
<defs>
<clipPath id="clip0_1147_527">
<rect width="139" height="30" fill="white"/>
</clipPath>
<clipPath id="clip1_1147_527">
<rect width="19.38" height="20" fill="white" transform="translate(6 5)"/>
</clipPath>
</defs>
</svg>
