<svg width="139" height="30" viewBox="0 0 139 30" fill="none" xmlns="http://www.w3.org/2000/svg">
<g clip-path="url(#clip0_1147_687)">
<rect width="139" height="30" rx="5" fill="#555555"/>
<path d="M103 0H134C136.761 0 139 2.23858 139 5V25C139 27.7614 136.761 30 134 30H103V0Z" fill="#0079CC"/>
<path d="M32.2955 9.36364L35.5341 18.8409H35.6648L38.9034 9.36364H40.8011L36.6136 21H34.5852L30.3977 9.36364H32.2955ZM48.8281 12.4205C48.7675 11.8826 48.5175 11.4659 48.0781 11.1705C47.6387 10.8712 47.0857 10.7216 46.419 10.7216C45.9418 10.7216 45.5289 10.7973 45.1804 10.9489C44.8319 11.0966 44.5611 11.3011 44.3679 11.5625C44.1785 11.8201 44.0838 12.1136 44.0838 12.4432C44.0838 12.7197 44.1482 12.9583 44.277 13.1591C44.4096 13.3598 44.5819 13.5284 44.794 13.6648C45.0099 13.7973 45.241 13.9091 45.4872 14C45.7334 14.0871 45.9702 14.1591 46.1974 14.2159L47.3338 14.5114C47.705 14.6023 48.0857 14.7254 48.4759 14.8807C48.866 15.036 49.2277 15.2405 49.5611 15.4943C49.8944 15.7481 50.1634 16.0625 50.3679 16.4375C50.5762 16.8125 50.6804 17.2614 50.6804 17.7841C50.6804 18.4432 50.5099 19.0284 50.169 19.5398C49.8319 20.0511 49.3414 20.4545 48.6974 20.75C48.0573 21.0455 47.2827 21.1932 46.3736 21.1932C45.5024 21.1932 44.7486 21.0549 44.1122 20.7784C43.4759 20.5019 42.9777 20.1098 42.6179 19.6023C42.258 19.0909 42.0592 18.4848 42.0213 17.7841H43.7827C43.8168 18.2045 43.9531 18.5549 44.1918 18.8352C44.4342 19.1117 44.7429 19.3182 45.1179 19.4545C45.4967 19.5871 45.9115 19.6534 46.3622 19.6534C46.8584 19.6534 47.2997 19.5758 47.6861 19.4205C48.0762 19.2614 48.383 19.0417 48.6065 18.7614C48.83 18.4773 48.9418 18.1458 48.9418 17.767C48.9418 17.4223 48.8433 17.1402 48.6463 16.9205C48.4531 16.7008 48.1899 16.5189 47.8565 16.375C47.527 16.2311 47.1539 16.1042 46.7372 15.9943L45.3622 15.6193C44.4304 15.3655 43.6918 14.9924 43.1463 14.5C42.6046 14.0076 42.3338 13.3561 42.3338 12.5455C42.3338 11.875 42.5156 11.2898 42.8793 10.7898C43.2429 10.2898 43.7353 9.90151 44.3565 9.625C44.9777 9.3447 45.6785 9.20455 46.4588 9.20455C47.2467 9.20455 47.9418 9.3428 48.544 9.61932C49.1501 9.89583 49.6274 10.2765 49.9759 10.7614C50.3243 11.2424 50.5062 11.7955 50.5213 12.4205H48.8281ZM62.4432 13.1477H60.6705C60.6023 12.7689 60.4754 12.4356 60.2898 12.1477C60.1042 11.8598 59.8769 11.6155 59.608 11.4148C59.339 11.214 59.0379 11.0625 58.7045 10.9602C58.375 10.858 58.0246 10.8068 57.6534 10.8068C56.983 10.8068 56.3826 10.9754 55.8523 11.3125C55.3258 11.6496 54.9091 12.1439 54.6023 12.7955C54.2992 13.447 54.1477 14.2424 54.1477 15.1818C54.1477 16.1288 54.2992 16.928 54.6023 17.5795C54.9091 18.2311 55.3277 18.7235 55.858 19.0568C56.3883 19.3902 56.9848 19.5568 57.6477 19.5568C58.0152 19.5568 58.3636 19.5076 58.6932 19.4091C59.0265 19.3068 59.3277 19.1572 59.5966 18.9602C59.8655 18.7633 60.0928 18.5227 60.2784 18.2386C60.4678 17.9508 60.5985 17.6212 60.6705 17.25L62.4432 17.2557C62.3485 17.8277 62.1648 18.3542 61.892 18.8352C61.6231 19.3125 61.2765 19.7254 60.8523 20.0739C60.4318 20.4186 59.9508 20.6856 59.4091 20.875C58.8674 21.0644 58.2765 21.1591 57.6364 21.1591C56.6288 21.1591 55.7311 20.9205 54.9432 20.4432C54.1553 19.9621 53.5341 19.2746 53.0795 18.3807C52.6288 17.4867 52.4034 16.4205 52.4034 15.1818C52.4034 13.9394 52.6307 12.8731 53.0852 11.983C53.5398 11.089 54.161 10.4034 54.9489 9.92614C55.7367 9.44508 56.6326 9.20455 57.6364 9.20455C58.2538 9.20455 58.8295 9.29356 59.3636 9.47159C59.9015 9.64583 60.3845 9.90341 60.8125 10.2443C61.2405 10.5814 61.5947 10.9943 61.875 11.483C62.1553 11.9678 62.3447 12.5227 62.4432 13.1477ZM74.652 15.1818C74.652 16.4242 74.4247 17.4924 73.9702 18.3864C73.5156 19.2765 72.8925 19.9621 72.1009 20.4432C71.313 20.9205 70.4171 21.1591 69.4134 21.1591C68.4058 21.1591 67.5062 20.9205 66.7145 20.4432C65.9266 19.9621 65.3054 19.2746 64.8509 18.3807C64.3963 17.4867 64.169 16.4205 64.169 15.1818C64.169 13.9394 64.3963 12.8731 64.8509 11.983C65.3054 11.089 65.9266 10.4034 66.7145 9.92614C67.5062 9.44508 68.4058 9.20455 69.4134 9.20455C70.4171 9.20455 71.313 9.44508 72.1009 9.92614C72.8925 10.4034 73.5156 11.089 73.9702 11.983C74.4247 12.8731 74.652 13.9394 74.652 15.1818ZM72.9134 15.1818C72.9134 14.2348 72.7599 13.4375 72.4531 12.7898C72.1501 12.1383 71.7334 11.6458 71.2031 11.3125C70.6766 10.9754 70.08 10.8068 69.4134 10.8068C68.7429 10.8068 68.1444 10.9754 67.6179 11.3125C67.0914 11.6458 66.6747 12.1383 66.3679 12.7898C66.0649 13.4375 65.9134 14.2348 65.9134 15.1818C65.9134 16.1288 66.0649 16.928 66.3679 17.5795C66.6747 18.2273 67.0914 18.7197 67.6179 19.0568C68.1444 19.3902 68.7429 19.5568 69.4134 19.5568C70.08 19.5568 70.6766 19.3902 71.2031 19.0568C71.7334 18.7197 72.1501 18.2273 72.4531 17.5795C72.7599 16.928 72.9134 16.1288 72.9134 15.1818ZM80.608 21H76.8409V9.36364H80.7273C81.8674 9.36364 82.8466 9.59659 83.6648 10.0625C84.483 10.5246 85.1098 11.1894 85.5455 12.0568C85.9848 12.9205 86.2045 13.9564 86.2045 15.1648C86.2045 16.3769 85.983 17.4186 85.5398 18.2898C85.1004 19.161 84.464 19.8314 83.6307 20.3011C82.7973 20.767 81.7898 21 80.608 21ZM78.5966 19.4659H80.5114C81.3977 19.4659 82.1345 19.2992 82.7216 18.9659C83.3087 18.6288 83.7481 18.142 84.0398 17.5057C84.3314 16.8655 84.4773 16.0852 84.4773 15.1648C84.4773 14.2519 84.3314 13.4773 84.0398 12.8409C83.7519 12.2045 83.322 11.7216 82.75 11.392C82.178 11.0625 81.4678 10.8977 80.6193 10.8977H78.5966V19.4659ZM88.3878 21V9.36364H95.6832V10.875H90.1435V14.4205H95.3026V15.9261H90.1435V19.4886H95.7514V21H88.3878Z" fill="white"/>
<g clip-path="url(#clip1_1147_687)">
<mask id="mask0_1147_687" style="mask-type:luminance" maskUnits="userSpaceOnUse" x="6" y="5" width="20" height="20">
<path d="M6 5H26V25H6V5Z" fill="white"/>
</mask>
<g mask="url(#mask0_1147_687)">
<path d="M6.19006 11.9747C6.19006 11.9747 5.7034 11.6188 6.28756 11.1455L7.65006 9.91385C7.65006 9.91385 8.03923 9.49968 8.45173 9.86051L21.0192 19.4788V24.0905C21.0192 24.0905 21.0134 24.8155 20.0942 24.7355L6.18923 11.9738L6.19006 11.9747Z" fill="white"/>
<path d="M9.4299 14.9478L6.1899 17.9245C6.1899 17.9245 5.85656 18.1745 6.1899 18.622L7.69406 20.0053C7.69406 20.0053 8.05156 20.3928 8.57906 19.9511L12.0132 17.3195L9.4299 14.9478ZM15.1166 14.972L21.0582 10.387L21.0191 5.79948C21.0191 5.79948 20.7649 4.79781 19.9191 5.31948L12.0132 12.592L15.1166 14.972Z" fill="white"/>
<path d="M20.0934 24.7417C20.4384 25.0984 20.8567 24.9817 20.8567 24.9817L25.4867 22.6759C26.0792 22.2675 25.9959 21.7609 25.9959 21.7609V7.99004C25.9959 7.38504 25.3834 7.17587 25.3834 7.17587L21.37 5.22004C20.4934 4.67254 19.9192 5.31921 19.9192 5.31921C19.9192 5.31921 20.6575 4.78171 21.0192 5.79921V24.0075C21.0192 24.1325 20.9925 24.255 20.94 24.3659C20.8342 24.5817 20.605 24.7825 20.055 24.6992L20.0934 24.7417Z" fill="white"/>
</g>
</g>
</g>
<defs>
<clipPath id="clip0_1147_687">
<rect width="139" height="30" fill="white"/>
</clipPath>
<clipPath id="clip1_1147_687">
<rect width="20" height="20" fill="white" transform="translate(6 5)"/>
</clipPath>
</defs>
</svg>
