<svg width="139" height="30" viewBox="0 0 139 30" fill="none" xmlns="http://www.w3.org/2000/svg">
<g clip-path="url(#clip0_1147_741)">
<rect width="139" height="30" rx="5" fill="#555555"/>
<path d="M103 0H134C136.761 0 139 2.23858 139 5V25C139 27.7614 136.761 30 134 30H103V0Z" fill="#00ADEF"/>
<path d="M32.9222 20L30.2539 10.5455H32.0959L33.7994 17.4933H33.8871L35.706 10.5455H37.3817L39.2053 17.4979H39.2884L40.9918 10.5455H42.8338L40.1655 20H38.4759L36.5831 13.3661H36.5092L34.6119 20H32.9222ZM45.7341 10.5455V20H44.0214V10.5455H45.7341ZM55.3583 10.5455V20H53.8349L49.38 13.56H49.3015V20H47.5888V10.5455H49.1214L53.5717 16.9901H53.6548V10.5455H55.3583ZM60.4284 20H57.2245V10.5455H60.493C61.4317 10.5455 62.238 10.7347 62.912 11.1133C63.5891 11.4888 64.1092 12.0289 64.4724 12.7337C64.8356 13.4384 65.0171 14.2817 65.0171 15.2635C65.0171 16.2483 64.834 17.0947 64.4678 17.8026C64.1046 18.5104 63.5799 19.0536 62.8936 19.4322C62.2103 19.8107 61.3886 20 60.4284 20ZM58.9372 18.5181H60.3453C61.0039 18.5181 61.5532 18.3981 61.9933 18.158C62.4334 17.9149 62.7643 17.5533 62.9859 17.0732C63.2075 16.59 63.3183 15.9867 63.3183 15.2635C63.3183 14.5402 63.2075 13.9401 62.9859 13.4631C62.7643 12.983 62.4365 12.6244 62.0026 12.3874C61.5717 12.1474 61.0362 12.0273 60.396 12.0273H58.9372V18.5181ZM75.0926 15.2727C75.0926 16.2914 74.9018 17.1639 74.5202 17.8903C74.1416 18.6135 73.6246 19.1675 72.969 19.5522C72.3166 19.9369 71.5764 20.1293 70.7485 20.1293C69.9206 20.1293 69.1789 19.9369 68.5233 19.5522C67.8709 19.1644 67.3538 18.6089 66.9722 17.8857C66.5937 17.1593 66.4044 16.2884 66.4044 15.2727C66.4044 14.254 66.5937 13.383 66.9722 12.6598C67.3538 11.9335 67.8709 11.378 68.5233 10.9933C69.1789 10.6085 69.9206 10.4162 70.7485 10.4162C71.5764 10.4162 72.3166 10.6085 72.969 10.9933C73.6246 11.378 74.1416 11.9335 74.5202 12.6598C74.9018 13.383 75.0926 14.254 75.0926 15.2727ZM73.3707 15.2727C73.3707 14.5556 73.2583 13.9509 73.0336 13.4585C72.8121 12.9629 72.5043 12.589 72.1104 12.3366C71.7164 12.0812 71.2625 11.9535 70.7485 11.9535C70.2345 11.9535 69.7806 12.0812 69.3866 12.3366C68.9927 12.589 68.6834 12.9629 68.4587 13.4585C68.2371 13.9509 68.1263 14.5556 68.1263 15.2727C68.1263 15.9898 68.2371 16.5961 68.4587 17.0916C68.6834 17.584 68.9927 17.958 69.3866 18.2134C69.7806 18.4658 70.2345 18.592 70.7485 18.592C71.2625 18.592 71.7164 18.4658 72.1104 18.2134C72.5043 17.958 72.8121 17.584 73.0336 17.0916C73.2583 16.5961 73.3707 15.9898 73.3707 15.2727ZM78.4603 20L75.792 10.5455H77.634L79.3374 17.4933H79.4252L81.2441 10.5455H82.9198L84.7433 17.4979H84.8264L86.5299 10.5455H88.3719L85.7036 20H84.0139L82.1212 13.3661H82.0473L80.1499 20H78.4603ZM94.6341 13.1445C94.5911 12.7414 94.4095 12.4274 94.0894 12.2028C93.7724 11.9781 93.36 11.8658 92.8522 11.8658C92.4952 11.8658 92.189 11.9196 91.9335 12.0273C91.6781 12.1351 91.4826 12.2812 91.3472 12.4659C91.2118 12.6506 91.1425 12.8614 91.1395 13.0984C91.1395 13.2953 91.1841 13.4661 91.2733 13.6108C91.3657 13.7554 91.4903 13.8786 91.6473 13.9801C91.8042 14.0786 91.9781 14.1617 92.1689 14.2294C92.3598 14.2971 92.5521 14.354 92.746 14.4002L93.6324 14.6218C93.9894 14.7049 94.3325 14.8172 94.6618 14.9588C94.9942 15.1004 95.2912 15.2789 95.5528 15.4943C95.8175 15.7098 96.0268 15.9698 96.1807 16.2745C96.3345 16.5792 96.4115 16.9362 96.4115 17.3455C96.4115 17.8995 96.2699 18.3873 95.9868 18.8089C95.7036 19.2275 95.2943 19.5553 94.7588 19.7923C94.2264 20.0262 93.5816 20.1431 92.8245 20.1431C92.0889 20.1431 91.4503 20.0292 90.9086 19.8015C90.3701 19.5737 89.9484 19.2414 89.6437 18.8043C89.3421 18.3673 89.179 17.8349 89.1544 17.207H90.8394C90.864 17.5363 90.9656 17.8103 91.1441 18.0288C91.3226 18.2473 91.555 18.4104 91.8412 18.5181C92.1305 18.6258 92.4536 18.6797 92.8106 18.6797C93.183 18.6797 93.5093 18.6243 93.7893 18.5135C94.0725 18.3996 94.2941 18.2427 94.4541 18.0426C94.6141 17.8395 94.6957 17.6025 94.6988 17.3317C94.6957 17.0855 94.6234 16.8823 94.4818 16.7223C94.3402 16.5592 94.1417 16.4238 93.8863 16.3161C93.6339 16.2053 93.3385 16.1068 92.9999 16.0206L91.9243 15.7436C91.1456 15.5436 90.5301 15.2404 90.0777 14.8342C89.6283 14.4248 89.4037 13.8816 89.4037 13.2045C89.4037 12.6475 89.5545 12.1597 89.8561 11.7411C90.1608 11.3226 90.5747 10.9979 91.0979 10.767C91.6211 10.5331 92.2136 10.4162 92.8753 10.4162C93.5462 10.4162 94.134 10.5331 94.6388 10.767C95.1466 10.9979 95.5451 11.3195 95.8344 11.7319C96.1237 12.1412 96.273 12.6121 96.2822 13.1445H94.6341Z" fill="white"/>
<path d="M24.75 15.3516H15.0625V22.3438L24.75 23.75V15.3516ZM14.4375 15.3516H7.25V21.2109L14.4375 22.2539V15.3516ZM24.75 6.25L15.0625 7.63281V14.7266H24.75V6.25ZM14.4375 7.72266L7.25 8.75V14.7266H14.4375V7.72266Z" fill="white"/>
</g>
<defs>
<clipPath id="clip0_1147_741">
<rect width="139" height="30" fill="white"/>
</clipPath>
</defs>
</svg>
